SplineFontDB: 3.0
FontName: Oxygen-Bold
FullName: Oxygen Bold
FamilyName: Oxygen
Weight: Bold
Copyright: Copyright (c) 2011-12 by vernon adams. All rights reserved.
UComments: "vmetrics+AD0A 1901,-483" 
Version: 0.2
ItalicAngle: 0
UnderlinePosition: -119
UnderlineWidth: 119
Ascent: 1638
Descent: 410
UFOAscent: 1498
UFODescent: -410
LayerCount: 2
Layer: 0 0 "Back"  1
Layer: 1 0 "Fore"  0
FSType: 8
OS2Version: 0
OS2_WeightWidthSlopeOnly: 0
OS2_UseTypoMetrics: 1
CreationTime: 1333874826
ModificationTime: 1335511594
PfmFamily: 33
TTFWeight: 700
TTFWidth: 5
LineGap: 0
VLineGap: 0
Panose: 2 0 8 3 0 0 0 9 0 4
OS2TypoAscent: 1901
OS2TypoAOffset: 0
OS2TypoDescent: -483
OS2TypoDOffset: 0
OS2TypoLinegap: 0
OS2WinAscent: 1901
OS2WinAOffset: 0
OS2WinDescent: 483
OS2WinDOffset: 0
HheadAscent: 1901
HheadAOffset: 0
HheadDescent: -483
HheadDOffset: 0
OS2SubXSize: 0
OS2SubYSize: 0
OS2SubXOff: 0
OS2SubYOff: 0
OS2SupXSize: 0
OS2SupYSize: 0
OS2SupXOff: 0
OS2SupYOff: 0
OS2StrikeYSize: 0
OS2StrikeYPos: 0
OS2Vendor: 'newt'
Lookup: 258 0 0 "'kern' Horizontal Kerning lookup 0"  {"'kern' Horizontal Kerning lookup 0 per glyph data 0"  "'kern' Horizontal Kerning lookup 0 kerning class 1"  } ['kern' ('DFLT' <'dflt' > 'latn' <'dflt' > ) ]
MarkAttachClasses: 2
"nleft" 5 n m h
DEI: 91125
KernClass2: 34 26 "'kern' Horizontal Kerning lookup 0 kerning class 1" 
 89 A Aacute Abreve Acircumflex Adieresis Agrave Amacron Aogonek Aring Atilde uni0200 uni0202
 1 B
 75 D Eth O Oacute Ocircumflex Odieresis Ograve Oslash Otilde Q uni020C uni020E
 1 F
 1 K
 1 L
 7 P Thorn
 44 R Racute Rcaron Rcommaaccent uni0210 uni0212
 22 T Tcommaaccent uni021A
 53 U Uacute Ucircumflex Udieresis Ugrave uni0214 uni0216
 1 V
 1 W
 18 Y Yacute Ydieresis
 89 a aacute abreve acircumflex adieresis agrave amacron aogonek aring atilde uni0201 uni0203
 1 b
 69 e eacute ecircumflex edieresis egrave emacron eogonek uni0205 uni0207
 1 f
 10 g gcedilla
 19 h m n nacute ntilde
 14 k kcommaaccent
 1 l

StartChar: A
Encoding: 34 65 0
AltUni2: 000391.ffffffff.0
Width: 1378
Flags: W
HStem: 0 21G<-5 320.768 1064.18 1383> 396 221<520 862> 1440 20G<516.753 865.192>
VStem: -5 319<0 319> 1071 312<0 312>
DStem2: -5 0 314 0 0.340657 0.940188<108.67 526.632 758.941 984.535> 1383 0 936 396 0.338377 -0.941011<-1177.23 -756.898 -523.895 -105.574>
LayerCount: 2
Fore
SplineSet
1383 0 m 1
 1071 0 l 1
 936 396 l 1
 448 396 l 1
 314 0 l 1
 -5 0 l 1
 524 1460 l 5
 858 1460 l 1
 1383 0 l 1
520 617 m 1
 862 617 l 1
 693 1182 l 1
 520 617 l 1
EndSplineSet
EndChar

StartChar: AE
Encoding: 134 198 1
Width: 1997
VWidth: 0
Flags: W
HStem: 0 208<1367 1894> 358 208<656 1027> 632 208<1329 1831> 1244 208<1278 1852>
DStem2: 22 0 367 0 0.491741 0.870741<169.651 576.282> 1278 1244 981 1177 0.076243 -0.997089<44.1608 405.188 614.107 656.89 865.352 1039.77>
LayerCount: 2
Fore
SplineSet
1027 566 m 1
 981 1177 l 1
 656 566 l 1
 1027 566 l 1
1071 0 m 1
 1041 358 l 1
 560 358 l 1
 367 0 l 1
 22 0 l 1
 842 1452 l 1
 1873 1452 l 1
 1852 1244 l 1
 1278 1244 l 1
 1309 840 l 1
 1831 840 l 1
 1831 632 l 1
 1329 632 l 1
 1367 208 l 1
 1912 208 l 1
 1894 0 l 1
 1071 0 l 1
EndSplineSet
EndChar

StartChar: B
Encoding: 35 66 11
Width: 1351
Flags: HWO
HStem: 0 227<458 868.912> 657 223<458 864.398> 1231 229<458 854.44>
VStem: 154 304<227 657 880 1231> 922 303<935.93 1168.65> 959 309<310.973 583.997>
LayerCount: 2
Fore
SplineSet
154 0 m 1xf4
 154 1460 l 1
 631 1460 l 2
 1007 1460 1214 1368 1214 1091 c 0xf8
 1214 991.059 1184 842 1020 778 c 1
 1190 725 1268 607 1268 426 c 0
 1268 140 1042 0 706 0 c 2
 154 0 l 1xf4
458 1231 m 1
 458 880 l 1
 662 880 l 2
 831 880 916 927 916 1053 c 0
 916 1203 814 1231 613 1231 c 2
 458 1231 l 1
673 657 m 2
 458 657 l 1
 458 227 l 1
 668 227 l 2
 859 227 959 289 959 447 c 0xf4
 959 599 866 657 673 657 c 2
EndSplineSet
EndChar

StartChar: C
Encoding: 36 67 12
Width: 1305
Flags: W
HStem: -20 242<625.955 1067.77> 1238 242<634.545 1038.01>
VStem: 96 311<465.446 980.545>
LayerCount: 2
Fore
SplineSet
815 1238 m 0
 568 1238 407 1043 407 729 c 0
 407 394 562 222 814 222 c 0
 932 222 1058 251 1182 315 c 1
 1220 81 l 1
 1083 1 940 -20 793 -20 c 0
 378 -20 96 251 96 737 c 0
 96 1193 393 1480 808 1480 c 4
 954 1480 1110 1450 1247 1358 c 1
 1157 1132 l 1
 1059 1192 957 1238 815 1238 c 0
EndSplineSet
EndChar

StartChar: D
Encoding: 37 68 18
Width: 1518
Flags: W
HStem: 0 239<458 869.294> 1220 240<458 871.202>
VStem: 154 304<239 1220> 1114 309<489.215 981.292>
LayerCount: 2
Fore
SplineSet
1423 737 m 0
 1423 261 1112 0 606 0 c 2
 154 0 l 1
 154 1460 l 1
 583 1460 l 2
 1097 1460 1423 1228 1423 737 c 0
1114 731 m 0
 1114 1078 943 1220 600 1220 c 2
 458 1220 l 1
 458 239 l 1
 629 239 l 2
 946 239 1114 412 1114 731 c 0
EndSplineSet
EndChar

StartChar: E
Encoding: 38 69 22
Width: 1149
Flags: W
HStem: 0 237<458 1066> 646 236<458 1014> 1224 236<458 1044>
VStem: 154 304<237 646 882 1224>
LayerCount: 2
Fore
SplineSet
1066 237 m 1
 1066 0 l 1
 154 0 l 1
 154 1460 l 1
 1056 1460 l 1
 1044 1224 l 1
 458 1224 l 1
 458 882 l 1
 1014 882 l 1
 1014 646 l 1
 458 646 l 1
 458 237 l 1
 1066 237 l 1
EndSplineSet
EndChar

StartChar: Eth
Encoding: 144 208 32
Width: 1524
VWidth: 0
Flags: W
HStem: 1 222<423 875.87> 634 194<-2 125 423 607> 1227 225<423 858.169>
VStem: 125 298<223 634 828 1227> 1153 297<485.685 971.827>
LayerCount: 2
Fore
SplineSet
423 828 m 1
 607 828 l 1
 607 634 l 1
 423 634 l 1
 423 223 l 1
 631 223 l 2
 967 223 1153 404 1153 722 c 0
 1153 1102 951 1227 542 1227 c 2
 423 1227 l 1
 423 828 l 1
125 828 m 1
 125 1452 l 1
 523 1452 l 2
 1076 1452 1450 1256 1450 726 c 0
 1450 255 1110 1 615 1 c 2
 125 1 l 1
 125 634 l 1
 -2 634 l 1
 -2 828 l 1
 125 828 l 1
EndSplineSet
EndChar

StartChar: Euro
Encoding: 644 8364 33
Width: 1210
VWidth: 0
Flags: W
HStem: -19 206<606.435 958.055> 493 198<101 194 455 970> 760 198<99 194 460 1002> 1254 204<624.925 947.408>
VStem: 214 241<355.977 493 958 1056.05>
LayerCount: 2
Fore
SplineSet
770 -19 m 0
 418 -19 260 215 214 493 c 1
 72 493 l 1
 101 691 l 1
 194 691 l 1
 194 759 l 1
 69 759 l 1
 99 957 l 1
 219 957 l 1
 279 1227 460 1458 801 1458 c 0
 941 1458 1059 1410 1145 1320 c 1
 1093 1040 l 1
 1050 1105 l 2
 994 1190 915 1254 792 1254 c 0
 594 1254 506 1114 460 958 c 1
 1031 958 l 1
 1002 760 l 1
 432 760 l 1
 432 715 l 2
 432 710 433 703 433 701 c 2
 433 691 l 1
 998 691 l 1
 998 688 997 687 997 685 c 2
 970 493 l 1
 455 493 l 1
 491 314 571 187 783 187 c 0
 901 187 986 239 1070 307 c 1
 1122 350 l 1
 1121 91 l 1
 1025 25 918 -19 770 -19 c 0
EndSplineSet
EndChar

StartChar: F
Encoding: 39 70 34
Width: 1091
Flags: W
HStem: 0 21G<154 456> 608 235<456 997> 1224 236<455 1026>
VStem: 154 302<0 608 843 1224>
LayerCount: 2
Fore
SplineSet
456 608 m 1
 456 0 l 1
 154 0 l 1
 154 1460 l 1
 1037 1460 l 1
 1026 1224 l 1
 455 1224 l 1
 455 843 l 1
 997 843 l 1
 997 608 l 1
 456 608 l 1
EndSplineSet
EndChar

StartChar: G
Encoding: 40 71 35
Width: 1468
Flags: W
PickledData: "(dp1
S'com.typemytype.robofont.layerData'
p2
(dp3
S'back'
p4
(dp5
S'name'
p6
S'G'
sS'lib'
p7
(dp8
sS'unicodes'
p9
(tsS'width'
p10
I1431
sS'contours'
p11
(tsS'components'
p12
(tsS'anchors'
p13
(tsss."
HStem: -20 242<629.846 1043.21> 573 233<755 1048> 1238 242<656.756 1104.88>
VStem: 96 311<467.458 967.524> 1048 285<246.259 573>
LayerCount: 2
Fore
SplineSet
755 573 m 1
 755 806 l 1
 1333 806 l 1
 1333 89 l 1
 1163 22 1007 -20 810 -20 c 0
 364 -20 96 260 96 733 c 0
 96 1179 375 1480 851 1480 c 4
 1026 1480 1180 1445 1313 1365 c 1
 1218 1143 l 1
 1114 1198 993 1238 857 1238 c 0
 584 1238 408 1051 407 729 c 0
 407 424 543 222 815 222 c 0
 903 222 981 235 1048 260 c 1
 1048 573 l 1
 755 573 l 1
EndSplineSet
EndChar

StartChar: H
Encoding: 41 72 41
Width: 1530
Flags: W
HStem: 0 21G<154 458 1076 1380> 639 234<458 1076> 1440 20G<154 458 1076 1380>
VStem: 154 304<0 639 873 1460> 1076 304<0 639 873 1460>
LayerCount: 2
Fore
SplineSet
1380 1460 m 1
 1380 0 l 1
 1076 0 l 1
 1076 639 l 1
 458 639 l 1
 458 0 l 1
 154 0 l 1
 154 1460 l 1
 458 1460 l 1
 458 873 l 1
 1076 873 l 1
 1076 1460 l 1
 1380 1460 l 1
EndSplineSet
EndChar

StartChar: I
Encoding: 42 73 43
Width: 622
Flags: W
HStem: 0 21G<159 463> 1440 20G<159 463>
VStem: 159 304<0 1460>
LayerCount: 2
Fore
SplineSet
463 0 m 1
 159 0 l 1
 159 1460 l 5
 463 1460 l 5
 463 0 l 1
EndSplineSet
EndChar

StartChar: J
Encoding: 43 74 54
Width: 661
Flags: W
HStem: -367 237<-91 149.256> 1440 20G<204 508>
VStem: 204 304<-76.2056 1460>
LayerCount: 2
Fore
SplineSet
24 -367 m 0
 -19 -367 -57 -363 -91 -356 c 1
 -99 -120 l 1
 -59 -126 -20 -130 16 -130 c 0
 163 -130 204 -58 204 111 c 2
 204 1460 l 1
 508 1460 l 1
 508 116 l 2
 508 -216 373 -367 24 -367 c 0
EndSplineSet
EndChar

StartChar: K
Encoding: 44 75 56
Width: 1348
Flags: W
HStem: 0 21G<154 458 997 1365> 1440 20G<154 458 891.354 1333>
VStem: 154 304<0 555 822 1460> 978 355<1105 1460> 1011 354<0 354>
DStem2: 458 822 795 804 0.634136 0.773222<199.786 823.066> 795 804 563 640 0.578355 -0.815785<0 780.816>
LayerCount: 2
Fore
SplineSet
795 804 m 1xf0
 1365 0 l 1
 1011 0 l 1xe8
 563 640 l 1
 458 555 l 1
 458 0 l 1
 154 0 l 1
 154 1460 l 1
 458 1460 l 1
 458 822 l 1
 624.438 1040.9 804.708 1247.96 978 1460 c 1
 1333 1460 l 1
 795 804 l 1xf0
EndSplineSet
EndChar

StartChar: L
Encoding: 45 76 58
Width: 1090
Flags: W
HStem: 0 237<458 1050> 1440 20G<154 458>
VStem: 154 304<237 1460>
LayerCount: 2
Fore
SplineSet
1050 0 m 1
 154 0 l 1
 154 1460 l 5
 458 1460 l 5
 458 237 l 1
 1058 237 l 1
 1050 0 l 1
EndSplineSet
EndChar

StartChar: Lslash
Encoding: 257 321 63
Width: 1029
VWidth: 0
Flags: W
HStem: 0 218<423 1014> 944 196<542 738> 1432 20G<125 423>
VStem: 125 298<218 583 958 1452>
DStem2: -27 688 125 583 0.860456 0.509525<0 77.2892 524.777 788.687>
LayerCount: 2
Fore
SplineSet
-27 491 m 1
 -27 688 l 1
 125 780 l 1
 125 1452 l 1
 423 1452 l 1
 423 958 l 1
 738 1140 l 1
 738 944 l 1
 423 761 l 1
 423 218 l 1
 1030 218 l 1
 1014 0 l 1
 125 0 l 1
 125 583 l 1
 -27 491 l 1
EndSplineSet
EndChar

StartChar: M
Encoding: 46 77 64
Width: 1849
Flags: W
HStem: 0 21G<154 425 1421 1699> 1440 20G<154 514.232 1341.65 1699>
VStem: 154 271<0 1059> 1421 278<0 1054>
DStem2: 925 442 1044 103 0.385259 0.922809<0 758.929>
LayerCount: 2
Fore
SplineSet
1044 103 m 1
 791 103 l 1
 453 996 l 1
 416 1059 l 1
 425 665 l 1
 425 0 l 1
 154 0 l 1
 154 1460 l 1
 506 1460 l 1
 925 442 l 1
 1350 1460 l 1
 1699 1460 l 1
 1699 0 l 1
 1421 0 l 1
 1421 668 l 1
 1429 1054 l 1
 1392 991 l 1
 1044 103 l 1
EndSplineSet
EndChar

StartChar: N
Encoding: 47 78 65
Width: 1567
Flags: W
HStem: 0 21G<154 429 1080.31 1417> 1440 20G<154 486.796 1141 1417>
VStem: 154 275<0 1047> 1141 276<419 1460>
DStem2: 474 1460 468 985 0.535766 -0.844367<319.792 1240.09>
LayerCount: 2
Fore
SplineSet
1417 1460 m 1
 1417 0 l 1
 1093 0 l 1
 468 985 l 1
 420 1047 l 1
 429 698 l 1
 429 0 l 1
 154 0 l 1
 154 1460 l 1
 474 1460 l 1
 1101 480 l 1
 1148 419 l 1
 1141 760 l 1
 1141 1460 l 1
 1417 1460 l 1
EndSplineSet
EndChar

StartChar: O
Encoding: 48 79 70
Width: 1626
Flags: W
HStem: -20 243<620.475 1008.62> 1239 241<621.128 1009.66>
VStem: 96 314<462.532 996.951> 1221 311<462.057 996.339>
LayerCount: 2
Fore
SplineSet
1532 730 m 0
 1532 253 1249 -20 814 -20 c 0
 379 -20 96 253 96 731 c 0
 96 1212 380 1480 815 1480 c 4
 1251 1480 1532 1209 1532 730 c 0
410 727 m 0
 410 411 545 223 815 223 c 0
 1085 223 1221 410 1221 727 c 0
 1221 1044 1086 1239 816 1239 c 0
 545 1239 410 1043 410 727 c 0
EndSplineSet
EndChar

StartChar: OE
Encoding: 273 338 71
Width: 2241
VWidth: 0
Flags: W
HStem: -18 225<619.072 1049.13> 5 221<1458 2189> 651 218<1458 2129> 1228 222<1458 2158> 1253 225<623.788 1040.92>
VStem: 74 286<492.036 960.21> 1175 283<297.299 651 869 1156.17>
LayerCount: 2
Fore
SplineSet
812 1478 m 0xae
 955 1478 1074 1438 1175 1374 c 1
 1175 1450 l 1
 2176 1450 l 1
 2158 1228 l 1
 1458 1228 l 1
 1458 869 l 1
 2129 869 l 1
 2129 651 l 1
 1458 651 l 1
 1458 226 l 1
 2207 226 l 1
 2189 5 l 1
 1175 5 l 1x76
 1175 86 l 1
 1074 21 955 -18 812 -18 c 0
 393 -18 74 298 74 727 c 0
 74 1162 392 1478 812 1478 c 0xae
1175 1118 m 1
 1100 1196 980 1253 809 1253 c 0
 512 1253 360 987 360 722 c 0
 360 457 514 207 809 207 c 0xae
 980 207 1100 260 1175 333 c 1
 1175 1118 l 1
EndSplineSet
EndChar

StartChar: Omega
Encoding: 467 937 79
Width: 1615
VWidth: 0
Flags: W
HStem: 16 188<118 379 1237 1488> 1245 199<604.387 1026.14>
VStem: 125 231<509.613 986.631> 1268 229<520.173 994.817>
LayerCount: 2
Fore
SplineSet
959 16 m 1
 952 173 l 1
 972 184 l 1
 1133 300 1268 482 1268 753 c 0
 1268 1036 1125 1245 819 1245 c 0
 511 1245 356 1040 356 757 c 0
 356 474 499 289 674 174 c 1
 678 16 l 1
 118 16 l 1
 102 204 l 1
 379 203 l 1
 361 220 l 2
 223 350 125 534 125 779 c 0
 125 1177 402 1444 824 1444 c 0
 1239 1444 1497 1164 1497 775 c 0
 1497 529 1388 349 1256 220 c 1
 1237 203 l 1
 1501 204 l 1
 1488 16 l 1
 959 16 l 1
EndSplineSet
EndChar

StartChar: Oslash
Encoding: 152 216 80
Width: 1623
VWidth: 0
Flags: W
HStem: -20 231<659.756 1018.27> 1243 235<619.169 979.181>
VStem: 74 302<468.44 975.34> 1256 297<466.344 977.806>
DStem2: 367 -162 459 -204 0.410009 0.912081<0 236.193 484.322 1501.53 1753.72 1983.48>
LayerCount: 2
Fore
SplineSet
1075 1166 m 1
 657 235 l 1
 704 219 756 211 815 211 c 0
 1108 211 1256 416 1256 722 c 0
 1256 918 1196 1077 1075 1166 c 1
815 1243 m 0
 521 1243 376 1027 376 722 c 0
 376 522 440 365 565 280 c 1
 982 1215 l 1
 933 1233 877 1243 815 1243 c 0
1176 1649 m 1
 1274 1609 l 1
 1180 1398 l 1
 1407 1284 1553 1052 1553 727 c 0
 1553 256 1234 -20 811 -20 c 0
 721 -20 636 -8 558 16 c 1
 459 -204 l 1
 367 -162 l 1
 463 52 l 1
 228 163 74 397 74 727 c 0
 74 1202 393 1478 816 1478 c 0
 911 1478 1000 1465 1082 1438 c 1
 1176 1649 l 1
EndSplineSet
EndChar

StartChar: P
Encoding: 49 80 82
Width: 1221
VWidth: 0
Flags: W
PickledData: "(dp1
S'com.typemytype.robofont.layerData'
p2
(dp3
S'back'
p4
(dp5
S'name'
p6
S'P'
sS'lib'
p7
(dp8
sS'unicodes'
p9
(tsS'width'
p10
I1206
sS'contours'
p11
(tsS'components'
p12
(tsS'anchors'
p13
(tsss."
HStem: 0 21G<125 423> 533 210<423 801.693> 1244 216<423 801.071>
VStem: 125 298<0 539 745 1244> 908 289<841.911 1143.68>
LayerCount: 2
Fore
SplineSet
423 0 m 1
 125 0 l 1
 125 1460 l 5
 616 1460 l 6
 970 1460 1197 1323 1197 1008 c 4
 1197 748 1071 533 636 533 c 4
 574 533 499 532 423 539 c 5
 423 0 l 1
591 743 m 4
 862 743 908 875 908 997 c 4
 908 1155 804 1244 617 1244 c 6
 423 1244 l 5
 423 745 l 5
 448 742 534 743 591 743 c 4
EndSplineSet
EndChar

StartChar: Q
Encoding: 50 81 83
Width: 1627
Flags: W
HStem: -470 21G<1215.38 1307.26> -20 226<618.364 917.432> 1252 228<617.935 1010.65>
VStem: 74 302<465.765 976.476> 1256 297<470.743 976.476>
LayerCount: 2
Fore
SplineSet
815 1252 m 0
 521 1252 376 1027 376 722 c 0
 376 416 523 206 815 206 c 0
 1108 206 1256 416 1256 722 c 0
 1256 1027 1110 1252 815 1252 c 0
813 -20 m 0
 391 -20 74 256 74 727 c 0
 74 1202 391 1480 813 1480 c 0
 1236 1480 1553 1202 1553 727 c 0
 1553 381.905 1382.29 141.492 1125.04 37.6194 c 1
 1190.24 -65.2328 1278.43 -173.089 1440 -319 c 1
 1287 -470 l 1
 1143.76 -369.535 987.663 -163.201 906.294 -15.3575 c 1
 875.844 -18.441 844.716 -20 813 -20 c 0
EndSplineSet
EndChar

StartChar: R
Encoding: 51 82 84
Width: 1323
VWidth: 0
Flags: W
PickledData: "(dp1
S'com.typemytype.robofont.layerData'
p2
(dp3
S'back'
p4
(dp5
S'name'
p6
S'R'
sS'lib'
p7
(dp8
sS'unicodes'
p9
(tsS'width'
p10
I1303
sS'contours'
p11
(tsS'components'
p12
(tsS'anchors'
p13
(tsss."
HStem: 0 21G<125 424 1013.84 1338> 609 211<424 730.373> 1243 217<424 897.053>
VStem: 125 299<0 609 820 1243> 975 276<895.354 1166.9>
DStem2: 1133 429 860 356 0.431158 -0.902277<-266.758 339.649>
LayerCount: 2
Fore
SplineSet
1338 0 m 1
 1023 0 l 1
 860 356 l 2
 823 434 731 606 731 606 c 1
 718 608 681 609 638 609 c 2
 424 609 l 1
 424 0 l 1
 125 0 l 1
 125 1460 l 1
 691 1460 l 2
 1034 1460 1251 1384 1251 1048 c 0
 1251 846 1158 724 992 662 c 1
 1055 591 1087 521 1133 429 c 1
 1338 0 l 1
424 1243 m 1
 424 820 l 1
 699 820 l 2
 891 820 975 885 975 1043 c 0
 975 1183 881 1243 706 1243 c 2
 424 1243 l 1
EndSplineSet
EndChar

StartChar: S
Encoding: 52 83 88
Width: 1168
Flags: W
HStem: -20 241<296.675 742.283> 1238 242<446.621 873.556>
VStem: 94 300<978.749 1186.44> 805 301<277.244 494.183>
LayerCount: 2
Fore
SplineSet
1106 410 m 0
 1106 130 879 -20 550 -20 c 0
 359 -20 206 14 79 86 c 1
 119 338 l 1
 271 262 420 221 562 221 c 0
 713 221 805 272 805 385 c 0
 805 459 765 506 700 543 c 0
 598 601 364 667 248 755 c 0
 156 826 94 925 94 1067 c 0
 94 1335 308 1480 609 1480 c 4
 786 1480 931 1446 1066 1371 c 1
 978 1151 l 1
 849 1213 740 1238 603 1238 c 0
 474 1238 394 1186 394 1086 c 0
 394 1004 440 965 512 932 c 0
 559 911 626 883 711 847 c 0
 956 746 1106 645 1106 410 c 0
EndSplineSet
EndChar

StartChar: Scommaaccent
Encoding: -1 536 93
Width: 1173
VWidth: 0
Flags: W
LayerCount: 2
Fore
SplineSet
600 -674 m 1
 436 -674 l 1
 539 -151 l 1
 758 -151 l 1
 600 -674 l 1
1014 1149 m 1
 919 1208 801 1258 640 1258 c 0
 484 1258 379 1205 379 1075 c 0
 379 967 463 931 568 897 c 2
 746 841 l 1
 940.537 778.149 1150 683.451 1150 412.933 c 0
 1149.46 115.441 912.718 -23 623 -23 c 0
 424 -23 264 31 138 107 c 1
 116 120 l 1
 205 342 l 1
 236 319 l 1
 332 251 466 206 631 206 c 0
 794 206 897 268 897 410 c 0
 897 543 791 588 662 628 c 2
 488 682 l 1
 312 735 130 834 130 1069 c 0
 130 1349 367 1484 640 1484 c 0
 815 1484 969 1442 1081 1367 c 1
 1102 1352 l 1
 1017 1155 l 1
 1014 1149 l 1
EndSplineSet
EndChar

StartChar: T
Encoding: 53 84 94
Width: 1151
Flags: W
HStem: 0 21G<423 727> 1222 238<6 423 727 1144>
VStem: 423 304<0 1222>
LayerCount: 2
Fore
SplineSet
727 1222 m 5
 727 0 l 1
 423 0 l 1
 423 1222 l 5
 6 1222 l 5
 6 1460 l 5
 1144 1460 l 5
 1144 1222 l 5
 727 1222 l 5
EndSplineSet
EndChar

StartChar: Thorn
Encoding: 158 222 97
Width: 1339
VWidth: 0
Flags: W
HStem: 335 213<426 930.965> 1047 186<425 931.5>
VStem: 188 237<15 335 548 1047 1233 1440> 1053 243<652.54 944.871>
LayerCount: 2
Fore
SplineSet
188 15 m 1
 188 1440 l 1
 425 1440 l 1
 425 1233 l 1
 700 1233 l 2
 1028 1233 1296 1108 1296 783 c 0
 1296 484 1031 335 726 335 c 2
 425 335 l 1
 425 15 l 1
 188 15 l 1
425 1047 m 1
 426 548 l 1
 747 548 l 2
 929 548 1053 634 1053 796 c 0
 1053 976 927 1047 724 1047 c 2
 425 1047 l 1
EndSplineSet
EndChar

StartChar: U
Encoding: 54 85 98
Width: 1478
Flags: W
HStem: -20 243<555.829 923.05> 1440 20G<142 446 1036 1340>
VStem: 142 304<338.655 1460> 1036 304<348.78 1460>
LayerCount: 2
Fore
SplineSet
1036 1460 m 5
 1340 1460 l 5
 1340 527 l 2
 1340 183 1127 -20 738 -20 c 0
 348 -20 142 182 142 529 c 2
 142 1460 l 5
 446 1460 l 5
 446 560 l 2
 446 328 524 223 742 223 c 0
 956 223 1036 328 1036 561 c 2
 1036 1460 l 5
EndSplineSet
EndChar

StartChar: V
Encoding: 55 86 109
Width: 1347
Flags: W
HStem: 0 21G<518.712 838.151> 1440 20G<-6 310.801 1040.38 1353>
VStem: 1047 306<1154 1460>
DStem2: 608 566 -6 1460 0.342363 -0.939568<-412.688 261.764> 304 1460 -6 1460 0.342363 -0.939568<0 1126.82> 681 314 831 0 0.336663 0.941625<0 868.403> 1047 1460 1353 1460 0.336663 0.941625<-971.533 0>
LayerCount: 2
Fore
SplineSet
750 563 m 1
 1047 1460 l 5
 1353 1460 l 5
 831 0 l 1
 526 0 l 1
 -6 1460 l 5
 304 1460 l 5
 608 566 l 1
 681 314 l 1
 750 563 l 1
EndSplineSet
EndChar

StartChar: W
Encoding: 56 87 110
Width: 2064
Flags: W
HStem: 0 21G<389.493 720.801 1317.6 1650.84> 1440 20G<-7 297.902 890.192 1174.45 1765.8 2071>
VStem: -7 300<1160 1460> 1771 300<1160 1460>
DStem2: 569 334 715 0 0.278886 0.960324<0 850.73> 1169 1460 1030 1086 0.262756 -0.964862<324.335 1172.19>
LayerCount: 2
Fore
SplineSet
2071 1460 m 5
 1645 0 l 1
 1323 0 l 1
 1030 1086 l 1
 715 0 l 1
 395 0 l 1
 -7 1460 l 5
 293 1460 l 5
 569 334 l 1
 896 1460 l 5
 1169 1460 l 5
 1477 329 l 1
 1771 1460 l 5
 2071 1460 l 5
EndSplineSet
EndChar

StartChar: X
Encoding: 57 88 112
Width: 1369
Flags: W
HStem: 0 21G<-17 328.444 1019.85 1385> 1440 20G<22 373.566 1021.17 1358>
VStem: -17 332<0 332> 22 339<1121 1460> 1033 352<0 352> 1034 324<1136 1460>
DStem2: -17 0 315 0 0.56967 0.821873<189.13 839.732> 361 1460 22 1460 0.574215 -0.818705<0 86.3339 935.234 1581.18> 694 930 870 736 0.558922 0.82922<0 629.52>
LayerCount: 2
Fore
SplineSet
870 736 m 1xd4
 1385 0 l 1
 1033 0 l 1
 678 540 l 1
 315 0 l 1
 -17 0 l 1xe8
 498 743 l 1
 22 1460 l 1
 361 1460 l 1
 694 930 l 1
 1034 1460 l 1
 1358 1460 l 1
 870 736 l 1xd4
EndSplineSet
EndChar

StartChar: Y
Encoding: 58 89 113
Width: 1276
Flags: W
HStem: 0 21G<490 793> 1440 20G<-19 319.945 958.055 1294>
VStem: 490 303<0 579>
DStem2: 309 1460 -19 1460 0.500261 -0.865875<0 687.208> 639 857 793 584 0.496459 0.86806<0 687.272>
LayerCount: 2
Fore
SplineSet
309 1460 m 1
 639 857 l 1
 969 1460 l 1
 1294 1460 l 1
 793 584 l 1
 793 0 l 1
 490 0 l 1
 490 579 l 1
 -19 1460 l 1
 309 1460 l 1
EndSplineSet
EndChar

StartChar: Z
Encoding: 59 90 117
Width: 1217
Flags: W
HStem: 0 237<427 1174> 1223 237<80 794>
DStem2: 54 187 427 237 0.579316 0.815103<256.84 1273.14>
LayerCount: 2
Fore
SplineSet
1174 237 m 1
 1174 0 l 1
 54 0 l 1
 54 187 l 1
 794 1223 l 1
 80 1223 l 1
 80 1460 l 1
 1169 1460 l 1
 1169 1281 l 1
 427 237 l 1
 1174 237 l 1
EndSplineSet
EndChar

StartChar: a
Encoding: 66 97 121
Width: 1158
Flags: W
PickledData: "(dp1
S'com.typemytype.robofont.layerData'
p2
(dp3
S'back'
p4
(dp5
S'name'
p6
S'a'
sS'lib'
p7
(dp8
sS'unicodes'
p9
(tsS'width'
p10
I1070
sS'contours'
p11
((dp12
S'points'
p13
((dp14
S'segmentType'
p15
S'curve'
p16
sS'x'
F452
sS'smooth'
p17
I01
sS'y'
F162
s(dp18
S'y'
F162
sS'x'
F363
sg17
I00
s(dp19
S'y'
F216
sS'x'
F321
sg17
I00
s(dp20
g15
S'curve'
p21
sS'x'
F321
sg17
I01
sS'y'
F294
s(dp22
S'y'
F441
sS'x'
F321
sg17
I00
s(dp23
S'y'
F466
sS'x'
F450
sg17
I00
s(dp24
g15
S'curve'
p25
sS'x'
F608
sg17
I01
sS'y'
F489
s(dp26
g15
S'line'
p27
sS'x'
F685
sg17
I00
sS'y'
F501
s(dp28
g15
S'line'
p29
sS'x'
F685
sg17
I00
sS'y'
F250
s(dp30
S'y'
F198
sS'x'
F610
sg17
I00
s(dp31
S'y'
F162
sS'x'
F551
sg17
I00
stp32
s(dp33
g13
((dp34
g15
S'curve'
p35
sS'x'
F722
sg17
I00
sS'y'
F115
s(dp36
g15
S'line'
p37
sS'x'
F751
sg17
I00
sS'y'
F0
s(dp38
g15
S'line'
p39
sS'x'
F968
sg17
I00
sS'y'
F0
s(dp40
g15
S'line'
p41
sS'x'
F968
sg17
I01
sS'y'
F758
s(dp42
S'y'
F990
sS'x'
F968
sg17
I00
s(dp43
S'y'
F1103
sS'x'
F810
sg17
I00
s(dp44
g15
S'curve'
p45
sS'x'
F564
sg17
I01
sS'y'
F1103
s(dp46
g15
S'line'
p47
sS'x'
F539
sg17
I01
sS'y'
F1103
s(dp48
S'y'
F1098
sS'x'
F363
sg17
I00
s(dp49
S'y'
F1068
sS'x'
F229
sg17
I00
s(dp50
g15
S'curve'
p51
sS'x'
F130
sg17
I00
sS'y'
F1023
s(dp52
g15
S'line'
p53
sS'x'
F184
sg17
I00
sS'y'
F822
s(dp54
S'y'
F838
sS'x'
F231
sg17
I00
s(dp55
S'y'
F894
sS'x'
F411
sg17
I00
s(dp56
g15
S'curve'
p57
sS'x'
F515
sg17
I01
sS'y'
F894
s(dp58
g15
S'line'
p59
sS'x'
F528
sg17
I01
sS'y'
F894
s(dp60
S'y'
F887
sS'x'
F673
sg17
I00
s(dp61
S'y'
F834
sS'x'
F685
sg17
I00
s(dp62
g15
S'curve'
p63
sS'x'
F685
sg17
I01
sS'y'
F710
s(dp64
g15
S'line'
p65
sS'x'
F685
sg17
I00
sS'y'
F661
s(dp66
g15
S'line'
p67
sS'x'
F609
sg17
I01
sS'y'
F649
s(dp68
S'y'
F597
sS'x'
F256
sg17
I00
s(dp69
S'y'
F555
sS'x'
F67
sg17
I00
s(dp70
g15
S'curve'
p71
sS'x'
F67
sg17
I01
sS'y'
F284
s(dp72
S'y'
F96
sS'x'
F67
sg17
I00
s(dp73
S'y'
F-21
sS'x'
F206
sg17
I00
s(dp74
g15
S'curve'
p75
sS'x'
F404
sg17
I01
sS'y'
F-21
s(dp76
S'y'
F-21
sS'x'
F542
sg17
I00
s(dp77
S'y'
F38
sS'x'
F629
sg17
I00
stp78
stp79
sS'components'
p80
(tsS'anchors'
p81
((dp82
S'y'
F10
sS'x'
F963
sg6
S'ogonek'
p83
s(dp84
S'y'
F1059
sS'x'
F535
sg6
S'top'
p85
stp86
sss."
HStem: -20 202<392.162 625.477> 0 21G<809.727 1032> 922 206<322.464 692.75>
VStem: 79 283<213.735 434.301> 739 293<253.748 522 694.122 880.521>
DStem2: 514 674 641 514 0.996685 0.081362<-100.468 211.887>
LayerCount: 2
Back
SplineSet
722 115 m 5x7c
 629 38 542 -21 404 -21 c 4xbc
 206 -21 67 96 67 284 c 4
 67 555 256 597 609 649 c 5
 685 661 l 5
 685 710 l 6
 685 834 673 887 528 894 c 5
 405 894 231 838 184 822 c 5
 130 1023 l 5
 229 1068 372 1103 564 1103 c 4
 810 1103 968 990 968 758 c 6
 968 0 l 5
 751 0 l 5
 722 115 l 5x7c
452 162 m 4
 551 162 610 198 685 250 c 5
 685 501 l 5
 608 489 l 5
 450 466 321 441 321 294 c 4
 321 216 363 162 452 162 c 4
EndSplineSet
Fore
SplineSet
739 301 m 1xb8
 739 522 l 1
 641 514 l 1
 471 499 362 455 362 317 c 0
 362 232 412 182 507 182 c 0
 629 182 703 251 739 301 c 1xb8
1032 0 m 1x78
 817 0 l 1x78
 769 132 l 1
 676.366 41.9455 583.734 -20 421 -20 c 0xb8
 227 -20 79 88 79 313 c 0
 79 552 232 645 514 674 c 1
 585 683 660 690 739 699 c 1
 739 744 l 2
 739 873 677 922 566 922 c 0
 466 922 339 886 234 849 c 1
 161 1047 l 1
 295 1100 419 1128 595 1128 c 4
 899 1128 1032 1003 1032 714 c 2
 1032 0 l 1x78
EndSplineSet
EndChar

StartChar: acute
Encoding: 116 180 125
Width: 612
VWidth: 0
Flags: W
HStem: 1176 382<378 381>
VStem: 212 480
LayerCount: 2
Fore
SplineSet
692 1558 m 1
 381 1176 l 1
 212 1176 l 1
 378 1558 l 1
 692 1558 l 1
EndSplineSet
EndChar

StartChar: ae
Encoding: 166 230 127
Width: 1680
VWidth: 0
Flags: W
PickledData: "(dp1
S'com.typemytype.robofont.layerData'
p2
(dp3
S'back'
p4
(dp5
S'name'
p6
S'ae'
p7
sS'lib'
p8
(dp9
sS'unicodes'
p10
(tsS'width'
p11
I1651
sS'contours'
p12
((dp13
S'points'
p14
((dp15
S'segmentType'
p16
S'curve'
p17
sS'x'
F449
sS'smooth'
p18
I01
sS'y'
F162
s(dp19
S'y'
F162
sS'x'
F360
sg18
I00
s(dp20
S'y'
F216
sS'x'
F323
sg18
I00
s(dp21
g16
S'curve'
p22
sS'x'
F318
sg18
I01
sS'y'
F294
s(dp23
g16
S'line'
p24
sS'x'
F318
sg18
I01
sS'y'
F304
s(dp25
S'y'
F404
sS'x'
F318
sg18
I00
s(dp26
S'y'
F418
sS'x'
F424
sg18
I00
s(dp27
g16
S'curve'
p28
sS'x'
F577
sg18
I01
sS'y'
F440
s(dp29
g16
S'line'
p30
sS'x'
F674
sg18
I00
sS'y'
F454
s(dp31
S'y'
F391
sS'x'
F674
sg18
I00
s(dp32
S'y'
F292
sS'x'
F711
sg18
I00
s(dp33
g16
S'curve'
p34
sS'x'
F711
sg18
I00
sS'y'
F290
s(dp35
S'y'
F217
sS'x'
F636
sg18
I00
s(dp36
S'y'
F162
sS'x'
F548
sg18
I00
stp37
s(dp38
g14
((dp39
g16
S'line'
p40
sS'x'
F943
sg18
I00
sS'y'
F632
s(dp41
S'y'
F840
sS'x'
F959
sg18
I00
s(dp42
S'y'
F887
sS'x'
F1072
sg18
I00
s(dp43
g16
S'curve'
p44
sS'x'
F1164
sg18
I01
sS'y'
F895
s(dp45
S'y'
F896
sS'x'
F1172
sg18
I00
s(dp46
S'y'
F896
sS'x'
F1179
sg18
I00
s(dp47
g16
S'curve'
p48
sS'x'
F1186
sg18
I01
sS'y'
F896
s(dp49
S'y'
F896
sS'x'
F1324
sg18
I00
s(dp50
S'y'
F771
sS'x'
F1342
sg18
I00
s(dp51
g16
S'curve'
p52
sS'x'
F1342
sg18
I01
sS'y'
F708
s(dp53
S'y'
F686
sS'x'
F1342
sg18
I00
s(dp54
S'y'
F672
sS'x'
F1340
sg18
I00
s(dp55
g16
S'curve'
p56
sS'x'
F1340
sg18
I00
sS'y'
F672
stp57
s(dp58
g14
((dp59
g16
S'curve'
p60
sS'x'
F1566
sg18
I00
sS'y'
F80
s(dp61
g16
S'line'
p62
sS'x'
F1487
sg18
I00
sS'y'
F253
s(dp63
S'y'
F219
sS'x'
F1444
sg18
I00
s(dp64
S'y'
F184
sS'x'
F1354
sg18
I00
s(dp65
g16
S'curve'
p66
sS'x'
F1227
sg18
I01
sS'y'
F184
s(dp67
g16
S'line'
p68
sS'x'
F1217
sg18
I01
sS'y'
F184
s(dp69
S'y'
F186
sS'x'
F1047
sg18
I00
s(dp70
S'y'
F287
sS'x'
F948
sg18
I00
s(dp71
g16
S'curve'
p72
sS'x'
F942
sg18
I00
sS'y'
F482
s(dp73
g16
S'line'
p74
sS'x'
F1595
sg18
I00
sS'y'
F531
s(dp75
g16
S'line'
p76
sS'x'
F1595
sg18
I01
sS'y'
F533
s(dp77
S'y'
F560
sS'x'
F1595
sg18
I00
s(dp78
S'y'
F557
sS'x'
F1597
sg18
I00
s(dp79
g16
S'curve'
p80
sS'x'
F1597
sg18
I01
sS'y'
F583
s(dp81
g16
S'line'
p82
sS'x'
F1597
sg18
I01
sS'y'
F586
s(dp83
S'y'
F862
sS'x'
F1597
sg18
I00
s(dp84
S'y'
F1104
sS'x'
F1481
sg18
I00
s(dp85
g16
S'curve'
p86
sS'x'
F1189
sg18
I01
sS'y'
F1104
s(dp87
S'y'
F1104
sS'x'
F1180
sg18
I00
s(dp88
S'y'
F1103
sS'x'
F1171
sg18
I00
s(dp89
g16
S'curve'
p90
sS'x'
F1161
sg18
I01
sS'y'
F1103
s(dp91
S'y'
F1096
sS'x'
F1022
sg18
I00
s(dp92
S'y'
F1017
sS'x'
F898
sg18
I00
s(dp93
g16
S'curve'
p94
sS'x'
F832
sg18
I00
sS'y'
F933
s(dp95
S'y'
F1044
sS'x'
F791
sg18
I00
s(dp96
S'y'
F1103
sS'x'
F668
sg18
I00
s(dp97
g16
S'curve'
p98
sS'x'
F524
sg18
I01
sS'y'
F1103
s(dp99
g16
S'line'
p100
sS'x'
F499
sg18
I00
sS'y'
F1103
s(dp101
S'y'
F1098
sS'x'
F323
sg18
I00
s(dp102
S'y'
F1068
sS'x'
F226
sg18
I00
s(dp103
g16
S'curve'
p104
sS'x'
F127
sg18
I00
sS'y'
F1023
s(dp105
g16
S'line'
p106
sS'x'
F181
sg18
I00
sS'y'
F833
s(dp107
S'y'
F849
sS'x'
F228
sg18
I00
s(dp108
S'y'
F905
sS'x'
F371
sg18
I00
s(dp109
g16
S'curve'
p110
sS'x'
F475
sg18
I01
sS'y'
F905
s(dp111
g16
S'line'
p112
sS'x'
F488
sg18
I00
sS'y'
F905
s(dp113
S'y'
F898
sS'x'
F633
sg18
I00
s(dp114
S'y'
F834
sS'x'
F667
sg18
I00
s(dp115
g16
S'curve'
p116
sS'x'
F667
sg18
I01
sS'y'
F710
s(dp117
g16
S'line'
p118
sS'x'
F667
sg18
I00
sS'y'
F614
s(dp119
g16
S'line'
p120
sS'x'
F578
sg18
I00
sS'y'
F605
s(dp121
S'y'
F564
sS'x'
F246
sg18
I00
s(dp122
S'y'
F538
sS'x'
F62
sg18
I00
s(dp123
g16
S'curve'
p124
sS'x'
F62
sg18
I01
sS'y'
F311
s(dp125
S'y'
F141.72300000000001
sS'x'
F62
sg18
I00
s(dp126
S'y'
F-21
sS'x'
F185.148
sg18
I00
s(dp127
g16
S'curve'
p128
sS'x'
F401
sg18
I01
sS'y'
F-21
s(dp129
S'y'
F-21
sS'x'
F604
sg18
I00
s(dp130
S'y'
F57
sS'x'
F728
sg18
I00
s(dp131
g16
S'curve'
p132
sS'x'
F812
sg18
I00
sS'y'
F147
s(dp133
S'y'
F46
sS'x'
F889
sg18
I00
s(dp134
S'y'
F-20
sS'x'
F1005
sg18
I00
s(dp135
g16
S'curve'
p136
sS'x'
F1202
sg18
I01
sS'y'
F-20
s(dp137
S'y'
F-20
sS'x'
F1382
sg18
I00
s(dp138
S'y'
F19
sS'x'
F1479
sg18
I00
stp139
stp140
sS'components'
p141
(tsS'anchors'
p142
((dp143
S'y'
F1059
sS'x'
F826
sg6
S'top'
p144
stp145
sss."
HStem: -21 183<359.678 615.178> -20 204<1084.57 1473.44> 931 208<247.781 646.914 1070.96 1321.94>
VStem: 69 256<192.797 393.63> 686 276<314.574 467 654 817.063> 1374 255<696 878.387>
DStem2: 594 626 593 453 0.995977 0.0896123<-250.855 84.3533 369.029 786.442>
LayerCount: 2
Fore
SplineSet
1213 931 m 0x3c
 1123 931 980 891 962 654 c 1
 1372 696 l 1
 1372 696 1374 711 1374 734 c 0
 1374 800 1356 931 1213 931 c 0x3c
460 162 m 0xbc
 562 162 653 219 730 295 c 1
 730 297 693 401 693 467 c 1
 593 453 l 2
 435 430 325 415 325 310 c 0
 325 220 368 162 460 162 c 0xbc
69 322 m 0
 69 557 256 584 594 626 c 1
 686 635 l 1
 686 736 l 2
 686 866 651 933 501 940 c 1
 375 940 236 882 188 865 c 1
 134 1058 l 1
 235 1103 333 1133 512 1138 c 1
 688 1141 809 1079 851 968 c 1
 923 1058 1051 1139 1214 1139 c 0
 1511 1139 1629 890 1629 605 c 0
 1629 557 1563 540 1482 538 c 1
 1433 535 1091 507 961 497 c 1
 967 292 1069 186 1245 184 c 1
 1374 184 1475 220 1519 256 c 1
 1598 80 l 1
 1509 19 1410 -20 1227 -20 c 0x7c
 1027 -20 909 46 831 147 c 1
 746 57 619 -21 413 -21 c 0
 194 -21 69 147 69 322 c 0
EndSplineSet
EndChar

StartChar: afii10024
Encoding: 527 1046 128
Width: 1384
VWidth: 0
Flags: W
VStem: 17 293<15 308> 815 240<15 546 917 1440>
DStem2: 366 1440 54 1440 0.652489 -0.757799<0 689.296>
LayerCount: 2
Fore
SplineSet
54 1440 m 1
 366 1440 l 1
 368 1438 367 1438 369 1436 c 2
 815 917 l 1
 815 1440 l 1
 1055 1440 l 1
 1055 905 l 1
 1366 1440 l 1
 1657 1440 l 1
 1167 742 l 1
 1695 15 l 1
 1402 15 l 1
 1055 550 l 1
 1055 15 l 1
 815 15 l 1
 815 546 l 1
 310 15 l 1
 17 15 l 1
 655 742 l 1
 54 1440 l 1
EndSplineSet
EndChar

StartChar: afii10025
Encoding: 528 1047 129
Width: 1284
VWidth: 0
Flags: W
HStem: -18 229<413.296 883.448> 634 224<466 849.335> 1243 237<393.242 818.823>
VStem: 921 270<921.222 1152.26> 972 254<289.045 531.208>
LayerCount: 2
Fore
SplineSet
1028 745 m 1xf0
 1153 680 1226 548 1226 416 c 0
 1226 148 1044 -18 655 -18 c 0
 456 -18 242 33 146 137 c 1
 184 201 216 269 251 336 c 1
 343 277 488 211 660 211 c 0
 924 211 972 310 972 429 c 0xe8
 972 551 806 634 679 634 c 2
 466 634 l 1
 466 858 l 1
 680 858 l 2
 799 858 921 893 921 1048 c 0
 921 1139 819 1243 650 1243 c 0
 473 1243 376 1203 294 1141 c 1
 188 1335 l 1
 310 1439 462 1480 658 1480 c 0
 922 1480 1191 1328 1191 1085 c 0
 1191 873 1126 797 1028 745 c 1xf0
EndSplineSet
EndChar

StartChar: afii10026
Encoding: 529 1048 130
Width: 1469
VWidth: 0
Flags: W
HStem: 0 21G<125 389.178 1080 1353> 1425 20G<125 398 1096.3 1353>
VStem: 125 273<470 1445> 1080 273<0 874>
DStem2: 398 470 373 0 0.628917 0.777473<0 743.02>
LayerCount: 2
Fore
SplineSet
1353 1445 m 1
 1353 0 l 1
 1080 0 l 1
 1080 874 l 1
 373 0 l 1
 125 0 l 1
 125 1445 l 1
 398 1445 l 1
 398 470 l 1
 1082 1319 l 1
 1099 1445 l 1
 1353 1445 l 1
EndSplineSet
EndChar

StartChar: afii10037
Encoding: 540 1059 133
Width: 1318
VWidth: 0
Flags: W
HStem: -303 214<240 450.282> 1425 20G<-37 291.986 984.986 1310>
VStem: 493 298<-44.5733 436>
DStem2: 282 1445 -37 1445 0.465023 -0.885299<0 796.766> 638 732 791 436 0.457408 0.889257<0 797.335>
LayerCount: 2
Back
SplineSet
477 130 m 6
 477 332 l 5
 775 332 l 5
 775 139 l 6
 775 -184 665 -303 278 -303 c 6
 232 -303 l 5
 215 -89 l 5
 297 -89 l 6
 451 -89 477 -28 477 130 c 6
EndSplineSet
Fore
SplineSet
1310 1445 m 1
 791 436 l 1
 791 139 l 2
 791 -184 679 -303 286 -303 c 2
 240 -303 l 1
 222 -89 l 1
 307 -89 l 2
 466 -89 493 -28 493 130 c 2
 493 436 l 1
 -37 1445 l 1
 282 1445 l 1
 638 732 l 1
 995 1445 l 1
 1310 1445 l 1
EndSplineSet
EndChar

StartChar: afii10040
Encoding: 543 1062 134
Width: 1560
VWidth: 0
Flags: W
HStem: 0 210<423 1080> 1425 20G<125 423 1080 1378>
VStem: 125 298<210 1445> 1080 298<210 1445> 1278 255<-365 0>
LayerCount: 2
Fore
SplineSet
1378 88 m 1xf0
 1533 88 l 1
 1533 -365 l 1
 1278 -365 l 1xe8
 1277 0 l 1
 125 0 l 1
 125 1445 l 1
 423 1445 l 1
 423 210 l 1
 1080 210 l 1
 1080 1445 l 1
 1378 1445 l 1
 1378 88 l 1xf0
EndSplineSet
EndChar

StartChar: afii10041
Encoding: 544 1063 135
Width: 1997
VWidth: 0
Flags: W
HStem: 576 218<525.509 1124>
VStem: 194 241<876.604 1440> 1125 264<15 576 794 1440>
LayerCount: 2
Fore
SplineSet
1125 794 m 1
 1125 1440 l 1
 1389 1440 l 1
 1389 15 l 1
 1125 15 l 1
 1124 576 l 1
 868 576 l 2
 480 576 194 615 194 1008 c 2
 194 1440 l 1
 435 1440 l 1
 435 1009 l 2
 435 818 558 794 816 794 c 2
 1125 794 l 1
EndSplineSet
EndChar

StartChar: afii10043
Encoding: 546 1065 136
Width: 1947
VWidth: 0
Flags: W
HStem: 0 210<423 822 1120 1473> 1425 20G<125 423 822 1120 1473 1771>
VStem: 125 298<210 1445> 822 298<210 1445> 1473 298<210 1445> 1671 255<-365 0>
LayerCount: 2
Back
SplineSet
1743 88 m 5xf0
 1898 88 l 5
 1898 -365 l 5
 1643 -365 l 5xe8
 1642 0 l 5
 511 0 l 1
 511 1445 l 1
 809 1445 l 1
 809 210 l 1
 1445 210 l 1
 1445 1445 l 1
 1743 1445 l 1
 1743 88 l 5xf0
EndSplineSet
Fore
SplineSet
423 210 m 1xf4
 822 210 l 1
 822 1445 l 1
 1120 1445 l 1
 1120 210 l 1
 1473 210 l 1
 1473 1445 l 1
 1771 1445 l 1
 1771 88 l 1xf8
 1926 88 l 1
 1926 -365 l 1
 1671 -365 l 1
 1670 0 l 1
 125 0 l 1
 125 1445 l 1
 423 1445 l 1
 423 210 l 1xf4
EndSplineSet
EndChar

StartChar: afii10047
Encoding: 550 1069 137
Width: 1419
VWidth: 0
Flags: W
HStem: -18 225<354.576 763.982> 641 218<350 1012> 1122 21G<191.574 259.5> 1253 225<360.829 755.71>
VStem: 350 956<649.749 857.901>
LayerCount: 2
Fore
SplineSet
589 -18 m 0
 440 -18 276 26 112 115 c 1
 201 329 l 1
 317 254 446 207 565 207 c 0
 793 207 980 356 1018 641 c 1
 350 641 l 1
 350 859 l 1
 1012 859 l 1
 960 1101 783 1253 568 1253 c 0
 447 1253 319 1205 200 1122 c 1
 109 1338 l 1
 263 1432 431 1478 582 1478 c 0
 960 1478 1306 1194 1306 733 c 0
 1306 279 974 -18 589 -18 c 0
EndSplineSet
EndChar

StartChar: afii10051
Encoding: 507 1026 138
Width: 1926
VWidth: 0
Flags: W
HStem: -203 218<1248 1403.58> 662 218<928 1362.73> 1222 218<194 640 912 1322>
VStem: 640 273<880 1221> 664 264<16 662> 1431 241<45.8789 589.552>
LayerCount: 2
Fore
SplineSet
1672 442 m 1xf4
 1672 234 l 2
 1672 -164 1477 -203 1253 -203 c 2
 1248 -203 l 1
 1248 15 l 1
 1253 15 l 2
 1407 15 1431 37 1431 232 c 2
 1431 444 l 2
 1431 636 1329 662 1115 662 c 2
 928 662 l 1
 928 16 l 1
 664 16 l 1xec
 640 1222 l 1
 194 1222 l 1
 194 1440 l 1
 1322 1440 l 1
 1322 1221 l 1
 912 1221 l 1
 913 880 l 1
 1054 880 l 2
 1364 880 1641 840 1672 442 c 1xf4
EndSplineSet
EndChar

StartChar: afii10053
Encoding: 509 1028 139
Width: 1419
VWidth: 0
Flags: W
HStem: -18 225<651.869 1061.12> 641 218<403 1065> 1122 21G<1155.5 1223.43> 1253 225<660.141 1054.65>
VStem: 109 956<649.749 857.901>
LayerCount: 2
Fore
SplineSet
397 641 m 1
 435 356 623 207 851 207 c 0
 970 207 1098 254 1214 329 c 1
 1304 115 l 1
 1140 26 976 -18 827 -18 c 0
 442 -18 109 279 109 733 c 0
 109 1194 456 1478 834 1478 c 0
 985 1478 1152 1432 1306 1338 c 1
 1215 1122 l 1
 1096 1205 969 1253 848 1253 c 0
 633 1253 455 1101 403 859 c 1
 1065 859 l 1
 1065 641 l 1
 397 641 l 1
EndSplineSet
EndChar

StartChar: afii10060
Encoding: 516 1035 140
Width: 1519
VWidth: 0
Flags: W
HStem: 0 21G<408 706 1147 1445> 662 218<706 1084.03> 1227 218<-28 408 706 1144>
VStem: 408 298<0 662 880 1227> 1147 298<0 607.493>
LayerCount: 2
Back
SplineSet
698 1227 m 5
 698 1445 l 5
 1842 1445 l 5
 1842 1227 l 5
 1418 1227 l 5
 1418 880 l 5
 1557 880 l 6
 1870 880 2143 841 2143 448 c 6
 2143 0 l 5
 1902 0 l 5
 1902 447 l 6
 1902 636 1803 662 1596 662 c 6
 1418 662 l 5
 1418 0 l 5
 1120 0 l 5
 1120 1227 l 5
 698 1227 l 5
EndSplineSet
Fore
SplineSet
-28 1227 m 1
 -28 1445 l 1
 1144 1445 l 1
 1144 1227 l 1
 706 1227 l 1
 706 880 l 1
 919 880 l 2
 1200 880 1445 841 1445 448 c 2
 1445 0 l 1
 1147 0 l 1
 1147 447 l 2
 1147 636 1064 662 890 662 c 2
 706 662 l 1
 706 0 l 1
 408 0 l 1
 408 1227 l 1
 -28 1227 l 1
EndSplineSet
EndChar

StartChar: afii10066
Encoding: 554 1073 143
Width: 1113
VWidth: 0
Flags: W
PickledData: "(dp1
S'com.typemytype.robofont.layerData'
p2
(dp3
S'back'
p4
(dp5
S'name'
p6
S'afii10066'
p7
sS'lib'
p8
(dp9
sS'unicodes'
p10
(tsS'width'
p11
I1101
sS'contours'
p12
((dp13
S'points'
p14
((dp15
S'segmentType'
p16
S'line'
p17
sS'x'
F384
sS'smooth'
p18
I00
sS'y'
F1063
s(dp19
g16
S'line'
p20
sS'x'
F384
sg18
I00
sS'y'
F0
s(dp21
g16
S'line'
p22
sS'x'
F101
sg18
I00
sS'y'
F0
s(dp23
g16
S'line'
p24
sS'x'
F101
sg18
I00
sS'y'
F1063
stp25
stp26
sS'components'
p27
(tsS'anchors'
p28
(tsss."
HStem: 0 201<387 737.578> 511 196<387 743.245> 890 208<386 930>
VStem: 104 283<201 511 707 890> 787 253<249.711 465.716>
LayerCount: 2
Back
SplineSet
384 468 m 5
 384 207 l 5
 597 207 l 6
 696.083 207 755 260 755 343 c 4
 755 420 693.407 468 597 468 c 6
 384 468 l 5
623 0 m 6
 101 0 l 5
 101 1063 l 5
 384 1063 l 5
 384 676 l 5
 609 676 l 6
 825 676 1011 572 1011 343 c 4
 1011 117 844 0 623 0 c 6
EndSplineSet
Fore
SplineSet
787 362 m 0
 787 438 733 511 625 511 c 2
 387 511 l 1
 387 201 l 1
 631 201 l 2
 728 201 787 277 787 362 c 0
642 707 m 2
 840 707 1040 603 1040 360 c 0
 1040 136 878 0 658 0 c 2
 104 0 l 1
 104 1098 l 1
 930 1098 l 1
 930 890 l 1
 386 890 l 1
 386 707 l 1
 642 707 l 2
EndSplineSet
EndChar

StartChar: afii10072
Encoding: 559 1078 144
Width: 1597
VWidth: 0
Flags: W
PickledData: "(dp1
S'com.typemytype.robofont.layerData'
p2
(dp3
S'back'
p4
(dp5
S'name'
p6
S'afii10072'
p7
sS'lib'
p8
(dp9
sS'unicodes'
p10
(tsS'width'
p11
I1557
sS'contours'
p12
((dp13
S'points'
p14
((dp15
S'segmentType'
p16
S'line'
p17
sS'x'
F922
sS'smooth'
p18
I00
sS'y'
F1063
s(dp19
g16
S'line'
p20
sS'x'
F922
sg18
I00
sS'y'
F0
s(dp21
g16
S'line'
p22
sS'x'
F639
sg18
I00
sS'y'
F0
s(dp23
g16
S'line'
p24
sS'x'
F639
sg18
I00
sS'y'
F1063
stp25
stp26
sS'components'
p27
(tsS'anchors'
p28
(tsss."
HStem: 0 21G<28 360.803 670 933 1243.15 1576> 1078 20G<49 394.281 670 933 1209.68 1555>
VStem: 28 319<0 319> 670 263<0 468 629 1098> 1257 319<0 319>
DStem2: 28 0 347 0 0.597665 0.801746<190.655 686.003> 1166 550 933 468 0.597665 -0.801746<0 495.348>
LayerCount: 2
Fore
SplineSet
670 629 m 1
 670 1098 l 1
 933 1098 l 1
 933 629 l 1
 1222 1098 l 1
 1555 1098 l 1
 1166 550 l 1
 1576 0 l 1
 1257 0 l 1
 933 468 l 1
 933 0 l 1
 670 0 l 1
 670 468 l 1
 347 0 l 1
 28 0 l 1
 438 550 l 1
 49 1098 l 1
 382 1098 l 1
 670 629 l 1
EndSplineSet
EndChar

StartChar: afii10088
Encoding: 575 1094 145
Width: 1240
VWidth: 0
Flags: W
PickledData: "(dp1
S'com.typemytype.robofont.layerData'
p2
(dp3
S'back'
p4
(dp5
S'name'
p6
S'afii10088'
p7
sS'lib'
p8
(dp9
sS'unicodes'
p10
(tsS'width'
p11
I1227
sS'contours'
p12
((dp13
S'points'
p14
((dp15
S'segmentType'
p16
S'line'
p17
sS'x'
F1182
sS'smooth'
p18
I00
sS'y'
F751
s(dp19
g16
S'line'
p20
sS'x'
F1182
sg18
I00
sS'y'
F-312
s(dp21
g16
S'line'
p22
sS'x'
F899
sg18
I00
sS'y'
F-312
s(dp23
g16
S'line'
p24
sS'x'
F899
sg18
I00
sS'y'
F751
stp25
stp26
sS'components'
p27
(tsS'anchors'
p28
(tsss."
HStem: 0 215<387 800> 1078 20G<104 387 800 1083>
VStem: 104 283<215 1098> 800 283<215 1098> 975 239<-362 -126.108>
LayerCount: 2
Fore
SplineSet
800 215 m 1xf0
 800 1098 l 1
 1083 1098 l 1
 1083 96 l 1xf0
 1214 96 l 1
 1214 -362 l 1
 975 -362 l 1xe8
 953 0 l 1
 104 0 l 1
 104 1098 l 1
 387 1098 l 1
 387 215 l 1
 800 215 l 1xf0
EndSplineSet
EndChar

StartChar: afii10091
Encoding: 578 1097 146
Width: 1596
VWidth: 0
Flags: W
PickledData: "(dp1
S'com.typemytype.robofont.layerData'
p2
(dp3
S'back'
p4
(dp5
S'name'
p6
S'afii10091'
p7
sS'lib'
p8
(dp9
sS'unicodes'
p10
(tsS'width'
p11
I1579
sS'contours'
p12
((dp13
S'points'
p14
((dp15
S'segmentType'
p16
S'line'
p17
sS'x'
F784
sS'smooth'
p18
I00
sS'y'
F215
s(dp19
g16
S'line'
p20
sS'x'
F784
sg18
I00
sS'y'
F1063
s(dp21
g16
S'line'
p22
sS'x'
F1067
sg18
I00
sS'y'
F1063
s(dp23
S'y'
F1063
sS'x'
F1067
sg18
I00
s(dp24
S'y'
F0
sS'x'
F1067
sg18
I00
s(dp25
g16
S'curve'
p26
sS'x'
F1067
sg18
I00
sS'y'
F0
s(dp27
g16
S'line'
p28
sS'x'
F101
sg18
I00
sS'y'
F0
s(dp29
g16
S'line'
p30
sS'x'
F101
sg18
I00
sS'y'
F1063
s(dp31
g16
S'line'
p32
sS'x'
F384
sg18
I00
sS'y'
F1063
s(dp33
g16
S'line'
p34
sS'x'
F384
sg18
I00
sS'y'
F215
stp35
stp36
sS'components'
p37
(tsS'anchors'
p38
(tsss."
HStem: 0 215<367 639 902 1175> 1078 20G<104 367 639 902 1175 1433>
VStem: 104 263<215 1098> 639 263<215 1098> 1175 258<215 1098> 1324 239<-362 -126.108>
LayerCount: 2
Fore
SplineSet
1302 0 m 1xf4
 104 0 l 1
 104 1098 l 1
 367 1098 l 1
 367 215 l 1
 639 215 l 1
 639 1098 l 1
 902 1098 l 1
 902 215 l 1
 1175 215 l 1
 1175 1098 l 1
 1433 1098 l 1
 1433 96 l 1xf8
 1563 96 l 1
 1563 -362 l 1
 1324 -362 l 1
 1302 0 l 1xf4
EndSplineSet
EndChar

StartChar: afii10093
Encoding: 580 1099 147
Width: 1513
VWidth: 0
Flags: W
HStem: 0 201<387 737.578> 504 196<387 743.245> 1078 20G<104 386 1132 1415.02>
VStem: 104 282<201 504 700 1098> 787 253<248.507 460.856> 1132 284<0 1098>
LayerCount: 2
Back
SplineSet
1393 468 m 5
 1393 207 l 5
 1606 207 l 6
 1705.08 207 1764 260 1764 343 c 4
 1764 420 1702.41 468 1606 468 c 6
 1393 468 l 5
1632 0 m 6
 1110 0 l 5
 1110 1063 l 5
 1393 1063 l 5
 1393 676 l 5
 1618 676 l 6
 1834 676 2020 572 2020 343 c 4
 2020 117 1853 0 1632 0 c 6
EndSplineSet
Fore
SplineSet
1415 1098 m 1
 1416 0 l 1
 1132 0 l 1
 1132 1098 l 1
 1415 1098 l 1
787 359 m 0
 787 434 733 504 625 504 c 2
 387 504 l 1
 387 201 l 1
 631 201 l 2
 728 201 787 276 787 359 c 0
642 700 m 2
 840 700 1040 597 1040 357 c 0
 1040 136 878 0 658 0 c 2
 104 0 l 1
 104 1098 l 1
 386 1099 l 1
 386 700 l 1
 642 700 l 2
EndSplineSet
EndChar

StartChar: afii10095
Encoding: 582 1101 148
Width: 991
VWidth: 0
Flags: W
HStem: -21 206<175.973 519.858> 460 188<146 652> 909 208<179.261 531.227>
VStem: 652 279<324.27 460 648 778.143>
LayerCount: 2
Fore
SplineSet
146 648 m 1
 653 648 l 1
 625 842 506 909 364 909 c 0
 267 909 159 861 114 828 c 1
 67 1022 l 1
 152 1084 248 1117 396 1117 c 0
 659 1117 931 954 931 572 c 0
 931 171 694 -21 375 -21 c 0
 239 -21 149 13 55 74 c 1
 109 270 l 1
 169 226 256 185 358 185 c 0
 512 185 623 265 652 460 c 1
 146 460 l 1
 146 648 l 1
EndSplineSet
EndChar

StartChar: afii10101
Encoding: 589 1108 149
Width: 991
VWidth: 0
Flags: W
PickledData: "(dp1
S'com.typemytype.robofont.layerData'
p2
(dp3
S'back'
p4
(dp5
S'name'
p6
S'afii10101'
p7
sS'lib'
p8
(dp9
sS'unicodes'
p10
(tsS'width'
p11
I1180
sS'contours'
p12
(tsS'components'
p13
(tsS'anchors'
p14
(tsss."
HStem: -21 206<474.822 818.527> 460 188<343 849> 909 208<463.773 815.739>
VStem: 64 279<324.27 460 648 778.143>
LayerCount: 2
Fore
SplineSet
849 648 m 1
 849 460 l 1
 343 460 l 1
 372 265 482 185 636 185 c 0
 738 185 825 226 885 270 c 1
 940 74 l 1
 846 13 756 -21 620 -21 c 0
 301 -21 64 171 64 572 c 0
 64 954 336 1117 599 1117 c 0
 747 1117 843 1084 928 1022 c 1
 881 828 l 1
 836 861 728 909 631 909 c 0
 489 909 370 842 342 648 c 1
 849 648 l 1
EndSplineSet
EndChar

StartChar: afii10106
Encoding: 594 1113 151
Width: 1736
VWidth: 0
Flags: W
HStem: 0 201<1064 1413.62> 511 196<1064 1420.25> 890 208<387 781>
VStem: 104 283<0 890> 781 282<201 511 707 890> 1464 253<249.711 465.716>
LayerCount: 2
Back
SplineSet
1496 351 m 4
 1496 422 1444 489 1339 489 c 6
 1109 489 l 5
 1109 201 l 5
 1345 201 l 6
 1439 201 1496 272 1496 351 c 4
1108 1062.9 m 5
 1108 685 l 5
 1359 685 l 6
 1553 685 1749 584 1749 349 c 4
 1749 132 1589 0 1372 0 c 6
 826 0 l 5
 826 855 l 5
 445 855 l 5
 445 0 l 5
 162 0 l 5
 162 1063 l 5
 1108 1062.9 l 5
EndSplineSet
Fore
SplineSet
1063 1098 m 1
 1063 707 l 1
 1319 707 l 2
 1517 707 1717 603 1717 360 c 0
 1717 136 1554 0 1334 0 c 2
 781 0 l 1
 781 890 l 1
 387 890 l 1
 387 0 l 1
 104 0 l 1
 104 1098 l 1
 1063 1098 l 1
1464 362 m 0
 1464 438 1409 511 1301 511 c 2
 1064 511 l 1
 1064 201 l 1
 1308 201 l 2
 1405 201 1464 277 1464 362 c 0
EndSplineSet
EndChar

StartChar: afii10107
Encoding: 595 1114 152
Width: 1709
VWidth: 0
Flags: W
HStem: 0 207<1082 1388.95> 482 212<387 799 1082 1403.19> 1078 20G<104 387 799 1082>
VStem: 104 283<0 482 694 1098> 799 283<207 482 694 1098> 1433 234<250.083 445.387>
LayerCount: 2
Back
SplineSet
144 1063 m 5
 427 1063 l 5
 427 680 l 5
 826 680 l 5
 826 1063 l 5
 1109 1063 l 5
 1109 0 l 5
 826 0 l 5
 826 468 l 5
 427 468 l 5
 427 0 l 5
 144 0 l 5
 144 1063 l 5
EndSplineSet
Fore
SplineSet
1288 687 m 2
 1504 687 1667 598 1667 350 c 2
 1667 349 l 1
 1666 116 1496 0 1284 0 c 2
 799 0 l 1
 799 482 l 1
 387 482 l 1
 387 0 l 1
 104 0 l 1
 104 1098 l 1
 387 1098 l 1
 387 694 l 1
 799 694 l 1
 799 1098 l 1
 1082 1098 l 1
 1082 687 l 1
 1288 687 l 2
1082 207 m 1
 1261 207 l 2
 1368 207 1433 266 1433 355 c 0
 1433 438 1366 492 1261 492 c 2
 1082 492 l 1
 1082 207 l 1
EndSplineSet
EndChar

StartChar: afii10145
Encoding: 520 1039 155
Width: 1487
VWidth: 0
Flags: W
HStem: 0 210<423 638 864 1072> 1425 20G<125 423 1072 1370>
VStem: 125 298<210 1445> 638 226<-327 0> 1072 298<210 1445>
LayerCount: 2
Back
SplineSet
1353 0 m 5
 121 0 l 5
 121 1445 l 5
 419 1445 l 5
 419 210 l 5
 1055 210 l 5
 1055 1445 l 5
 1353 1445 l 5
 1353 0 l 5
EndSplineSet
Fore
SplineSet
864 0 m 1
 864 -327 l 1
 638 -327 l 1
 638 0 l 1
 125 0 l 1
 125 1445 l 1
 423 1445 l 1
 423 210 l 1
 1072 210 l 1
 1072 1445 l 1
 1370 1445 l 1
 1370 0 l 1
 864 0 l 1
EndSplineSet
EndChar

StartChar: afii10193
Encoding: 600 1119 156
Width: 1180
VWidth: 0
Flags: W
PickledData: "(dp1
S'com.typemytype.robofont.layerData'
p2
(dp3
S'back'
p4
(dp5
S'name'
p6
S'afii10193'
p7
sS'lib'
p8
(dp9
sS'unicodes'
p10
(tsS'width'
p11
I1176
sS'contours'
p12
((dp13
S'points'
p14
((dp15
S'segmentType'
p16
S'curve'
p17
sS'x'
F585
sS'smooth'
p18
I00
sS'y'
F96
s(dp19
g16
S'line'
p20
sS'x'
F716
sg18
I00
sS'y'
F96
s(dp21
g16
S'line'
p22
sS'x'
F716
sg18
I00
sS'y'
F-362
s(dp23
g16
S'line'
p24
sS'x'
F477
sg18
I00
sS'y'
F-362
s(dp25
g16
S'line'
p26
sS'x'
F455
sg18
I00
sS'y'
F0
s(dp27
S'y'
F0
sS'x'
F455
sg18
I00
s(dp28
S'y'
F96
sS'x'
F585
sg18
I00
stp29
stp30
sS'components'
p31
(tsS'anchors'
p32
(tsss."
HStem: 0 215<387 469 737 800> 1078 20G<104 387 800 1083>
VStem: 104 283<215 1098> 469 268<-345.975 0> 483 239<-362 -16.0245> 800 283<215 1098>
LayerCount: 2
Fore
SplineSet
469 0 m 1xf4
 104 0 l 1
 104 1098 l 1
 387 1098 l 1
 387 215 l 1
 800 215 l 1
 800 1098 l 1
 1083 1098 l 1
 1083 0 l 1
 737 0 l 1xf4
 722 -362 l 1
 483 -362 l 1xec
 469 0 l 1xf4
EndSplineSet
EndChar

StartChar: ampersand
Encoding: 7 38 159
Width: 1422
VWidth: 0
Flags: W
HStem: -23 203<402.131 775.801> -17 21G<1139.27 1244.66> 1305 178<486.847 720.858>
VStem: 42 249<284.43 568.918> 217 232<1015.01 1267.35> 755 241<1044.74 1271.22>
DStem2: 560 929 379 828 0.679031 -0.73411<-200.352 -48.7595 190.866 685.469 903.412 1101.21>
LayerCount: 2
Fore
SplineSet
379 828 m 1xb4
 302 917 217 1014 217 1145 c 0
 217 1383 405 1483 597 1483 c 0
 781 1483 996 1393 996 1163 c 0
 996 969 827 855 680 780 c 1
 1013 413 l 1
 1072 478 1130 569 1171 645 c 1
 1358 525 l 1
 1308 433 1239 330 1171 255 c 1
 1386 36 l 1
 1159 -17 l 1x6c
 1015 129 l 1
 878 28 723 -23 567 -23 c 0
 316 -23 42 88 42 407 c 0
 42 627 211 737 379 828 c 1xb4
496 692 m 1
 390 630 291 575 291 433 c 0
 291 254 425 180 573 180 c 0xb4
 679 180 793 218 870 282 c 1
 496 692 l 1
605 1305 m 0
 514 1305 449 1261 449 1158 c 0x2c
 449 1066 502 990 560 929 c 1
 651 979 755 1045 755 1164 c 0
 755 1261 692 1305 605 1305 c 0
EndSplineSet
EndChar

StartChar: approxequal
Encoding: 655 8776 161
Width: 1343
VWidth: 0
Flags: W
HStem: 262 178<771.983 980.18> 406 180<356.633 590.521> 639 177<747.199 985.119> 779 177<359.428 585.237>
VStem: 142 168<294.373 362.87 643.368 676> 1039 165<507.86 574.577>
LayerCount: 2
Fore
SplineSet
894 816 m 0x2c
 970 816 1001 868 1029 938 c 1
 1039 971 l 1
 1204 925 l 1
 1198 898 l 2
 1167 762 1076 639 887 639 c 0x2c
 733 639 627 724 524 764 c 0
 499 773 477 779 453 779 c 0
 370 779 337 718 317 633 c 1
 310 583 l 1
 142 649 l 1
 148 676 l 2
 181 824 278 956 460 956 c 0x1c
 656 956 750 816 894 816 c 0x2c
454 586 m 1x4c
 458 586 l 2x4c
 610 586 727 503 818 460 c 0
 847 447 872 440 895 440 c 0x8c
 969 440 1002 503 1033 586 c 1x4c
 1042 627 l 2
 1042 629 1043 633 1043 635 c 2
 1207 570 l 1
 1201 542 l 2
 1168 395 1079 262 889 262 c 0x8c
 737 262 630 352 529 391 c 0
 503 400 479 406 455 406 c 0
 371 406 337 354 316 285 c 2
 308 256 l 1
 143 298 l 1
 151 325 l 1
 187 462 277 577 454 584 c 1
 454 586 l 1x4c
EndSplineSet
EndChar

StartChar: asciicircum
Encoding: 63 94 163
Width: 1153
Flags: W
HStem: 1436 20G<482.837 641.858>
DStem2: 25 535 255 535 0.453012 0.891504<104.193 816.519> 631 1456 564 1177 0.477113 -0.878842<213.23 937.757>
LayerCount: 2
Fore
SplineSet
255 535 m 1
 25 535 l 1
 493 1456 l 1
 631 1456 l 1
 1131 535 l 1
 900 535 l 1
 564 1177 l 1
 255 535 l 1
EndSplineSet
EndChar

StartChar: asciitilde
Encoding: 95 126 164
Width: 1311
Flags: W
HStem: 476 209<729.351 953.261> 605 207<297.672 594.131>
LayerCount: 2
Fore
SplineSet
415 605 m 0x40
 320 605 258 534 218 460 c 1
 133 619 l 1
 187 723 270 812 425 812 c 0x40
 514 812 591 789 674 754 c 0
 743 724 814 689 866 685 c 1
 916 683 949 716 970 748 c 1
 971 756 972 766 973 774 c 1
 1039 762 1114 771 1181 797 c 1
 1177 669 l 1
 1127 563 1036 476 888 476 c 0x80
 786 476 713 507 613 552 c 1
 546.787 583.301 492.512 605 415 605 c 0x40
EndSplineSet
EndChar

StartChar: asterisk
Encoding: 11 42 165
Width: 1103
Flags: W
LayerCount: 2
Fore
SplineSet
431 1500 m 1
 673 1500 l 1
 639 1142 l 1
 983 1269 l 1
 1048 1049 l 1
 702 975 l 1
 944 678 l 1
 727 557 l 1
 550 868 l 1
 382 558 l 1
 161 678 l 1
 402 975 l 1
 57 1050 l 1
 125 1269 l 1
 465 1142 l 1
 431 1500 l 1
EndSplineSet
EndChar

StartChar: at
Encoding: 33 64 166
Width: 1661
VWidth: 0
Flags: W
HStem: -230 149<635.87 1176.05> 122 149<1122.22 1294.9> 139 145<651.267 828.604> 887 123<810.757 1037.07> 1217 152<638.428 1114.4>
VStem: 53 175<313.216 777.13> 417 199<311.208 660.342> 980 139<275.757 355.731> 1445 164<467.955 894.225>
LayerCount: 2
Back
SplineSet
737 324 m 6xbf
 747 324 l 5
 926 334 973 617 1010 829 c 5
 976 834 939 837 903 837 c 4
 737 837 624 660 624 472 c 4
 624 379 660 324 737 324 c 6xbf
945 246 m 5
 886 184 818 139 715 139 c 4xbf
 520 139 413 293 413 481 c 4
 413 767 630 1010 903 1010 c 4
 1016 1010 1110 979 1193 951 c 5
 1217 942 l 5
 1212 916 l 5
 1179 764 1139 606 1113 456 c 4
 1107 419 1104 390 1104 374 c 4
 1104 317 1120 301 1167 301 c 4
 1311 301 1384 496 1384 677 c 4
 1384 1002 1177 1189 856 1189 c 6
 855 1189 l 5
 838 1207 815 1215 788 1215 c 4
 664 1215 460 1049 425 1018 c 4
 424 1018 424 1018 423 1018 c 4
 366 1018 253 654 253 571 c 4
 253 190 492 -51 877 -51 c 4
 1061 -51 1206 6 1311 91 c 6
 1331 107 l 5
 1442 -20 l 5
 1418 -41 l 5
 1289 -156 1104 -230 875 -230 c 4
 633 -230 422 -139 291 -11 c 4
 155 122 56 317 56 571 c 4
 56 815 162 1006 290 1137 c 4
 416 1265 620 1369 857 1369 c 4
 1066 1369 1236 1289 1355 1181 c 4
 1480 1068 1579 900 1579 674 c 4
 1579 435 1465 252 1307 166 c 4
 1255 137 1200 122 1143 122 c 4xdf
 1041 122 981 169 945 246 c 5
EndSplineSet
Fore
SplineSet
875 1217 m 0xdf80
 385 1217 228 774 228 554 c 0
 228 136 541 -81 890 -81 c 0
 1066 -81 1251 -37 1410 87 c 1
 1472 -20 l 1
 1330 -142 1148 -230 893 -230 c 0
 400 -230 53 88 53 571 c 0
 53 1030 406 1369 873 1369 c 0
 1290 1369 1609 1084 1609 674 c 0
 1609 435 1493 252 1332 166 c 0
 1279 137 1219 122 1161 122 c 0xdf80
 1057 122 979 181 980 356 c 1
 930 223 830 139 725 139 c 0xbf80
 526 139 417 293 417 481 c 0
 417 767 638 1010 916 1010 c 0
 1041 1010 1145 975 1236 942 c 1
 1204 780 1157 615 1129 456 c 0
 1123 419 1119 360 1119 344 c 0
 1119 287 1135 271 1184 271 c 0
 1333 271 1445 495 1445 676 c 0
 1445 1002 1204 1217 875 1217 c 0xdf80
722 284 m 0xbf80
 917 284 1000 666 1038 879 c 1
 1003 884 973 887 936 887 c 0
 765 887 616 660 616 472 c 0
 616 379 643 284 722 284 c 0xbf80
EndSplineSet
EndChar

StartChar: b
Encoding: 67 98 168
Width: 1276
Flags: W
PickledData: "(dp1
S'com.typemytype.robofont.layerData'
p2
(dp3
S'back'
p4
(dp5
S'name'
p6
S'b'
sS'lib'
p7
(dp8
sS'unicodes'
p9
(tsS'width'
p10
I1245
sS'contours'
p11
((dp12
S'points'
p13
((dp14
S'segmentType'
p15
S'curve'
p16
sS'x'
F389
sS'smooth'
p17
I00
sS'y'
F1063
s(dp18
g15
S'line'
p19
sS'x'
F389
sg17
I00
sS'y'
F0
s(dp20
g15
S'line'
p21
sS'x'
F106
sg17
I00
sS'y'
F0
s(dp22
g15
S'line'
p23
sS'x'
F106
sg17
I00
sS'y'
F1063
s(dp24
S'y'
F1063
sS'x'
F106
sg17
I00
s(dp25
S'y'
F1063
sS'x'
F389
sg17
I00
stp26
stp27
sS'components'
p28
(tsS'anchors'
p29
(tsss."
HStem: -20 219<555.051 790.054> 1 21G<131 391.118> 911 217<562.446 798.108>
VStem: 131 294<321.948 796.692 961 1527> 908 291<337.336 790.474>
LayerCount: 2
Back
SplineSet
425 1100 m 5
 425 0 l 5
 131 0 l 5
 131 1100 l 5
 425 1100 l 5
EndSplineSet
Fore
SplineSet
755 1128 m 4x78
 1036 1128 1199 893 1199 564 c 0
 1199 215 1020 -20 747 -20 c 0xb8
 581 -20 453.913 74.7385 415 137 c 1
 387 1 l 1
 131 1 l 1
 131 1527 l 1
 425 1536 l 1
 425 1185 l 2
 425 1124 423 1049 419 961 c 1
 466.137 1020.88 561 1128 755 1128 c 4x78
672 911 m 0
 526 911 425 822 423 577 c 1
 423 301 516 199 668 199 c 0
 796 199 908 309 908 561 c 0
 908 815 799 911 672 911 c 0
EndSplineSet
EndChar

StartChar: backslash
Encoding: 61 92 169
Width: 923
Flags: W
HStem: 1441 20G<23 286.205>
DStem2: 278 1461 23 1461 0.380077 -0.924955<0 1547.48>
LayerCount: 2
Fore
SplineSet
23 1461 m 1
 278 1461 l 1
 902 -60 l 1
 648 -60 l 1
 23 1461 l 1
EndSplineSet
EndChar

StartChar: bar
Encoding: 93 124 170
Width: 746
Flags: W
VStem: 262 222<-373 1524>
LayerCount: 2
Fore
SplineSet
262 -373 m 1
 262 1524 l 1
 484 1524 l 1
 484 -373 l 1
 262 -373 l 1
EndSplineSet
EndChar

StartChar: braceleft
Encoding: 92 123 171
Width: 803
Flags: W
HStem: -289 222<582.527 724> 488 237<44 230.504> 1281 221<582.527 724>
VStem: 273 281<-35.969 443.884 768.547 1249.83>
LayerCount: 2
Fore
SplineSet
273 -4 m 2
 273 297 l 2
 273 449 219 488 44 488 c 1
 44 725 l 1
 221 725 273 763 273 911 c 0
 273 1013.33 273 1115.67 273 1218 c 0
 273 1453 424 1502 724 1502 c 1
 724 1281 l 1
 578 1279 554 1243 554 1125 c 2
 554 855 l 1
 552 726 489 653 375 623 c 1
 363 615 349 609 333 604 c 1
 473 580 554 512 554 363 c 2
 554 89 l 2
 554 -29 577 -65 724 -67 c 1
 724 -289 l 1
 424 -289 273 -240 273 -4 c 2
EndSplineSet
EndChar

StartChar: braceright
Encoding: 94 125 172
Width: 803
Flags: W
HStem: -289 222<82 225.869> 488 237<572.498 762> 1281 221<82 223.04>
VStem: 251 281<-35.969 444.2 763.883 1250.6>
LayerCount: 2
Fore
SplineSet
532 297 m 2
 532 -4 l 2
 532 -240 389 -289 82 -289 c 1
 82 -67 l 1
 228 -65 251 -31 251 89 c 2
 251 364 l 2
 251 511 334 580 472 604 c 1
 456 609 442 615 430 623 c 1
 316 653 253 726 251 855 c 1
 251 1125 l 2
 251 1244 229 1279 82 1281 c 1
 82 1502 l 1
 381 1502 532 1459 532 1218 c 2
 532 910 l 2
 532 760 580 725 762 725 c 1
 762 488 l 1
 587 488 532 455 532 297 c 2
EndSplineSet
EndChar

StartChar: bracketleft
Encoding: 60 91 173
Width: 642
Flags: W
HStem: -257 197<411 600> 1319 196<411 600>
VStem: 132 468<-257 -60 1319 1515> 132 279<-60 1319>
LayerCount: 2
Fore
SplineSet
600 -60 m 1xe0
 600 -257 l 1
 132 -257 l 1
 132 1515 l 1
 600 1515 l 1
 600 1319 l 1xe0
 411 1319 l 1
 411 -60 l 1xd0
 600 -60 l 1xe0
EndSplineSet
EndChar

StartChar: bracketright
Encoding: 62 93 174
Width: 642
Flags: W
HStem: -257 197<42 230> 1319 196<42 230>
VStem: 42 468<-257 -60 1319 1515> 230 280<-60 1319>
LayerCount: 2
Fore
SplineSet
42 -257 m 1xe0
 42 -60 l 1xe0
 230 -60 l 1
 230 1319 l 1xd0
 42 1319 l 1
 42 1515 l 1
 510 1515 l 1
 510 -257 l 1
 42 -257 l 1xe0
EndSplineSet
EndChar

StartChar: breve
Encoding: 424 728 175
Width: 695
VWidth: 0
Flags: W
PickledData: "(dp1
S'com.typemytype.robofont.layerData'
p2
(dp3
S'back'
p4
(dp5
S'name'
p6
S'breve'
p7
sS'lib'
p8
(dp9
sS'unicodes'
p10
(tsS'width'
p11
I688
sS'contours'
p12
((dp13
S'points'
p14
((dp15
S'segmentType'
p16
S'line'
p17
sS'x'
F222
sS'smooth'
p18
I00
sS'y'
F1455
s(dp19
g16
S'line'
p20
sS'x'
F222
sg18
I01
sS'y'
F1428
s(dp21
S'y'
F1397
sS'x'
F222
sg18
I00
s(dp22
S'y'
F1374
sS'x'
F260
sg18
I00
s(dp23
g16
S'curve'
p24
sS'x'
F338
sg18
I01
sS'y'
F1374
s(dp25
S'y'
F1374
sS'x'
F416
sg18
I00
s(dp26
S'y'
F1397
sS'x'
F454
sg18
I00
s(dp27
g16
S'curve'
p28
sS'x'
F454
sg18
I01
sS'y'
F1428
s(dp29
g16
S'line'
p30
sS'x'
F454
sg18
I00
sS'y'
F1455
s(dp31
g16
S'line'
p32
sS'x'
F638
sg18
I00
sS'y'
F1455
s(dp33
g16
S'line'
p34
sS'x'
F638
sg18
I01
sS'y'
F1426
s(dp35
S'y'
F1283
sS'x'
F638
sg18
I00
s(dp36
S'y'
F1206
sS'x'
F499
sg18
I00
s(dp37
g16
S'curve'
p38
sS'x'
F338
sg18
I01
sS'y'
F1206
s(dp39
S'y'
F1206
sS'x'
F177
sg18
I00
s(dp40
S'y'
F1284
sS'x'
F38
sg18
I00
s(dp41
g16
S'curve'
p42
sS'x'
F38
sg18
I01
sS'y'
F1426
s(dp43
g16
S'line'
p44
sS'x'
F38
sg18
I00
sS'y'
F1455
stp45
stp46
sS'components'
p47
(tsS'anchors'
p48
((dp49
S'y'
F1059
sS'x'
F338
sg6
S'_top'
p50
stp51
sss."
HStem: 1206 168<230.689 455.311> 1435 20G<39 223 463 647>
VStem: 39 184<1388.33 1455> 463 184<1388.02 1455>
LayerCount: 2
Fore
SplineSet
343 1206 m 0
 160 1206 39 1284 39 1455 c 1
 223 1455 l 1
 223 1397 252 1374 343 1374 c 0
 434 1374 463 1397 463 1455 c 1
 647 1455 l 1
 647 1283 526 1206 343 1206 c 0
EndSplineSet
EndChar

StartChar: brokenbar
Encoding: 102 166 176
Width: 826
Flags: W
VStem: 301 221<-372 350 802 1524>
LayerCount: 2
Fore
SplineSet
301 802 m 1
 301 1524 l 1
 522 1524 l 1
 522 802 l 1
 301 802 l 1
301 -372 m 1
 301 350 l 1
 522 350 l 1
 522 -372 l 1
 301 -372 l 1
EndSplineSet
EndChar

StartChar: bullet
Encoding: 637 8226 177
Width: 1038
VWidth: 0
Flags: W
HStem: 335 685<334.447 707.878>
VStem: 145 752<515.806 839.194>
LayerCount: 2
Fore
SplineSet
897 681 m 0
 897 482 739 335 518 335 c 0
 299 335 145 478 145 674 c 0
 145 871 305 1020 525 1020 c 0
 743 1020 897 877 897 681 c 0
EndSplineSet
EndChar

StartChar: c
Encoding: 68 99 178
Width: 1014
Flags: W
PickledData: "(dp1
S'com.typemytype.robofont.layerData'
p2
(dp3
S'back'
p4
(dp5
S'name'
p6
S'c'
sS'lib'
p7
(dp8
sS'unicodes'
p9
(tsS'width'
p10
I945
sS'contours'
p11
(tsS'components'
p12
(tsS'anchors'
p13
(tsss."
HStem: -20 219<492.833 839.025> 910 218<489.498 826.647>
VStem: 77 291<332.151 773.083>
LayerCount: 2
Fore
SplineSet
616 -20 m 0
 282 -20 77 171 77 562 c 0
 77 943 311 1128 619 1128 c 0
 757 1128 863 1099 957 1042 c 1
 889 837 l 1
 818 873 725 910 635 910 c 0
 474 910 368 801 368 558 c 0
 368 314 468 199 638 199 c 0
 747 199 839 234 919 289 c 1
 946 68 l 1
 849 6 763 -20 616 -20 c 0
EndSplineSet
EndChar

StartChar: caron
Encoding: 423 711 180
Width: 763
VWidth: 0
Flags: W
HStem: 1174 341
LayerCount: 2
Fore
SplineSet
17 1515 m 1
 238 1515 l 1
 398 1357 l 1
 563 1515 l 1
 790 1515 l 1
 503 1174 l 1
 304 1174 l 1
 17 1515 l 1
EndSplineSet
EndChar

StartChar: cedilla
Encoding: 120 184 185
Width: 586
VWidth: 0
Flags: W
HStem: -339 366<171 272>
VStem: 44 290
LayerCount: 2
Fore
SplineSet
272 -339 m 1
 44 -339 l 1
 171 27 l 1
 334 27 l 1
 272 -339 l 1
EndSplineSet
EndChar

StartChar: cent
Encoding: 98 162 186
Width: 1075
Flags: W
PickledData: "(dp1
S'com.typemytype.robofont.layerData'
p2
(dp3
S'back'
p4
(dp5
S'name'
p6
S'cent'
p7
sS'lib'
p8
(dp9
sS'unicodes'
p10
(tsS'width'
p11
I966
sS'contours'
p12
(tsS'components'
p13
(tsS'anchors'
p14
(tsss."
HStem: 15 205<490.539 582 684 840.304> 931 206<684 840.257>
VStem: 86 272<365.784 798.196> 582 102<-270 18.791 226 927 1140 1371>
LayerCount: 2
Fore
SplineSet
582 1371 m 1
 684 1371 l 1
 684 1137 l 1
 795 1127 874 1098 946 1046 c 1
 900 854 l 1
 860 882 771 922 684 931 c 1
 684 220 l 1
 774 227 850 263 904 301 c 1
 959 108 l 1
 876 54 795 22 684 15 c 1
 684 -270 l 1
 582 -270 l 1
 582 15 l 1
 294 36 86 227 86 601 c 0
 86 963 323 1127 582 1140 c 1
 582 1371 l 1
582 927 m 1
 454 903 358 809 358 591 c 0
 358 364 445 254 582 226 c 1
 582 927 l 1
EndSplineSet
EndChar

StartChar: circumflex
Encoding: 422 710 187
Width: 766
VWidth: 0
Flags: W
HStem: 1133 382
LayerCount: 2
Fore
SplineSet
26 1133 m 1
 297 1515 l 1
 504 1515 l 1
 776 1133 l 1
 575 1133 l 1
 397 1334 l 1
 221 1133 l 1
 26 1133 l 1
EndSplineSet
EndChar

StartChar: colon
Encoding: 27 58 188
Width: 448
VWidth: 0
Flags: W
HStem: 0 276<85 369> 824 276<85 369>
VStem: 85 284<0 276 824 1100>
LayerCount: 2
Fore
SplineSet
85 824 m 1
 85 1100 l 1
 369 1100 l 1
 369 824 l 1
 85 824 l 1
85 0 m 1
 85 276 l 1
 369 276 l 1
 369 0 l 1
 85 0 l 1
EndSplineSet
EndChar

StartChar: comma
Encoding: 13 44 189
Width: 509
Flags: W
HStem: -285 516<155.543 265.448>
VStem: 49 368
LayerCount: 2
Fore
SplineSet
417 231 m 1
 412 181 l 1
 370 38 317 -117 250 -285 c 1
 49 -285 l 1
 90 -108 126 64 157 231 c 1
 417 231 l 1
EndSplineSet
EndChar

StartChar: commaaccent
Encoding: -1 806 190
Width: 657
VWidth: 0
Flags: W
LayerCount: 2
Fore
SplineSet
282 -653 m 1
 97 -653 l 1
 213 -130 l 1
 457 -130 l 1
 282 -653 l 1
277 0 m 0
EndSplineSet
EndChar

StartChar: copyright
Encoding: 105 169 191
Width: 1710
VWidth: 0
Flags: W
HStem: -21 103<621.095 1094.14> 249 130<676.183 1048.52> 1092 125<684.513 1047.88> 1374 104<621.095 1094.14>
VStem: 82 117<504.727 951.134> 381 148<535.725 919.555> 1517 117<504.727 951.134>
LayerCount: 2
Fore
SplineSet
1634 728 m 0
 1634 310 1284 -21 858 -21 c 0
 429 -21 82 310 82 728 c 0
 82 1145 429 1478 858 1478 c 0
 1284 1478 1634 1145 1634 728 c 0
858 82 m 0
 1224 82 1517 371 1517 728 c 0
 1517 1085 1224 1374 858 1374 c 0
 491 1374 199 1085 199 728 c 0
 199 371 491 82 858 82 c 0
1095 446 m 1
 1141 330 l 1
 1058 275 959 249 838 249 c 0
 576 249 381 450 381 729 c 0
 381 998 566 1217 834 1217 c 0
 955 1217 1058 1192 1141 1137 c 1
 1095 1025 l 1
 1013 1071 914 1092 841 1092 c 0
 642 1092 529 921 529 727 c 0
 529 541 629 379 843 379 c 0
 916 379 1013 400 1095 446 c 1
EndSplineSet
EndChar

StartChar: currency
Encoding: 100 164 192
Width: 1166
Flags: W
HStem: 317 148<435.315 733.145> 999 149<435.253 731.366>
VStem: 162 148<587.82 875.744> 857 148<587.673 876.542>
DStem2: 151 1237 50 1138 0.728598 -0.684942<0 256.948 1065.56 1322.8> 51 327 151 229 0.728244 0.685318<5.66328 260.508 1069.96 1327.85>
LayerCount: 2
Fore
SplineSet
162 732 m 0
 162 817 188 896 235 965 c 1
 50 1138 l 1
 151 1237 l 1
 334 1065 l 1
 404 1118 490 1148 583 1148 c 0
 677 1148 762 1117 833 1063 c 1
 1018 1237 l 1
 1116 1137 l 1
 932 965 l 1
 978 898 1005 818 1005 732 c 0
 1005 646 979 567 933 499 c 1
 1114 329 l 1
 1018 228 l 1
 833 400 l 1
 761 347 676 317 583 317 c 0
 486 317 400 347 332 399 c 1
 151 229 l 1
 51 327 l 1
 235 499 l 1
 188 567 162 647 162 732 c 0
310 732 m 0
 310 585 432 465 583 465 c 0
 735 465 857 585 857 732 c 0
 857 879 734 999 583 999 c 0
 433 999 310 878 310 732 c 0
EndSplineSet
EndChar

StartChar: d
Encoding: 69 100 193
Width: 1275
Flags: W
PickledData: "(dp1
S'com.typemytype.robofont.layerData'
p2
(dp3
S'back'
p4
(dp5
S'name'
p6
S'd'
sS'lib'
p7
(dp8
sS'unicodes'
p9
(tsS'width'
p10
I1240
sS'contours'
p11
((dp12
S'points'
p13
((dp14
S'segmentType'
p15
S'curve'
p16
sS'x'
F1139
sS'smooth'
p17
I00
sS'y'
F1063
s(dp18
g15
S'line'
p19
sS'x'
F1139
sg17
I00
sS'y'
F0
s(dp20
g15
S'line'
p21
sS'x'
F856
sg17
I00
sS'y'
F0
s(dp22
g15
S'line'
p23
sS'x'
F856
sg17
I00
sS'y'
F1063
s(dp24
S'y'
F1063
sS'x'
F856
sg17
I00
s(dp25
S'y'
F1063
sS'x'
F1139
sg17
I00
stp26
stp27
sS'components'
p28
(tsS'anchors'
p29
(tsss."
HStem: -20 217<482.762 743.193> 0 21G<884.646 1145> 909 219<480.093 743.008>
VStem: 77 290<334.16 779.44> 850 295<294.829 809.456 968.653 1527>
LayerCount: 2
Back
SplineSet
1145 1100 m 5
 1145 0 l 5
 851 0 l 5
 851 1100 l 5
 1145 1100 l 5
EndSplineSet
Fore
SplineSet
537 -20 m 0xb8
 248 -20 77 216 77 561 c 0
 77 898 245 1128 537 1128 c 4
 761 1128 832.158 1017.9 862 965 c 1
 854 1043 850 1117 850 1185 c 2
 850 1527 l 1
 1145 1536 l 1
 1145 0 l 1
 889 0 l 1x78
 857 147 l 1
 820.626 84.6441 765 -20 537 -20 c 0xb8
615 197 m 0xb8
 760 197 860 286 863 539 c 1
 863 813 767 909 612 909 c 0
 480 909 367 813 367 554 c 0
 367 302 478 197 615 197 c 0xb8
EndSplineSet
EndChar

StartChar: dagger
Encoding: 635 8224 194
Width: 1013
VWidth: 0
Flags: W
HStem: 944 192<66 389 610 952> 1441 20G<389 610>
VStem: 389 207<113 944 1136 1461>
LayerCount: 2
Fore
SplineSet
389 113 m 1
 389 944 l 1
 66 944 l 1
 66 1136 l 1
 389 1136 l 1
 389 1461 l 1
 610 1461 l 1
 610 1136 l 1
 952 1136 l 1
 952 944 l 1
 596 944 l 1
 596 113 l 1
 389 113 l 1
EndSplineSet
EndChar

StartChar: daggerdbl
Encoding: 636 8225 195
Width: 1011
VWidth: 0
Flags: W
HStem: 333 171<132 399 623 886> 927 171<134 398 622 888> 1432 20G<398 622>
VStem: 399 224<-73 333 504 927 1098 1452>
LayerCount: 2
Fore
SplineSet
399 504 m 1
 398 927 l 1
 134 927 l 1
 134 1098 l 1
 398 1098 l 1
 398 1452 l 1
 622 1452 l 1
 622 1098 l 1
 888 1098 l 1
 888 927 l 1
 622 927 l 1
 623 504 l 1
 886 504 l 1
 886 333 l 1
 623 333 l 1
 623 -73 l 1
 399 -73 l 1
 399 333 l 1
 132 333 l 1
 132 504 l 1
 399 504 l 1
EndSplineSet
EndChar

StartChar: degree
Encoding: 112 176 197
Width: 851
VWidth: 0
Flags: W
HStem: 864 156<317.65 536.941> 1277 156<319.964 535.148>
VStem: 111 171<1054.37 1236.36> 573 171<1054.37 1236.36>
LayerCount: 2
Fore
SplineSet
428 864 m 0
 215 864 111 1010 111 1154 c 0
 111 1300 218 1433 428 1433 c 0
 635 1433 744 1300 744 1154 c 0
 744 1010 638 864 428 864 c 0
428 1277 m 0
 352 1277 282 1217 282 1151 c 0
 282 1086 329 1020 428 1020 c 0
 524 1020 573 1086 573 1151 c 0
 573 1217 504 1277 428 1277 c 0
EndSplineSet
EndChar

StartChar: dieresis
Encoding: 104 168 198
Width: 773
VWidth: 0
Flags: W
HStem: 1230 268<65 273 496 705>
VStem: 65 208<1230 1498> 496 209<1230 1498>
LayerCount: 2
Fore
SplineSet
705 1230 m 1
 496 1230 l 1
 496 1498 l 1
 705 1498 l 1
 705 1230 l 1
273 1230 m 1
 65 1230 l 1
 65 1498 l 1
 273 1498 l 1
 273 1230 l 1
EndSplineSet
EndChar

StartChar: divide
Encoding: 183 247 199
Width: 1537
VWidth: 0
Flags: W
HStem: 21 270<623 926> 478 199<205 1333> 853 270<623 926>
VStem: 623 303<21 291 853 1123>
LayerCount: 2
Fore
SplineSet
1333 478 m 1
 205 478 l 1
 205 677 l 1
 1333 677 l 1
 1333 478 l 1
926 1123 m 1
 926 853 l 1
 623 853 l 1
 623 1123 l 1
 926 1123 l 1
926 291 m 1
 926 21 l 1
 623 21 l 1
 623 291 l 1
 926 291 l 1
EndSplineSet
EndChar

StartChar: dollar
Encoding: 5 36 200
Width: 1178
Flags: W
HStem: 31 230<295.349 544 663 762.754> 1121 21G<946.5 1001.83> 1202 237<423.585 544 663 905.398>
VStem: 82 300<972.26 1160.54> 544 119<-158 31 267 580 912 1202 1441 1596> 828 299<317.447 512.467>
LayerCount: 2
Fore
SplineSet
1127 436 m 0
 1127 194 941 58 663 34 c 1
 663 -158 l 1
 544 -158 l 1
 544 31 l 1
 355 34 203 68 77 136 c 1
 117 376 l 1
 221 318 403 267 544 261 c 1
 544 624 l 1
 449 657 l 1
 223 738 82 844 82 1058 c 0
 82 1288 274 1420 544 1439 c 1
 544 1596 l 1
 663 1596 l 1
 663 1441 l 1
 826 1434 965 1403 1079 1338 c 1
 994 1121 l 1
 899 1169 789 1196 663 1204 c 1
 663 866 l 1
 943 759 1127 684 1127 436 c 0
828 411 m 0
 828 499 763 540 663 580 c 1
 663 267 l 1
 768 283 828 329 828 411 c 0
382 1072 m 0
 382 979 445 948 544 912 c 1
 544 1202 l 1
 442 1191 382 1151 382 1072 c 0
EndSplineSet
EndChar

StartChar: dotaccent
Encoding: 425 729 201
Width: 582
VWidth: 0
Flags: W
HStem: 1232 223<169 381>
VStem: 169 212<1232 1455>
LayerCount: 2
Fore
SplineSet
169 1455 m 1
 381 1455 l 1
 381 1232 l 1
 169 1232 l 1
 169 1455 l 1
EndSplineSet
EndChar

StartChar: uni0307
Encoding: 430 775 202
Width: 549
VWidth: 0
Flags: W
HStem: 1196 223<169 381>
VStem: 169 212<1196 1419>
LayerCount: 2
Fore
SplineSet
169 1419 m 1
 381 1419 l 1
 381 1196 l 1
 169 1196 l 1
 169 1419 l 1
EndSplineSet
EndChar

StartChar: dotlessi
Encoding: 241 305 203
Width: 587
VWidth: 0
Flags: W
PickledData: "(dp1
S'com.typemytype.robofont.layerData'
p2
(dp3
S'back'
p4
(dp5
S'name'
p6
S'dotlessi'
p7
sS'lib'
p8
(dp9
sS'unicodes'
p10
(tsS'width'
p11
I587
sS'contours'
p12
(tsS'components'
p13
(tsS'anchors'
p14
(tsss."
HStem: 0 21G<127 410> 1078 20G<127 410>
VStem: 127 283<0 1098>
LayerCount: 2
Fore
SplineSet
410 1098 m 1
 410 0 l 1
 127 0 l 1
 127 1098 l 1
 410 1098 l 1
EndSplineSet
EndChar

StartChar: uni0237
Encoding: 419 567 204
Width: 554
VWidth: 0
Flags: W
HStem: -318 213<-32 137.52>
VStem: 177 259<-73.2795 1086>
LayerCount: 2
Fore
SplineSet
436 1086 m 1
 436 177 l 2
 436 -153 358 -318 4 -318 c 2
 -32 -318 l 1
 -32 -105 l 1
 -2 -105 l 2
 156 -105 177 -57 177 113 c 2
 177 1086 l 1
 436 1086 l 1
EndSplineSet
EndChar

StartChar: e
Encoding: 70 101 206
Width: 1167
Flags: W
PickledData: "(dp1
S'com.typemytype.robofont.layerData'
p2
(dp3
S'back'
p4
(dp5
S'name'
p6
S'e'
sS'lib'
p7
(dp8
sS'unicodes'
p9
(tsS'width'
p10
I1110
sS'contours'
p11
(tsS'components'
p12
(tsS'anchors'
p13
(tsss."
HStem: -20 210<492.734 903.003> 488 178<376 824> 924 204<472.721 738.18>
VStem: 77 294<327.084 488 666 805.225> 824 272<666 840.291>
LayerCount: 2
Fore
SplineSet
608 924 m 0
 496 924 389 854 376 666 c 1
 824 666 l 1
 823 833 743 924 608 924 c 0
652 -20 m 0
 286 -20 77 196 77 555 c 0
 77 905 274 1128 606 1128 c 4
 928 1128 1096 912 1096 607 c 0
 1096 569 1095 527 1095 488 c 1
 371 488 l 1
 377 298 483 190 664 190 c 0
 799 190 911 228 1009 284 c 1
 1049 82 l 1
 948 19 831 -20 652 -20 c 0
EndSplineSet
EndChar

StartChar: eight
Encoding: 25 56 214
Width: 1140
VWidth: 0
Flags: W
HStem: -20 192<404.43 741.085> 1289 189<411.452 733.559>
VStem: 51 267<251.814 537.522> 78 247<951.157 1209.87> 819 248<950.303 1209.71> 826 267<251.598 536.784>
LayerCount: 2
Fore
SplineSet
573 -20 m 0xc4
 288 -20 51 121 51 390 c 0xe4
 51 579 154 690 292 760 c 1
 169 826 78 926 78 1098 c 0
 78 1354 302 1478 572 1478 c 0
 844 1478 1067 1353 1067 1098 c 0xd8
 1067 929 982 827 868 760 c 1
 1003 687 1093 574 1093 389 c 0
 1093 119 856 -20 573 -20 c 0xc4
573 671 m 1
 426 633 318 543 318 391 c 0
 318 250 411 172 573 172 c 0
 737 172 826 251 826 393 c 0
 826 545 712 634 573 671 c 1
573 1289 m 0
 430 1289 325 1211 325 1096 c 0
 325 951 426 862 573 829 c 1
 725 864 819 953 819 1096 c 0xd8
 819 1211 716 1289 573 1289 c 0
EndSplineSet
EndChar

StartChar: ellipsis
Encoding: 638 8230 215
Width: 1602
VWidth: 0
Flags: W
HStem: -61 270<152 418 665 947 1193 1459>
VStem: 152 266<-61 209> 665 282<-61 209> 1193 266<-61 209>
LayerCount: 2
Fore
SplineSet
152 209 m 1
 418 209 l 1
 418 -61 l 1
 152 -61 l 1
 152 209 l 1
665 209 m 1
 947 209 l 1
 947 -61 l 1
 665 -61 l 1
 665 209 l 1
1193 209 m 1
 1459 209 l 1
 1459 -61 l 1
 1193 -61 l 1
 1193 209 l 1
EndSplineSet
EndChar

StartChar: emdash
Encoding: 628 8212 217
Width: 2059
VWidth: 0
Flags: W
HStem: 439 197<-7 2056>
LayerCount: 2
Fore
SplineSet
2056 636 m 1
 2056 439 l 1
 -7 439 l 1
 -7 636 l 1
 2056 636 l 1
EndSplineSet
EndChar

StartChar: endash
Encoding: 627 8211 218
Width: 1255
VWidth: 0
Flags: W
HStem: 439 197<72 1188>
LayerCount: 2
Fore
SplineSet
1188 636 m 1
 1188 439 l 1
 72 439 l 1
 72 636 l 1
 1188 636 l 1
EndSplineSet
EndChar

StartChar: equal
Encoding: 30 61 220
Width: 1193
Flags: W
HStem: 350 208<80 1116> 739 209<80 1115>
LayerCount: 2
Fore
SplineSet
1115 739 m 1
 80 739 l 1
 80 948 l 1
 1115 948 l 1
 1115 739 l 1
1116 350 m 1
 80 350 l 1
 80 558 l 1
 1116 558 l 1
 1116 350 l 1
EndSplineSet
EndChar

StartChar: eth
Encoding: 176 240 221
Width: 1233
VWidth: 0
Flags: W
PickledData: "(dp1
S'com.typemytype.robofont.layerData'
p2
(dp3
S'back'
p4
(dp5
S'name'
p6
S'eth'
p7
sS'lib'
p8
(dp9
sS'unicodes'
p10
(tsS'width'
p11
I1215
sS'contours'
p12
(tsS'components'
p13
(tsS'anchors'
p14
(tsss."
HStem: -19 218<464.043 808.98> 754 161<458.238 710.08> 1458 20G<204 543.692 853.811 911.514>
VStem: 83 258<319.078 638.396> 931 247<313.251 635.303>
DStem2: 226 1179 292 997 0.928005 0.372567<0 185.141 510.417 726.196>
LayerCount: 2
Fore
SplineSet
634 754 m 0
 445 754 341 650 341 475 c 0
 341 307 458 199 640 199 c 0
 823 199 931 304 931 472 c 0
 931 646 821 754 634 754 c 0
579 915 m 0
 615 915 712 899 712 899 c 1
 534 1094 l 1
 292 997 l 1
 226 1179 l 1
 397 1250 l 1
 204 1478 l 1
 527 1478 l 1
 638 1345 l 1
 904 1451 l 1
 972 1270 l 1
 772 1189 l 1
 881 1068 985 954 1071 817 c 0
 1132 721 1176 593 1178 446 c 1
 1178 144 962 -19 633 -19 c 0
 311 -19 83 167 83 460 c 0
 83 735 277 915 579 915 c 0
EndSplineSet
EndChar

StartChar: exclam
Encoding: 2 33 222
Width: 399
VWidth: 0
Flags: W
HStem: -20 321<92.6583 307.188> 1425 20G<79 335>
VStem: 39 321<32.0179 247.342> 79 256<1051.89 1445>
LayerCount: 2
Fore
SplineSet
39 139 m 0xe0
 39 227 113 301 201 301 c 0
 287 301 360 227 360 139 c 0
 360 51 287 -20 201 -20 c 0
 113 -20 39 51 39 139 c 0xe0
335 1445 m 1xd0
 335 1198 l 1
 269 454 l 1
 152 454 l 1
 79 1198 l 1
 79 1445 l 1
 335 1445 l 1xd0
EndSplineSet
EndChar

StartChar: exclamdown
Encoding: 97 161 223
Width: 399
VWidth: 0
Flags: W
HStem: -20 21G<79 335> 1124 321<92.6583 307.188>
VStem: 39 321<1177.66 1392.98> 79 256<-20 373.109>
LayerCount: 2
Fore
SplineSet
39 1286 m 0xe0
 39 1374 113 1445 201 1445 c 0
 287 1445 360 1374 360 1286 c 0
 360 1198 287 1124 201 1124 c 0
 113 1124 39 1198 39 1286 c 0xe0
335 -20 m 1xd0
 79 -20 l 1
 79 227 l 1
 152 971 l 1
 269 971 l 1
 335 227 l 1
 335 -20 l 1xd0
EndSplineSet
EndChar

StartChar: f
Encoding: 71 102 224
Width: 760
Flags: W
PickledData: "(dp1
S'com.typemytype.robofont.layerData'
p2
(dp3
S'back'
p4
(dp5
S'name'
p6
S'f'
sS'lib'
p7
(dp8
sS'unicodes'
p9
(tsS'width'
p10
I695
sS'contours'
p11
((dp12
S'points'
p13
((dp14
S'segmentType'
p15
S'curve'
p16
sS'x'
F461
sS'smooth'
p17
I00
sS'y'
F1063
s(dp18
g15
S'line'
p19
sS'x'
F461
sg17
I00
sS'y'
F0
s(dp20
g15
S'line'
p21
sS'x'
F178
sg17
I00
sS'y'
F0
s(dp22
g15
S'line'
p23
sS'x'
F178
sg17
I00
sS'y'
F1063
s(dp24
S'y'
F1063
sS'x'
F178
sg17
I00
s(dp25
S'y'
F1063
sS'x'
F461
sg17
I00
stp26
stp27
sS'components'
p28
(tsS'anchors'
p29
(tsss."
HStem: 0 21G<200 494> 909 191<494 749> 909 158<27 87.4909> 1316 217<520.858 768.784>
VStem: 200 294<0 909 1108 1296.52>
LayerCount: 2
Back
SplineSet
494 1100 m 5
 494 0 l 5
 200 0 l 5
 200 1100 l 5
 494 1100 l 5
EndSplineSet
Fore
SplineSet
749 1100 m 5xd8
 749 909 l 1
 494 909 l 1xd8
 494 0 l 1
 200 0 l 1
 200 909 l 1
 27 909 l 1
 27 1067 l 1xb8
 200 1108 l 1
 200 1164 l 2
 200 1404 271 1533 533 1552 c 1
 617 1556 710 1548 794 1533 c 1
 767 1316 l 1
 699 1325 631 1332 585 1322 c 1
 518 1311 494 1260 494 1182 c 2
 494 1100 l 5
 749 1100 l 5xd8
EndSplineSet
EndChar

StartChar: uniFB01
Encoding: 661 64257 225
Width: 1215
VWidth: 0
Flags: W
PickledData: "(dp1
S'com.typemytype.robofont.layerData'
p2
(dp3
S'back'
p4
(dp5
S'name'
p6
S'fi'
p7
sS'lib'
p8
(dp9
sS'unicodes'
p10
(tsS'width'
p11
I1199
sS'contours'
p12
(tsS'components'
p13
(tsS'anchors'
p14
(tsss."
HStem: 0 21G<184 467 816 1099> 929 169<7 184 467 816> 1246 232<816 1100> 1336 210<494.037 656>
VStem: 184 283<0 929 1098 1314.23> 816 283<0 929 1246 1478>
LayerCount: 2
Fore
SplineSet
184 0 m 1xdc
 184 929 l 1
 7 929 l 1
 7 1098 l 1
 184 1098 l 1
 184 1129 l 2
 184 1391 218 1546 590 1546 c 2
 656 1546 l 1
 678 1336 l 1
 616 1336 l 2
 486 1336 467 1290 467 1176 c 2
 467 1098 l 1
 1099 1098 l 1
 1099 0 l 1
 816 0 l 1
 816 929 l 1
 467 929 l 1
 467 0 l 1
 184 0 l 1xdc
816 1478 m 1xec
 1100 1478 l 1
 1100 1246 l 1
 816 1246 l 1
 816 1478 l 1xec
EndSplineSet
EndChar

StartChar: five
Encoding: 22 53 226
Width: 1125
VWidth: 0
Flags: W
HStem: -20 226<320.761 669.185> 720 218<444.919 681.946> 1225 220<456 985>
VStem: 771 283<309.566 626.273>
LayerCount: 2
Fore
SplineSet
1000 1445 m 1
 985 1225 l 1
 456 1225 l 1
 443 900 l 1
 499 926 555 938 607 938 c 0
 866 938 1054 750 1054 465 c 0
 1054 178 878 -20 548 -20 c 0
 315 -20 99 121 99 121 c 1
 184 324 l 1
 184 324 341 206 510 206 c 0
 695 206 771 321 771 469 c 0
 771 625 676 720 560 720 c 0
 490 720 412 685 343 609 c 1
 157 648 l 1
 194 1445 l 1
 1000 1445 l 1
EndSplineSet
EndChar

StartChar: uniFB02
Encoding: 662 64258 227
Width: 1448
VWidth: 0
Flags: W
PickledData: "(dp1
S'com.typemytype.robofont.layerData'
p2
(dp3
S'back'
p4
(dp5
S'name'
p6
S'fl'
p7
sS'lib'
p8
(dp9
sS'unicodes'
p10
(tsS'width'
p11
I1421
sS'contours'
p12
((dp13
S'points'
p14
((dp15
S'segmentType'
p16
S'curve'
p17
sS'x'
F1256
sS'smooth'
p18
I01
sS'y'
F-13
s(dp19
S'y'
F-13
sS'x'
F1349
sg18
I00
s(dp20
S'y'
F1
sS'x'
F1404
sg18
I00
s(dp21
g16
S'curve'
p22
sS'x'
F1404
sg18
I00
sS'y'
F1
s(dp23
g16
S'line'
p24
sS'x'
F1392
sg18
I00
sS'y'
F202
s(dp25
S'y'
F202
sS'x'
F1392
sg18
I00
s(dp26
S'y'
F198
sS'x'
F1384
sg18
I00
s(dp27
g16
S'curve'
p28
sS'x'
F1333
sg18
I01
sS'y'
F198
s(dp29
S'y'
F198
sS'x'
F1182
sg18
I00
s(dp30
S'y'
F253
sS'x'
F1166
sg18
I00
s(dp31
g16
S'curve'
p32
sS'x'
F1166
sg18
I01
sS'y'
F415
s(dp33
g16
S'line'
p34
sS'x'
F1166
sg18
I00
sS'y'
F1498
s(dp35
S'y'
F1498
sS'x'
F1166
sg18
I00
s(dp36
S'y'
F1549
sS'x'
F727
sg18
I00
s(dp37
g16
S'curve'
p38
sS'x'
F562
sg18
I01
sS'y'
F1549
s(dp39
S'y'
F1549
sS'x'
F249
sg18
I00
s(dp40
S'y'
F1358
sS'x'
F178
sg18
I00
s(dp41
g16
S'curve'
p42
sS'x'
F178
sg18
I01
sS'y'
F1096
s(dp43
g16
S'line'
p44
sS'x'
F178
sg18
I00
sS'y'
F1063
s(dp45
g16
S'line'
p46
sS'x'
F7
sg18
I00
sS'y'
F1063
s(dp47
g16
S'line'
p48
sS'x'
F7
sg18
I00
sS'y'
F894
s(dp49
g16
S'line'
p50
sS'x'
F178
sg18
I00
sS'y'
F894
s(dp51
g16
S'line'
p52
sS'x'
F178
sg18
I00
sS'y'
F0
s(dp53
g16
S'line'
p54
sS'x'
F461
sg18
I00
sS'y'
F0
s(dp55
g16
S'line'
p56
sS'x'
F461
sg18
I00
sS'y'
F894
s(dp57
g16
S'line'
p58
sS'x'
F687
sg18
I00
sS'y'
F894
s(dp59
g16
S'line'
p60
sS'x'
F687
sg18
I00
sS'y'
F1063
s(dp61
g16
S'line'
p62
sS'x'
F461
sg18
I00
sS'y'
F1063
s(dp63
g16
S'line'
p64
sS'x'
F461
sg18
I01
sS'y'
F1152
s(dp65
S'y'
F1270
sS'x'
F461
sg18
I00
s(dp66
S'y'
F1339
sS'x'
F484
sg18
I00
s(dp67
g16
S'curve'
p68
sS'x'
F616
sg18
I01
sS'y'
F1339
s(dp69
S'y'
F1339
sS'x'
F631
sg18
I00
s(dp70
S'y'
F1329
sS'x'
F808
sg18
I00
s(dp71
g16
S'curve'
p72
sS'x'
F883
sg18
I00
sS'y'
F1314
s(dp73
g16
S'line'
p74
sS'x'
F883
sg18
I01
sS'y'
F455
s(dp75
S'y'
F182
sS'x'
F883
sg18
I00
s(dp76
S'y'
F-13
sS'x'
F935
sg18
I00
stp77
stp78
sS'components'
p79
(tsS'anchors'
p80
(tsss."
HStem: -13 211<1219.4 1419.68> 929 169<7 184 467 700> 1341 208<501.928 898.543>
VStem: 184 283<0 929 1098 1303.79> 903 283<236.332 1329.76>
LayerCount: 2
Fore
SplineSet
1432 1 m 1
 1432 1 1375 -13 1281 -13 c 0
 955 -13 903 183 903 456 c 2
 903 1324 l 1
 903 1324 793 1341 681 1341 c 0
 502 1341 467 1292 467 1176 c 2
 467 1098 l 1
 700 1098 l 1
 700 929 l 1
 467 929 l 1
 467 0 l 1
 184 0 l 1
 184 929 l 1
 7 929 l 1
 7 1098 l 1
 184 1098 l 1
 184 1149 l 2
 184 1413 302 1549 628 1549 c 0
 858 1549 1186 1498 1186 1498 c 1
 1186 415 l 2
 1186 253 1202 198 1358 198 c 0
 1411 198 1419 202 1419 202 c 1
 1432 1 l 1
EndSplineSet
EndChar

StartChar: florin
Encoding: 319 402 228
Width: 1080
VWidth: 0
Flags: W
HStem: -329 199<51.0469 238.117> 759 193<305 447 727 909> 1236 205<793.156 1035.05>
DStem2: 294 40 562 127 0.195345 0.980734<-160.749 736.997 979.014 1262.98>
LayerCount: 2
Fore
SplineSet
502 1071 m 2
 531 1267 623 1441 874 1441 c 0
 928 1441 979 1432 1023 1421 c 2
 1046 1415 l 1
 1033 1200 l 1
 993 1216 l 2
 962 1228 934 1236 898 1236 c 0
 802 1236 775 1194 757 1106 c 2
 727 952 l 1
 923 952 l 1
 909 759 l 1
 691 759 l 1
 562 127 l 2
 521 -73 462 -329 170 -329 c 0
 137 -329 102 -322 60 -311 c 2
 35 -305 l 1
 54 -102 l 1
 92 -116 l 2
 118 -125 138 -130 157 -130 c 0
 241 -130 270 -49 294 40 c 0
 356 268 397 520 447 761 c 1
 290 761 l 1
 305 952 l 1
 484 952 l 1
 502 1071 l 2
EndSplineSet
EndChar

StartChar: four
Encoding: 21 52 229
Width: 1267
VWidth: 0
Flags: W
HStem: 0 21G<742 1040> 309 215<374 742 1040 1206> 1425 20G<645.945 1040>
VStem: 743 297<0 309 525 1179>
LayerCount: 2
Fore
SplineSet
1206 309 m 1
 1040 309 l 1
 1040 0 l 1
 742 0 l 1
 742 309 l 1
 86 309 l 1
 86 496 l 1
 658 1445 l 1
 1040 1445 l 1
 1040 525 l 1
 1219 525 l 1
 1206 309 l 1
743 1179 m 1
 374 524 l 1
 743 524 l 1
 743 1179 l 1
EndSplineSet
EndChar

StartChar: uni2074
Encoding: 643 8308 230
Width: 904
VWidth: 0
Flags: W
HStem: 778 167<197 328 506 611>
VStem: 328 178<615 778 945 1150>
DStem2: -29 904 197 945 0.53847 0.842644<156.243 394.779>
LayerCount: 2
Fore
SplineSet
505 778 m 1
 504 615 l 1
 330 615 l 1
 330 778 l 1
 -29 778 l 1
 -29 904 l 1
 92 1078 211 1250 332 1422 c 1
 506 1422 l 1
 506 945 l 1
 611 945 l 1
 626 778 l 1
 505 778 l 1
328 1150 m 1
 197 945 l 1
 328 945 l 1
 328 1150 l 1
EndSplineSet
EndChar

StartChar: fraction
Encoding: 642 8260 231
Width: 1193
VWidth: 0
Flags: W
HStem: 0 21G<34 267.531> 1426 20G<929.441 1161>
VStem: 34 221<0 221> 942 219<1227 1446>
DStem2: 34 0 255 0 0.531788 0.846878<117.525 1707.45>
LayerCount: 2
Fore
SplineSet
942 1446 m 1
 1161 1446 l 1
 255 0 l 1
 34 0 l 1
 942 1446 l 1
EndSplineSet
EndChar

StartChar: g
Encoding: 72 103 232
Width: 1294
Flags: HW
PickledData: "(dp1
S'com.typemytype.robofont.layerData'
p2
(dp3
S'back'
p4
(dp5
S'name'
p6
S'g'
sS'lib'
p7
(dp8
sS'unicodes'
p9
(tsS'width'
p10
I1250
sS'contours'
p11
((dp12
S'points'
p13
((dp14
S'segmentType'
p15
S'line'
p16
sS'x'
F612
sS'smooth'
p17
I00
sS'y'
F206
s(dp18
S'y'
F206
sS'x'
F456
sg17
I00
s(dp19
S'y'
F346
sS'x'
F340
sg17
I00
s(dp20
g15
S'curve'
p21
sS'x'
F340
sg17
I01
sS'y'
F547
s(dp22
S'y'
F759
sS'x'
F340
sg17
I00
s(dp23
S'y'
F895
sS'x'
F432
sg17
I00
s(dp24
g15
S'curve'
p25
sS'x'
F611
sg17
I00
sS'y'
F895
s(dp26
S'y'
F893
sS'x'
F761
sg17
I00
s(dp27
S'y'
F765
sS'x'
F878
sg17
I00
s(dp28
g15
S'curve'
p29
sS'x'
F878
sg17
I01
sS'y'
F547
s(dp30
S'y'
F337
sS'x'
F878
sg17
I00
s(dp31
S'y'
F206
sS'x'
F765
sg17
I00
s(dp32
g15
S'curve'
p33
sS'x'
F613
sg17
I00
sS'y'
F206
stp34
s(dp35
g13
((dp36
g15
S'line'
p37
sS'x'
F494
sg17
I01
sS'y'
F-488
s(dp38
S'y'
F-488
sS'x'
F1001
sg17
I00
s(dp39
S'y'
F-320
sS'x'
F1149
sg17
I00
s(dp40
g15
S'curve'
p41
sS'x'
F1149
sg17
I01
sS'y'
F65
s(dp42
g15
S'line'
p43
sS'x'
F1149
sg17
I00
sS'y'
F1063
s(dp44
g15
S'line'
p45
sS'x'
F866
sg17
I00
sS'y'
F1063
s(dp46
g15
S'line'
p47
sS'x'
F866
sg17
I00
sS'y'
F958
s(dp48
S'y'
F1040
sS'x'
F809
sg17
I00
s(dp49
S'y'
F1102
sS'x'
F710
sg17
I00
s(dp50
g15
S'curve'
p51
sS'x'
F546
sg17
I00
sS'y'
F1103
s(dp52
S'y'
F1103
sS'x'
F312
sg17
I00
s(dp53
S'y'
F918
sS'x'
F68
sg17
I00
s(dp54
g15
S'curve'
p55
sS'x'
F68
sg17
I01
sS'y'
F549
s(dp56
S'y'
F201
sS'x'
F68
sg17
I00
s(dp57
S'y'
F0
sS'x'
F292
sg17
I00
s(dp58
g15
S'curve'
p59
sS'x'
F564
sg17
I01
sS'y'
F0
s(dp60
S'y'
F0
sS'x'
F736
sg17
I00
s(dp61
S'y'
F67
sS'x'
F812
sg17
I00
s(dp62
g15
S'curve'
p63
sS'x'
F866
sg17
I00
sS'y'
F143
s(dp64
g15
S'line'
p65
sS'x'
F866
sg17
I01
sS'y'
F57
s(dp66
S'y'
F-266
sS'x'
F866
sg17
I00
s(dp67
S'y'
F-269
sS'x'
F751
sg17
I00
s(dp68
g15
S'curve'
p69
sS'x'
F448
sg17
I01
sS'y'
F-269
s(dp70
g15
S'line'
p71
sS'x'
F336
sg17
I00
sS'y'
F-269
s(dp72
g15
S'line'
p73
sS'x'
F356
sg17
I00
sS'y'
F-488
stp74
stp75
sS'components'
p76
(tsS'anchors'
p77
((dp78
S'y'
F1059
sS'x'
F625
sg6
S'top'
p79
stp80
sss."
HStem: -488 219<366 793.875> 0 189<493.85 764.244> 928 189<480.158 766.472> 1080 20G<892 1186>
VStem: 77 272<364.132 785.992> 892 294<-163.951 143 327.642 798.085 973 1100>
LayerCount: 2
Back
SplineSet
628 195 m 0xec
 773 195 872 282 875 537 c 1
 875 812 779 909 625 909 c 0
 490 909 380 816 380 554 c 0
 380 300 486 195 628 195 c 0xec
541 -20 m 0
 252 -20 89 224 89 560 c 0
 89 886 250 1128 548 1128 c 0xec
 750 1128 834.026 1035.69 876 965 c 1
 900 1100 l 1
 1157 1100 l 1xdc
 1157 -436 l 1
 862 -451 l 1
 862 7 l 2
 862 46 864 93 869 147 c 1
 826.217 84.0137 790 -20 541 -20 c 0
EndSplineSet
Fore
SplineSet
631 196 m 0xec
 828 196 890 345 890 565 c 0
 890 791.68 803.879 905.962 649 908 c 1
 464 908 369 788 369 565 c 0
 369 354 467 196 631 196 c 0xec
366 -488 m 1
 351 -256 l 1
 461 -256 l 2
 749 -256 886.213 -223.479 886.213 -17.9951 c 0
 886.213 36.6377 883.468 91.3047 878 143 c 1
 823 67 760 0 584 0 c 0
 306 0 77 208 77 567 c 0
 77 948 325 1128 562 1128 c 0xec
 730 1128 830 1062 890 969 c 1
 914 1100 l 1
 1172 1100 l 1xdc
 1172 77 l 2
 1172 -317 1024 -488 506 -488 c 2
 366 -488 l 1
EndSplineSet
EndChar

StartChar: gcommaaccent
Encoding: 227 291 235
Width: 1295
VWidth: 0
Flags: HW
PickledData: "(dp1
S'com.typemytype.robofont.layerData'
p2
(dp3
S'back'
p4
(dp5
S'name'
p6
S'gcedilla'
p7
sS'lib'
p8
(dp9
sS'unicodes'
p10
(tsS'width'
p11
I1295
sS'contours'
p12
(tsS'components'
p13
(tsS'anchors'
p14
(tsss."
HStem: -488 219<351 778.875> 0 189<478.85 749.244> 928 189<465.158 751.472> 1080 20<877 1171>
VStem: 62 272<364.132 785.992> 877 294<-163.951 143 327.642 798.085 973 1100>
LayerCount: 2
Fore
SplineSet
769 1723 m 1xcc
 660 1200 l 1
 430 1200 l 1
 595 1723 l 1
 769 1723 l 1xcc
EndSplineSet
Refer: 232 103 N 1 0 0 1 0 0 2
EndChar

StartChar: germandbls
Encoding: 159 223 238
Width: 1271
VWidth: 0
Flags: W
HStem: 0 189<548.221 882.293> 1274 204<450.946 733.094>
VStem: 104 285<0 1211.8> 780 271<1020.04 1227> 932 282<232.49 457.431>
LayerCount: 2
Fore
SplineSet
766 189 m 2xe8
 873 189 932 250 932 346 c 0xe8
 932 503 735 561 588 649 c 1
 549 671 499 711 499 774 c 0
 499 830 539 868 573 893 c 0
 664 959 780 1019 780 1131 c 0
 780 1223 702 1274 587 1274 c 0
 415 1274 389 1169 389 1003 c 2
 389 0 l 1
 104 0 l 1
 104 1017 l 2
 104 1308 279 1478 588 1478 c 0
 828 1478 1051 1370 1051 1131 c 0xf0
 1051 956 896 858 779 786 c 1
 951 698 1214 587 1214 342 c 0
 1214 111 1034 0 796 0 c 2
 521 0 l 2
 523 0 550 189 550 189 c 1
 766 189 l 2xe8
EndSplineSet
EndChar

StartChar: grave
Encoding: 65 96 239
Width: 471
VWidth: 0
Flags: W
HStem: 1176 382
VStem: -39 513
LayerCount: 2
Back
SplineSet
-16 1558 m 5
 295 1176 l 5
 464 1176 l 5
 298 1558 l 5
 -16 1558 l 5
EndSplineSet
Fore
SplineSet
295 1176 m 1
 -39 1558 l 1
 285 1558 l 1
 474 1176 l 1
 295 1176 l 1
EndSplineSet
EndChar

StartChar: greater
Encoding: 31 62 240
Width: 1203
Flags: W
DStem2: 120 433 120 212 0.908562 0.417751<0 742.802>
LayerCount: 2
Fore
SplineSet
120 212 m 1
 120 433 l 1
 801 730 l 1
 120 1048 l 1
 120 1270 l 1
 1090 791 l 1
 1090 658 l 1
 120 212 l 1
EndSplineSet
EndChar

StartChar: greaterequal
Encoding: 658 8805 241
Width: 1238
VWidth: 0
Flags: W
HStem: 0 163<153 1099>
DStem2: 153 1260 153 1057 0.898942 -0.438068<88.9278 837.693> 153 425 153 222 0.901924 0.431894<0 745.354>
LayerCount: 2
Fore
SplineSet
153 163 m 1
 1099 162 l 1
 1099 0 l 1
 153 0 l 1
 153 163 l 1
830 737 m 1
 153 1057 l 1
 153 1260 l 1
 1099 799 l 1
 1099 675 l 1
 153 222 l 1
 153 425 l 1
 830 737 l 1
EndSplineSet
EndChar

StartChar: guillemotleft
Encoding: 107 171 242
Width: 1110
Flags: W
DStem2: 336 562 58 555 0.613941 -0.789352<0 370.732> 774 562 495 555 0.615101 -0.788448<0 370.403>
LayerCount: 2
Fore
SplineSet
58 555 m 1
 79 596 l 1
 390 993 l 1
 618 934 l 1
 336 562 l 1
 613 192 l 1
 387 132 l 1
 58 555 l 1
495 555 m 1
 520 601 l 1
 827 993 l 1
 1053 934 l 1
 774 562 l 1
 1049 192 l 1
 825 132 l 1
 495 555 l 1
EndSplineSet
EndChar

StartChar: guillemotright
Encoding: 123 187 243
Width: 1220
Flags: W
DStem2: 116 192 342 132 0.606976 0.79472<89.4935 464> 344 993 120 934 0.614455 -0.788952<0 371.99> 566 192 791 132 0.605823 0.795599<88.5743 463.396> 795 993 570 934 0.61097 -0.791654<0 371.751>
LayerCount: 2
Fore
SplineSet
1123 568 m 5
 791 132 l 5
 566 192 l 5
 845 562 l 5
 570 934 l 5
 795 993 l 5
 1123 568 l 5
675 568 m 5
 342 132 l 5
 116 192 l 5
 396 562 l 5
 120 934 l 5
 344 993 l 5
 675 568 l 5
EndSplineSet
EndChar

StartChar: guilsinglleft
Encoding: 640 8249 244
Width: 572
VWidth: 0
Flags: W
VStem: 309 222<171 393 737 959>
DStem2: 267 563 33 563 0.5757 -0.817661<0 344.702> 33 563 267 563 0.58007 0.814567<135.736 486.148>
LayerCount: 2
Fore
SplineSet
315 959 m 1
 538 959 l 1
 267 563 l 1
 531 171 l 1
 309 171 l 1
 33 563 l 1
 315 959 l 1
EndSplineSet
EndChar

StartChar: guilsinglright
Encoding: 641 8250 245
Width: 573
VWidth: 0
Flags: W
VStem: 33 221<171 392 738 959>
DStem2: 33 171 254 171 0.588416 0.808558<130.04 476.636>
LayerCount: 2
Fore
SplineSet
540 564 m 1
 254 171 l 1
 33 171 l 1
 303 564 l 1
 41 959 l 1
 261 959 l 1
 540 564 l 1
EndSplineSet
EndChar

StartChar: h
Encoding: 73 104 246
Width: 1278
Flags: HW
PickledData: "(dp1
S'com.typemytype.robofont.layerData'
p2
(dp3
S'back'
p4
(dp5
S'name'
p6
S'h'
sS'lib'
p7
(dp8
sS'unicodes'
p9
(tsS'width'
p10
I1199
sS'contours'
p11
((dp12
S'points'
p13
((dp14
S'segmentType'
p15
S'curve'
p16
sS'x'
F1105
sS'smooth'
p17
I00
sS'y'
F1063
s(dp18
g15
S'line'
p19
sS'x'
F1105
sg17
I00
sS'y'
F0
s(dp20
g15
S'line'
p21
sS'x'
F822
sg17
I00
sS'y'
F0
s(dp22
g15
S'line'
p23
sS'x'
F822
sg17
I00
sS'y'
F1063
s(dp24
S'y'
F1063
sS'x'
F822
sg17
I00
s(dp25
S'y'
F1063
sS'x'
F1105
sg17
I00
stp26
stp27
sS'components'
p28
(tsS'anchors'
p29
(tsss."
HStem: 0 21G<130 424 862 1156> 911 217<565.266 807.05>
VStem: 130 294<0 771.66 978 1527> 862 294<0 851.683>
LayerCount: 2
Back
SplineSet
424 1220 m 5
 424 120 l 5
 130 120 l 5
 130 1220 l 5
 424 1220 l 5
EndSplineSet
Fore
SplineSet
1156 698 m 2
 1156 0 l 1
 862 0 l 1
 862 668 l 2
 862 830 816 911 689 911 c 0
 585 911 500 851 453 775 c 1
 433 704 424 617 424 510 c 2
 424 0 l 1
 130 0 l 1
 130 1527 l 1
 424 1536 l 1
 424 1243 l 2
 424 1208 423 1158 421 1090 c 2
 417 978 l 5
 475.42 1044.46 580 1128 762 1128 c 0
 996 1128 1156 1005 1156 698 c 2
EndSplineSet
EndChar

StartChar: hbar
Encoding: 231 295 247
Width: 1214
VWidth: 0
Flags: W
HStem: 0 21G<104 387 840 1123> 909 209<520.584 794.353> 1210 142<0 104 387 692>
VStem: 104 283<0 801.483 981 1210 1352 1498> 840 283<0 862.811>
LayerCount: 2
Fore
SplineSet
387 0 m 1
 104 0 l 1
 104 1210 l 1
 0 1210 l 1
 0 1352 l 1
 104 1352 l 1
 104 1498 l 1
 387 1516 l 1
 387 1352 l 1
 692 1352 l 1
 692 1210 l 1
 387 1210 l 1
 387 981 l 1
 478 1071 595 1118 737 1118 c 0
 942 1118 1123 1017 1123 668 c 2
 1123 0 l 1
 840 0 l 1
 840 666 l 2
 840 829 809 909 674 909 c 0
 552 909 443 837 387 744 c 1
 387 0 l 1
EndSplineSet
EndChar

StartChar: hungarumlaut
Encoding: 429 733 249
Width: 1037
VWidth: 0
Flags: W
PickledData: "(dp1
S'com.typemytype.robofont.layerData'
p2
(dp3
S'back'
p4
(dp5
S'name'
p6
S'hungarumlaut'
p7
sS'lib'
p8
(dp9
sS'unicodes'
p10
(tsS'width'
p11
I1010
sS'contours'
p12
(tsS'components'
p13
(tsS'anchors'
p14
(tsss."
HStem: 1120 370
LayerCount: 2
Fore
SplineSet
669 1490 m 1
 303 1120 l 1
 157 1120 l 1
 419 1490 l 1
 669 1490 l 1
1006 1490 m 1
 639 1120 l 1
 494 1120 l 1
 756 1490 l 1
 1006 1490 l 1
EndSplineSet
EndChar

StartChar: hyphen
Encoding: 14 45 250
Width: 678
Flags: W
HStem: 428 222<65 613>
VStem: 65 548<428 650>
LayerCount: 2
Fore
SplineSet
613 428 m 1
 65 428 l 1
 65 650 l 1
 613 650 l 1
 613 428 l 1
EndSplineSet
EndChar

StartChar: i
Encoding: 74 105 251
Width: 527
VWidth: 0
Flags: W
PickledData: "(dp1
S'com.typemytype.robofont.layerData'
p2
(dp3
S'back'
p4
(dp5
S'name'
p6
S'i'
sS'lib'
p7
(dp8
sS'unicodes'
p9
(tsS'width'
p10
I527
sS'contours'
p11
((dp12
S'points'
p13
((dp14
S'segmentType'
p15
S'curve'
p16
sS'x'
F410
sS'smooth'
p17
I00
sS'y'
F1063
s(dp18
g15
S'line'
p19
sS'x'
F410
sg17
I00
sS'y'
F0
s(dp20
g15
S'line'
p21
sS'x'
F127
sg17
I00
sS'y'
F0
s(dp22
g15
S'line'
p23
sS'x'
F127
sg17
I00
sS'y'
F1063
s(dp24
S'y'
F1063
sS'x'
F127
sg17
I00
s(dp25
S'y'
F1063
sS'x'
F410
sg17
I00
stp26
stp27
sS'components'
p28
(tsS'anchors'
p29
(tsss."
HStem: 0 21G<130 424> 1080 20G<130 424> 1246 232<130 425>
VStem: 130 294<0 1100 1246 1478>
LayerCount: 2
Back
SplineSet
1156 698 m 6xd8
 1156 0 l 5
 862 0 l 5
 862 648 l 6
 862 806 829 911 681 911 c 4xd8
 584 911 496 854 453 781 c 5
 433 709 424 621 424 513 c 6
 424 0 l 5
 130 0 l 5
 130 1100 l 5
 365 1100 l 5xb8
 397 966 l 5
 493.165 1054.77 601.525 1128 770 1128 c 4
 1032 1128 1156 966 1156 698 c 6xd8
EndSplineSet
Fore
SplineSet
424 1100 m 5
 424 0 l 5
 130 0 l 5
 130 1100 l 5
 424 1100 l 5
425 1478 m 1
 425 1246 l 1
 130 1246 l 1
 130 1478 l 1
 425 1478 l 1
EndSplineSet
EndChar

StartChar: infinity
Encoding: 653 8734 259
Width: 1656
VWidth: 0
Flags: W
HStem: 236 180<336.233 592.073 1068.95 1318.62> 815 174<333.492 487 1068.34 1317.21>
VStem: 90 183<479.497 753.917> 1372 195<475.446 643>
LayerCount: 2
Fore
SplineSet
1374 644 m 1
 1368 747 1305 815 1198 815 c 0
 1072 815 990 706 929 615 c 1
 999 518 1071 415 1201 415 c 0
 1323 415 1372 505 1372 640 c 2
 1372 643 l 1
 1374 644 l 1
729 612 m 1
 664 712 586 815 452 815 c 0
 335 815 273 732 273 615 c 0
 273 501 345 416 460 416 c 0
 587 416 666 522 729 612 c 1
830 475 m 1
 747 362 643 236 462 236 c 0
 240 236 90 414 90 635 c 0
 90 840 261 990 457 990 c 2
 464 990 l 1
 487 988 l 2
 655 974 754 856 830 751 c 1
 912 865 1014 989 1198 989 c 0
 1417 989 1567 839 1567 618 c 0
 1567 401 1410 236 1197 236 c 0
 1020 236 916 357 830 475 c 1
EndSplineSet
EndChar

StartChar: integral
Encoding: 654 8747 260
Width: 781
VWidth: 0
Flags: W
HStem: -399 195<119.391 356.713> 1447 194<666.764 909.758>
VStem: 384 259<-182.089 1424.88>
LayerCount: 2
Fore
SplineSet
116 -173 m 1
 160 -191 l 2
 179 -198 222 -204 256 -204 c 0
 367 -204 384 -148 384 -22 c 2
 384 1246 l 2
 384 1462 478 1641 750 1641 c 0
 808 1641 847 1629 887 1620 c 2
 910 1615 l 1
 914 1416 l 1
 870 1434 l 2
 851 1441 808 1447 774 1447 c 0
 662 1447 643 1392 643 1265 c 2
 643 -3 l 2
 643 -219 552 -399 280 -399 c 0
 224 -399 183 -388 141 -376 c 2
 119 -370 l 1
 116 -173 l 1
EndSplineSet
EndChar

StartChar: j
Encoding: 75 106 263
Width: 554
VWidth: 0
Flags: W
PickledData: "(dp1
S'com.typemytype.robofont.layerData'
p2
(dp3
S'back'
p4
(dp5
S'name'
p6
S'j'
sS'lib'
p7
(dp8
sS'unicodes'
p9
(tsS'width'
p10
I554
sS'contours'
p11
((dp12
S'points'
p13
((dp14
S'segmentType'
p15
S'curve'
p16
sS'x'
F451
sS'smooth'
p17
I00
sS'y'
F1063
s(dp18
g15
S'line'
p19
sS'x'
F451
sg17
I00
sS'y'
F0
s(dp20
g15
S'line'
p21
sS'x'
F168
sg17
I00
sS'y'
F0
s(dp22
g15
S'line'
p23
sS'x'
F168
sg17
I00
sS'y'
F1063
s(dp24
S'y'
F1063
sS'x'
F168
sg17
I00
s(dp25
S'y'
F1063
sS'x'
F451
sg17
I00
stp26
stp27
sS'components'
p28
(tsS'anchors'
p29
(tsss."
HStem: -402 209<-46 127.602> 1080 20G<164 458> 1246 232<164 458>
VStem: 164 294<-162.574 1100 1246 1478>
LayerCount: 2
Back
SplineSet
458 1100 m 1
 458 0 l 1
 164 0 l 1
 164 1100 l 1
 458 1100 l 1
EndSplineSet
Fore
SplineSet
458 1100 m 1
 458 81 l 2
 458 -240 391 -402 15 -402 c 2
 -46 -402 l 1
 -77 -193 l 1
 -17 -193 l 2
 141 -193 164 -146 164 19 c 2
 164 1100 l 1
 458 1100 l 1
458 1478 m 1
 458 1246 l 1
 164 1246 l 1
 164 1478 l 1
 458 1478 l 1
EndSplineSet
EndChar

StartChar: k
Encoding: 76 107 265
Width: 1200
Flags: W
PickledData: "(dp1
S'com.typemytype.robofont.layerData'
p2
(dp3
S'back'
p4
(dp5
S'name'
p6
S'k'
sS'lib'
p7
(dp8
sS'unicodes'
p9
(tsS'width'
p10
I1109
sS'contours'
p11
((dp12
S'points'
p13
((dp14
S'segmentType'
p15
S'curve'
p16
sS'x'
F384
sS'smooth'
p17
I00
sS'y'
F1063
s(dp18
g15
S'line'
p19
sS'x'
F384
sg17
I00
sS'y'
F0
s(dp20
g15
S'line'
p21
sS'x'
F101
sg17
I00
sS'y'
F0
s(dp22
g15
S'line'
p23
sS'x'
F101
sg17
I00
sS'y'
F1063
s(dp24
S'y'
F1063
sS'x'
F101
sg17
I00
s(dp25
S'y'
F1063
sS'x'
F384
sg17
I00
stp26
stp27
sS'components'
p28
(tsS'anchors'
p29
(tsss."
HStem: 0 21G<132 426 864.608 1233> 1080 20G<793.881 1205>
VStem: 132 294<0 405 633 1526> 859 346<754 1100> 879 354<0 354>
DStem2: 461 674 754 630 0.692372 0.721541<171.117 582.94> 754 630 530 485 0.605243 -0.79604<0 577.161>
LayerCount: 2
Back
SplineSet
426 1100 m 5
 426 0 l 5
 132 0 l 5
 132 1100 l 5
 426 1100 l 5
EndSplineSet
Fore
SplineSet
418 633 m 5xe8
 461 674 l 5
 582.297 820.703 728.763 962.237 859 1100 c 5
 1205 1100 l 5xf0
 754 630 l 5
 1233 0 l 5
 879 0 l 5
 530 485 l 5
 426 405 l 5
 426 0 l 5
 132 0 l 5
 132 1526 l 5
 426 1536 l 5
 426 883 l 5
 418 633 l 5xe8
EndSplineSet
EndChar

StartChar: kgreenlandic
Encoding: 248 312 267
Width: 1130
VWidth: 0
Flags: W
HStem: 0 21G<104 387 824.93 1197> 1078 20G<104 387 780.81 1148>
VStem: 104 283<0 442 645 1098> 799 349<749 1098> 840 357<0 357>
DStem2: 387 645 710 611 0.668712 0.743522<190.714 612.325> 710 611 464 499 0.623289 -0.781991<0 558.824>
LayerCount: 2
Fore
SplineSet
104 1098 m 1xe8
 387 1098 l 1
 387 645 l 1
 799 1098 l 1
 1148 1098 l 1xf0
 710 611 l 1
 1197 0 l 1
 840 0 l 1
 464 499 l 1
 387 442 l 1
 387 0 l 1
 104 0 l 1
 104 1098 l 1xe8
EndSplineSet
EndChar

StartChar: l
Encoding: 77 108 268
Width: 687
VWidth: 0
Flags: W
PickledData: "(dp1
S'com.typemytype.robofont.layerData'
p2
(dp3
S'back'
p4
(dp5
S'name'
p6
S'l'
sS'lib'
p7
(dp8
sS'unicodes'
p9
(tsS'width'
p10
I656
sS'contours'
p11
((dp12
S'points'
p13
((dp14
S'segmentType'
p15
S'curve'
p16
sS'x'
F401
sS'smooth'
p17
I00
sS'y'
F1063
s(dp18
g15
S'line'
p19
sS'x'
F401
sg17
I00
sS'y'
F0
s(dp20
g15
S'line'
p21
sS'x'
F118
sg17
I00
sS'y'
F0
s(dp22
g15
S'line'
p23
sS'x'
F118
sg17
I00
sS'y'
F1063
s(dp24
S'y'
F1063
sS'x'
F118
sg17
I00
s(dp25
S'y'
F1063
sS'x'
F401
sg17
I00
stp26
stp27
sS'components'
p28
(tsS'anchors'
p29
(tsss."
HStem: -13 210<434.029 704.788>
VStem: 111 294<230.013 1526>
LayerCount: 2
Back
SplineSet
405 1100 m 5
 405 0 l 5
 111 0 l 5
 111 1100 l 5
 405 1100 l 5
EndSplineSet
Fore
SplineSet
111 456 m 2
 111 1526 l 1
 405 1536 l 1
 405 440 l 2
 405 224 431 197 563 197 c 0
 596 197 657 208 705 218 c 1
 712 13 l 1
 712 13 621 -13 523 -13 c 0
 189 -13 111 145 111 456 c 2
EndSplineSet
EndChar

StartChar: less
Encoding: 29 60 273
Width: 1203
Flags: W
LayerCount: 2
Fore
SplineSet
1088 433 m 1
 1088 212 l 1
 119 658 l 1
 119 791 l 1
 1088 1270 l 1
 1088 1048 l 1
 407 730 l 1
 1088 433 l 1
EndSplineSet
EndChar

StartChar: lessequal
Encoding: 657 8804 274
Width: 1238
VWidth: 0
Flags: W
HStem: 0 162<150 1096>
DStem2: 150 799 418 737 0.898942 0.438068<213.756 963.421> 418 737 150 675 0.901924 -0.431894<0 746.256>
LayerCount: 2
Fore
SplineSet
1096 163 m 1
 1096 0 l 1
 150 0 l 1
 150 162 l 1
 1096 163 l 1
418 737 m 1
 1096 425 l 1
 1096 222 l 1
 150 675 l 1
 150 799 l 1
 1096 1260 l 1
 1096 1057 l 1
 418 737 l 1
EndSplineSet
EndChar

StartChar: logicalnot
Encoding: 108 172 275
Width: 1307
Flags: W
HStem: 628 209<139 959>
VStem: 959 210<243 628>
LayerCount: 2
Fore
SplineSet
1169 837 m 1
 1169 243 l 1
 959 243 l 1
 959 628 l 1
 139 628 l 1
 139 837 l 1
 1169 837 l 1
EndSplineSet
EndChar

StartChar: lozenge
Encoding: 659 9674 276
Width: 1256
VWidth: 0
Flags: W
HStem: 1459 20G<553.827 714.031>
DStem2: 101 715 320 717 0.519911 0.85422<90.7044 750.536> 320 717 101 715 0.514827 -0.857294<-23.7238 504.254> 626 164 693 -46 0.523349 0.852119<0 645.561>
LayerCount: 2
Fore
SplineSet
626 164 m 1
 731 355 841 537 942 716 c 1
 841 901 735 1085 636 1268 c 1
 532 1077 421 896 320 717 c 1
 421 531 526 347 626 164 c 1
702 1479 m 1
 1161 716 l 1
 693 -46 l 1
 558 -46 l 1
 101 715 l 1
 566 1479 l 1
 702 1479 l 1
EndSplineSet
EndChar

StartChar: lslash
Encoding: 258 322 277
Width: 709
VWidth: 0
Flags: W
HStem: -13 215<455.273 688.664>
VStem: 142 283<240.651 732 1088 1496>
LayerCount: 2
Fore
SplineSet
30 671 m 1
 30 867 l 1
 142 928 l 1
 142 1496 l 1
 425 1516 l 1
 425 1088 l 1
 577 1171 l 1
 577 977 l 1
 425 893 l 1
 425 440 l 2
 425 259 435 202 596 202 c 0
 603 202 688 208 688 208 c 1
 704 1 l 1
 704 1 599 -13 543 -13 c 0
 209 -13 142 145 142 456 c 2
 142 732 l 1
 30 671 l 1
EndSplineSet
EndChar

StartChar: m
Encoding: 78 109 278
Width: 1936
Flags: W
PickledData: "(dp1
S'com.typemytype.robofont.layerData'
p2
(dp3
S'back'
p4
(dp5
S'name'
p6
S'm'
sS'lib'
p7
(dp8
sS'unicodes'
p9
(tsS'width'
p10
I1836
sS'contours'
p11
((dp12
S'points'
p13
((dp14
S'segmentType'
p15
S'curve'
p16
sS'x'
F1069
sS'smooth'
p17
I00
sS'y'
F1063
s(dp18
g15
S'line'
p19
sS'x'
F1069
sg17
I00
sS'y'
F0
s(dp20
g15
S'line'
p21
sS'x'
F786
sg17
I00
sS'y'
F0
s(dp22
g15
S'line'
p23
sS'x'
F786
sg17
I00
sS'y'
F1063
s(dp24
S'y'
F1063
sS'x'
F786
sg17
I00
s(dp25
S'y'
F1063
sS'x'
F1069
sg17
I00
stp26
stp27
sS'components'
p28
(tsS'anchors'
p29
(tsss."
HStem: 0 21G<130 424 827 1121 1520 1814> 910 218<543.413 776.114 1241.39 1471.76> 1080 20G<130 370.889>
VStem: 130 294<0 778.659> 827 294<0 795.78> 1520 294<0 862.311>
LayerCount: 2
Back
SplineSet
1814 1100 m 5
 1814 0 l 5
 1520 0 l 5
 1520 1100 l 5
 1814 1100 l 5
EndSplineSet
Fore
SplineSet
1121 658 m 1xdc
 1121 0 l 1
 827 0 l 1
 827 652 l 2
 827 817 791 910 660 910 c 0xdc
 558 910 491 850 451 782 c 1
 433 711 424 622 424 515 c 2
 424 0 l 1
 130 0 l 1
 130 1100 l 1
 366 1100 l 1xbc
 399 965 l 1
 451.432 1026.38 537 1128 767 1128 c 0
 953 1128 1048.25 1031.24 1084 957 c 1
 1163 1064 1291 1128 1445 1128 c 0
 1704 1128 1814 976 1814 701 c 2
 1814 0 l 1
 1520 0 l 1
 1520 642 l 2
 1520 830 1485 911 1362 911 c 0
 1225 911 1144 816 1121 658 c 1xdc
EndSplineSet
EndChar

StartChar: macron
Encoding: -1 175 279
Width: 788
VWidth: 0
Flags: W
HStem: 1258 179<71 674>
VStem: 71 603<1258 1437>
LayerCount: 2
Fore
SplineSet
674 1258 m 1
 71 1258 l 1
 71 1437 l 1
 674 1437 l 1
 674 1258 l 1
EndSplineSet
EndChar

StartChar: minus
Encoding: 651 8722 280
Width: 1456
VWidth: 0
Flags: W
HStem: 446 197<189 1267>
LayerCount: 2
Fore
SplineSet
189 643 m 1
 1267 643 l 1
 1267 446 l 1
 189 446 l 1
 189 643 l 1
EndSplineSet
EndChar

StartChar: mu
Encoding: 117 956 281
Width: 1234
VWidth: 0
Flags: W
HStem: -12 214<471.534 768.14>
VStem: 146 244<283.776 1071> 146 217<-196 59> 853 243<285.896 1070>
LayerCount: 2
Fore
SplineSet
619 -12 m 0xd0
 512 -12 430 18 363 59 c 1
 363 -196 l 1
 146 -196 l 1xb0
 146 1071 l 1
 390 1071 l 1
 390 426 l 2
 390 293 476 202 621 202 c 0
 766 202 853 294 853 425 c 2
 853 1070 l 1
 1096 1070 l 1
 1096 425 l 2
 1096 159 905 -12 619 -12 c 0xd0
EndSplineSet
EndChar

StartChar: multiply
Encoding: 151 215 282
Width: 1529
VWidth: 0
Flags: W
DStem2: 475 1017 332 865 0.722991 -0.690858<1.62271 413.117 644.474 1056.9> 332 285 474 136 0.724858 0.688899<0.28389 412.853 644.807 1056.62>
LayerCount: 2
Fore
SplineSet
1240 864 m 1
 945 576 l 1
 1043 479 1143 384 1240 286 c 1
 1095 136 l 1
 785 423 l 1
 474 136 l 1
 332 285 l 1
 625 576 l 1
 332 865 l 1
 475 1017 l 1
 785 729 l 1
 1094 1017 l 1
 1240 864 l 1
EndSplineSet
EndChar

StartChar: n
Encoding: 79 110 283
Width: 1278
Flags: W
PickledData: "(dp1
S'com.typemytype.robofont.layerData'
p2
(dp3
S'back'
p4
(dp5
S'name'
p6
S'n'
sS'lib'
p7
(dp8
sS'unicodes'
p9
(tsS'width'
p10
I1197
sS'contours'
p11
((dp12
S'points'
p13
((dp14
S'segmentType'
p15
S'curve'
p16
sS'x'
F1105
sS'smooth'
p17
I00
sS'y'
F1063
s(dp18
g15
S'line'
p19
sS'x'
F1105
sg17
I00
sS'y'
F0
s(dp20
g15
S'line'
p21
sS'x'
F822
sg17
I00
sS'y'
F0
s(dp22
g15
S'line'
p23
sS'x'
F822
sg17
I00
sS'y'
F1063
s(dp24
S'y'
F1063
sS'x'
F822
sg17
I00
s(dp25
S'y'
F1063
sS'x'
F1105
sg17
I00
stp26
stp27
sS'components'
p28
(tsS'anchors'
p29
(tsss."
HStem: 0 21G<130 424 862 1156> 911 217<563.897 806.309> 1080 20G<130 369.776>
VStem: 130 294<0 777.613> 862 294<0 847.723>
LayerCount: 2
Back
SplineSet
1888 698 m 6xd8
 1888 0 l 5
 1594 0 l 5
 1594 648 l 6
 1594 806 1561 911 1413 911 c 4xd8
 1316 911 1228 854 1185 781 c 5
 1165 709 1156 621 1156 513 c 6
 1156 0 l 5
 862 0 l 5
 862 1100 l 5
 1097 1100 l 5xb8
 1129 966 l 5
 1225.17 1054.77 1333.52 1128 1502 1128 c 4
 1764 1128 1888 966 1888 698 c 6xd8
EndSplineSet
Fore
SplineSet
1156 698 m 6xd8
 1156 0 l 5
 862 0 l 5
 862 648 l 6
 862 806 829 911 681 911 c 4xd8
 584 911 496 854 453 781 c 5
 433 709 424 621 424 513 c 6
 424 0 l 5
 130 0 l 5
 130 1100 l 5
 365 1100 l 5xb8
 397 966 l 5
 493.165 1054.77 601.525 1128 770 1128 c 4
 1032 1128 1156 966 1156 698 c 6xd8
EndSplineSet
EndChar

StartChar: nine
Encoding: 26 57 287
Width: 1232
VWidth: 0
Flags: W
HStem: 0 21G<231 606.832> 540 196<473.542 653.264> 1263 215<477.554 797.026>
VStem: 66 302<841.192 1157.04> 231 361<0 361> 894 296<838.08 1167.23>
DStem2: 231 0 592 0 0.595669 0.80323<215.037 695.739>
LayerCount: 2
Fore
SplineSet
368 1006 m 0xf4
 368 844 450 736 635 736 c 0
 821 736 894 850 894 1011 c 0
 894 1167 804 1263 639 1263 c 0
 468 1263 368 1163 368 1006 c 0xf4
592 0 m 1xec
 231 0 l 1xec
 656 551 l 1
 622 544 608 540 572 540 c 0
 275 540 66 724 66 999 c 0xf4
 66 1294 309 1478 624 1478 c 0
 949 1478 1190 1298 1190 998 c 0
 1190 814 1093 678 1011 565 c 1
 592 0 l 1xec
EndSplineSet
EndChar

StartChar: notequal
Encoding: 656 8800 289
Width: 1354
VWidth: 0
Flags: W
HStem: 299 180<165 434 715 1197> 703 181<165 633 914 1196>
DStem2: 311 68 491 43 0.45355 0.891231<59.3583 262.552 549.53 711.975 999.844 1195.88>
LayerCount: 2
Fore
SplineSet
717 884 m 1
 853 1134 l 1
 1027 1111 l 2
 1029 1111 1032 1110 1034 1110 c 1
 914 883 l 1
 1196 883 l 1
 1212 702 l 1
 828 702 l 1
 715 479 l 1
 1197 479 l 1
 1212 299 l 1
 628 299 l 1
 491 43 l 1
 311 68 l 1
 434 300 l 1
 165 300 l 1
 154 480 l 1
 522 480 l 1
 633 703 l 1
 165 703 l 1
 152 884 l 1
 717 884 l 1
EndSplineSet
EndChar

StartChar: numbersign
Encoding: 4 35 291
Width: 1211
Flags: W
HStem: -12 21G<174 386.816 559 773.816> 402 196<48 252 497 637 883 1084> 887 197<126 342 590 731 977 1161> 1437 20G<450.764 665 839.979 1054>
VStem: 174 209<-12 197> 455 210<1247 1457> 559 211<-12 199> 844 210<1247 1457>
DStem2: 174 -12 383 -12 0.188525 0.982068<39.4017 421.281 659.955 914.552 1154.77 1495.63> 559 -12 770 -12 0.190458 0.981695<40.1867 421.278 660.543 916.285 1155.55 1496.39>
LayerCount: 2
Fore
SplineSet
1161 888 m 1xfd
 940 888 l 1
 883 598 l 1
 1094 598 l 1
 1084 402 l 1
 849 402 l 1
 770 -12 l 1
 559 -12 l 1xfb
 637 402 l 1
 462 402 l 1
 383 -12 l 1
 174 -12 l 1
 252 402 l 1
 40 402 l 1
 48 598 l 1
 289 598 l 1
 342 887 l 1
 119 887 l 1
 126 1084 l 1
 376 1084 l 1
 455 1457 l 1
 665 1457 l 1
 590 1084 l 1
 769 1084 l 1
 844 1457 l 1
 1054 1457 l 1
 977 1084 l 1
 1172 1084 l 1
 1161 888 l 1xfd
552 888 m 1
 497 598 l 1
 676 598 l 1
 731 888 l 1
 552 888 l 1
EndSplineSet
EndChar

StartChar: o
Encoding: 80 111 292
Width: 1229
Flags: W
HStem: -20 218<474.132 750.242> 910 218<477.236 752.836>
VStem: 77 291<319.847 785.29> 860 292<317.737 789.631>
LayerCount: 2
Fore
SplineSet
368 554 m 0
 368 322 449 198 614 198 c 0
 779 198 860 321 860 554 c 0
 860 789 777 910 613 910 c 0
 450 910 368 790 368 554 c 0
1152 554 m 0
 1152 204 957 -20 608 -20 c 0
 272 -20 77 213 77 554 c 0
 77 909 269 1128 619 1128 c 4
 955 1128 1152 899 1152 554 c 0
EndSplineSet
EndChar

StartChar: oe
Encoding: 274 339 297
Width: 1868
VWidth: 0
Flags: W
PickledData: "(dp1
S'com.typemytype.robofont.layerData'
p2
(dp3
S'back'
p4
(dp5
S'name'
p6
S'oe'
p7
sS'lib'
p8
(dp9
sS'unicodes'
p10
(tsS'width'
p11
I1848
sS'contours'
p12
(tsS'components'
p13
(tsS'anchors'
p14
(tsss."
HStem: -20 191<467.155 727.48 1243.87 1616.76> 494 156<1118 1560> 927 191<463.788 733.395 1218.86 1484.66>
VStem: 64 272<321.777 780.674> 859 256<320.951 494 650 781.664> 1560 257<650 848.61>
LayerCount: 2
Fore
SplineSet
1118 650 m 1
 1560 650 l 1
 1560 659 l 2
 1560 842 1491 927 1351 927 c 0
 1256 927 1133 876 1118 650 c 1
596 171 m 0
 744 171 859 300 859 553 c 0
 859 815 744 927 596 927 c 0
 445 927 336 807 336 553 c 0
 336 306 448 171 596 171 c 0
1786 105 m 1
 1691 34 1588 -20 1405 -20 c 0
 1197 -20 1058 47 986 165 c 1
 919 58 782 -20 598 -20 c 0
 231 -20 64 243 64 553 c 0
 64 878 231 1118 598 1118 c 0
 782 1118 912 1048 988 940 c 1
 1057 1058 1186 1118 1369 1118 c 0
 1698 1118 1817 877 1817 584 c 0
 1817 556 1815 494 1815 494 c 1
 1115 494 l 1
 1121 287 1222 171 1412 171 c 0
 1547 171 1642 220 1707 271 c 1
 1786 105 l 1
EndSplineSet
EndChar

StartChar: ogonek
Encoding: 427 731 298
Width: 572
VWidth: 0
Flags: W
HStem: -383 148<316.271 526.422>
VStem: 113 191<-224.933 -77.3815>
LayerCount: 2
Fore
SplineSet
384 -235 m 0
 448 -235 528 -196 528 -196 c 1
 528 -344 l 1
 462 -370 391 -383 324 -383 c 0
 209 -383 113 -331 113 -212 c 0
 113 -76 228 1 303 43 c 1
 409 43 l 1
 330 -16 304 -87 304 -149 c 0
 304 -187 329 -235 384 -235 c 0
EndSplineSet
EndChar

StartChar: one
Encoding: 18 49 302
Width: 706
VWidth: 0
Flags: W
HStem: 1 21G<309 587> 1427 20G<308.032 587>
VStem: 309 278<1 1189>
LayerCount: 2
Fore
SplineSet
347 1447 m 1
 587 1447 l 1
 587 1 l 1
 309 1 l 1
 309 1189 l 1
 45 1080 l 1
 45 1292 l 1
 347 1447 l 1
EndSplineSet
EndChar

StartChar: onehalf
Encoding: 125 189 303
Width: 1876
VWidth: 0
Flags: W
HStem: -29 146<1468 1762> 0 21G<331 567.55> 584 166<122 272 488 634> 659 165<1320.12 1565.19> 1446 0G<287.545 488 1371.41 1605>
VStem: 272 216<750 1269> 331 222<0 222> 1386 219<1227 1446> 1599 181<416.222 624.141>
DStem2: 331 0 553 0 0.5894 0.807841<130.847 1789.96>
LayerCount: 2
Fore
SplineSet
1187 687 m 2x9880
 1250 769 1354 824 1486 824 c 0
 1639 824 1780 715 1780 538 c 0
 1780 346 1652 264 1468 117 c 1
 1783 117 l 1
 1762 -29 l 1
 1203 -29 l 1
 1203 121 l 1
 1205 122 l 2
 1388 265 1599 384 1599 534 c 0
 1599 616 1523 659 1458 659 c 0
 1388 659 1300 615 1253 558 c 2
 1249 553 l 1
 1248 555 1247 557 1246 559 c 2
 1185 685 l 1
 1187 687 l 2x9880
329 1466 m 1
 488 1466 l 1
 488 750 l 1
 634 750 l 1
 634 584 l 1
 122 584 l 1
 122 750 l 1
 272 750 l 1x2c
 271 1269 l 1
 101 1193 l 1
 101 1356 l 1
 329 1466 l 1
331 0 m 1x4b
 1386 1446 l 1
 1605 1446 l 1
 553 0 l 1
 331 0 l 1x4b
EndSplineSet
EndChar

StartChar: onequarter
Encoding: 124 188 304
Width: 1771
VWidth: 0
Flags: W
HStem: 0 21G<325 562.467 1413 1587.12> 163 141<1213 1411 1589 1710> 584 166<94 244 460 606> 1446 0G<259.545 460 1366.39 1594>
VStem: 244 216<750 1269> 325 223<0 223> 1381 213<1233 1446> 1411 178<0 163 304 622>
DStem2: 325 0 548 0 0.589765 0.807575<131.517 1790.55>
LayerCount: 2
Fore
SplineSet
301 1466 m 1xf8
 460 1466 l 1
 460 750 l 1
 606 750 l 1
 606 584 l 1
 94 584 l 1
 94 750 l 1
 244 750 l 1
 244 1269 l 1
 73 1193 l 1
 73 1356 l 1
 301 1466 l 1xf8
325 0 m 1xf6
 1381 1446 l 1
 1594 1446 l 1
 548 0 l 1
 325 0 l 1xf6
1411 622 m 1xf1
 1213 304 l 1
 1411 304 l 1
 1411 622 l 1xf1
1588 163 m 1
 1587 0 l 1
 1413 0 l 1
 1413 163 l 1
 1005 163 l 1
 1005 319 l 1
 1395 854 l 1
 1589 854 l 1
 1589 304 l 1
 1710 304 l 1
 1710 163 l 1
 1588 163 l 1
EndSplineSet
EndChar

StartChar: uni00B9
Encoding: 121 185 305
Width: 790
VWidth: 0
Flags: W
HStem: 584 166<156 306 522 668> 1446 20G<321.545 522>
VStem: 306 216<750 1269>
LayerCount: 2
Fore
SplineSet
363 1466 m 1
 522 1466 l 1
 522 750 l 1
 668 750 l 1
 668 584 l 1
 156 584 l 1
 156 750 l 1
 306 750 l 1
 306 1269 l 1
 135 1193 l 1
 135 1356 l 1
 363 1466 l 1
EndSplineSet
EndChar

StartChar: ordfeminine
Encoding: 106 170 306
Width: 740
VWidth: 0
Flags: W
HStem: 503 124<105 671> 725 133<235.806 442.638> 1076 109<300.137 493> 1354 134<126.582 471.212>
VStem: 57 169<865.98 1016.21> 493 179<904.082 1076 1179.73 1330.27> 531 141<736 792.692>
LayerCount: 2
Fore
SplineSet
493 1185 m 1xfc
 493 1222 l 2
 493 1320 452 1354 372 1354 c 0
 309 1354 220 1333 111 1306 c 1
 75 1427 l 1
 173 1461 289 1488 392 1488 c 0
 545 1488 672 1429 672 1247 c 2xfc
 672 736 l 1
 531 736 l 1xfa
 509 823 l 1
 465 765 361 725 282 725 c 0
 163 725 57 793 57 934 c 0
 57 1151 327 1162 493 1185 c 1xfc
493 1076 m 1
 315 1051 226 1025 226 941 c 0
 226 888 260 858 300 858 c 0
 351 858 429 879 493 937 c 1
 493 1076 l 1
105 503 m 1
 105 627 l 1
 671 627 l 1
 671 503 l 1
 105 503 l 1
EndSplineSet
EndChar

StartChar: ordmasculine
Encoding: 122 186 307
Width: 854
VWidth: 0
Flags: W
HStem: 717 168<304.876 559.748> 1319 167<306.433 559.439>
VStem: 48 193<948.111 1250.68> 623 191<945.227 1256.09>
LayerCount: 2
Fore
SplineSet
814 1101 m 0
 814 876 670 717 434 717 c 0
 190 717 48 873 48 1104 c 0
 48 1331 196 1486 433 1486 c 0
 673 1486 814 1329 814 1101 c 0
241 1113 m 1
 241 1103 l 2
 241 971 297 885 434 885 c 0
 567 885 623 972 623 1099 c 0
 623 1231 566 1319 430 1319 c 0
 300 1319 244 1232 241 1113 c 1
EndSplineSet
EndChar

StartChar: oslash
Encoding: 184 248 308
Width: 1190
VWidth: 0
Flags: W
HStem: -13 191<489.867 735.339> 927 191<459.731 713.655>
VStem: 64 272<315.859 784.308> 859 272<322.503 787.974>
DStem2: 802 1089 870 1062 0.466183 0.884688<7.81386 183.925>
LayerCount: 2
Fore
SplineSet
488 202 m 1
 520 186 556 178 597 178 c 0
 763 178 859 311 859 552 c 0
 859 688 829 789 775 851 c 1
 488 202 l 1
429 245 m 1
 716 899 l 1
 682 918 642 927 597 927 c 0
 433 927 336 798 336 552 c 0
 336 411 368 307 429 245 c 1
304 -208 m 1
 245 -175 l 1
 337 39 l 1
 157 126 64 313 64 551 c 0
 64 890 247 1118 600 1118 c 0
 675 1118 742 1108 802 1089 c 1
 891 1250 l 1
 958 1229 l 1
 870 1062 l 1
 1042 974 1131 791 1131 553 c 0
 1131 221 948 -13 595 -13 c 0
 524 -13 459 -4 402 14 c 1
 304 -208 l 1
EndSplineSet
EndChar

StartChar: p
Encoding: 81 112 310
Width: 1275
Flags: W
PickledData: "(dp1
S'com.typemytype.robofont.layerData'
p2
(dp3
S'back'
p4
(dp5
S'name'
p6
S'p'
sS'lib'
p7
(dp8
sS'unicodes'
p9
(tsS'width'
p10
I1244
sS'contours'
p11
((dp12
S'points'
p13
((dp14
S'segmentType'
p15
S'line'
p16
sS'x'
F388
sS'smooth'
p17
I00
sS'y'
F1063
s(dp18
g15
S'line'
p19
sS'x'
F388
sg17
I00
sS'y'
F0
s(dp20
g15
S'line'
p21
sS'x'
F105
sg17
I00
sS'y'
F0
s(dp22
g15
S'line'
p23
sS'x'
F105
sg17
I00
sS'y'
F1063
stp24
stp25
sS'components'
p26
(tsS'anchors'
p27
(tsss."
HStem: -451 21G<130 424> -20 219<546.664 796.277> 911 217.531<570.041 798.367> 1080 20G<130 386.706>
VStem: 130 294<-437 123.827 321.309 797.336> 906 292<324.304 792.732>
LayerCount: 2
Back
SplineSet
424 1100 m 5
 424 0 l 5
 130 0 l 5
 130 1100 l 5
 424 1100 l 5
EndSplineSet
Fore
SplineSet
769.957 1128.53 m 0xec
 1033.21 1128.53 1198 874.806 1198 559 c 0
 1198 223 1027 -20 739 -20 c 0
 597.431 -20 487.924 39.6633 416 127 c 1
 422 59 424 11 424 -18 c 2
 424 -437 l 1
 130 -451 l 1
 130 1100 l 5
 382 1100 l 5xdc
 414 964 l 1
 463.221 1043.3 615.123 1128.53 769.957 1128.53 c 0xec
667 911 m 0xec
 526 911 424 824 422 576 c 1
 422 300 520 199 673 199 c 0
 807 199 906 309 906 560 c 0
 906 819 803 911 667 911 c 0xec
EndSplineSet
EndChar

StartChar: paragraph
Encoding: 118 182 311
Width: 1245
VWidth: 0
Flags: W
HStem: 1277 184<644 791 974 1059>
VStem: 100 544<940.193 1274.04> 428 216<-147 765.362> 791 183<-148 1277>
LayerCount: 2
Fore
SplineSet
644 -148 m 1xb0
 428 -147 l 1
 428 760 l 1xb0
 225 781 100 925 100 1121 c 0xd0
 100 1399 365 1461 656 1461 c 2
 1059 1461 l 1
 1059 1277 l 1
 974 1277 l 1
 974 -148 l 1
 791 -148 l 1
 791 1277 l 1
 644 1277 l 1
 644 -148 l 1xb0
EndSplineSet
EndChar

StartChar: parenleft
Encoding: 9 40 312
Width: 663
Flags: W
VStem: 89 275<261.804 937.281> 375 261<-277 -16 1228 1489>
LayerCount: 2
Fore
SplineSet
89 597 m 0
 89 958 207 1256 375 1489 c 1
 637 1489 l 1
 543 1360 364 968 364 598 c 0
 364 229 545 -154 636 -277 c 1
 375 -277 l 1
 206 -47 89 239 89 597 c 0
EndSplineSet
EndChar

StartChar: parenright
Encoding: 10 41 313
Width: 663
Flags: W
VStem: 28 261<-277 -16 1228 1489> 300 275<261.251 936.728>
LayerCount: 2
Fore
SplineSet
575 597 m 0
 575 238 457 -48 289 -277 c 1
 28 -277 l 1
 118 -154 300 228 300 598 c 0
 300 968 121 1360 27 1489 c 1
 289 1489 l 1
 457 1255 575 956 575 597 c 0
EndSplineSet
EndChar

StartChar: partialdiff
Encoding: 647 8706 314
Width: 1163
VWidth: 0
Flags: W
HStem: -44 20<401.372 591.097> 1038 20<501.062 576 577 584 585 671.779> 1329 20<493.539 637.811> 1543 20<492.471 694.072>
VStem: 57 20<330.693 554.58> 304 533<465.552 657.184> 1083 20<684.522 1019.33>
DStem2: 268 1437 247 1447 0.0740152 -0.997257<-4.25333 208.614>
LayerCount: 2
Fore
SplineSet
284 1229 m 1
 357 1282 447 1349 567 1349 c 0
 773 1349 848 1168 854 946 c 1
 855 922 l 1
 837 939 l 2
 778 996 694 1038 587 1038 c 2
 585 1038 l 1
 584 1037 l 1
 262 1032 77 750 77 439 c 0
 77 177 219 -24 495 -24 c 0
 595 -24 674 5 741 45 c 1
 752 28 l 1
 743 22 l 1
 676 -18 594 -44 495 -44 c 0
 205 -44 57 169 57 439 c 0
 57 753 245 1049 576 1057 c 1
 577 1058 l 1
 587 1058 l 2
 690 1058 772 1020 832 969 c 1
 821 1177 749 1329 567 1329 c 0
 460 1329 370 1268 304 1218 c 1
 266 1191 l 1
 247 1447 l 1
 272 1462 l 1
 349 1518 459 1563 591 1563 c 0
 993 1563 1103 1213 1103 854 c 0
 1103 542 1015 275 845 103 c 1
 831 117 l 1
 996 283 1083 545 1083 854 c 0
 1083 1211 974 1543 591 1543 c 0
 452 1543 356 1489 268 1437 c 1
 284 1229 l 1
837 663 m 1
 821 529 781 402 721 313 c 0
 671 239 604 171 501 171 c 0
 363 171 304 285 304 437 c 0
 304 645 414 844 608 844 c 0
 732 844 803 761 837 663 c 1
EndSplineSet
EndChar

StartChar: percent
Encoding: 6 37 315
Width: 1761
VWidth: 0
Flags: W
HStem: -17 173<1253.6 1473.45> 597 173<1239.39 1471.73> 660 173<289.927 513.613> 1279 173<293.58 513.27>
VStem: 38 197<889.413 1218.9> 276 238<-41 197> 573 209<893.66 1220.02> 984 211<213.324 553.333> 1531 196<214.048 535.842>
DStem2: 276 -41 514 -41 0.534143 0.845394<127.126 1762.04>
LayerCount: 2
Fore
SplineSet
403 833 m 0xbf80
 521 833 573 930 573 1057 c 0
 573 1186 522 1279 404 1279 c 0
 286 1279 235 1184 235 1055 c 0
 235 926 284 833 403 833 c 0xbf80
1215 1450 m 1
 1455 1450 l 1
 1453 1446 1453 1445 1451 1442 c 2
 514 -41 l 1
 276 -41 l 1
 1212 1446 l 2
 1214 1448 1215 1450 1215 1450 c 1
399 660 m 0
 167 660 38 833 38 1054 c 0
 38 1276 175 1452 405 1452 c 0
 648 1452 782 1280 782 1058 c 2
 782 1056 l 2
 782 836 634 660 399 660 c 0
984 374 m 1
 980 397 978 420 978 442 c 0
 978 639 1127 770 1351 770 c 0xdf80
 1603 770 1727 599 1727 378 c 0
 1727 160 1590 -17 1362 -17 c 0
 1124 -17 984 155 984 373 c 2
 984 374 l 1
1365 156 m 0
 1483 156 1531 252 1531 379 c 0
 1531 506 1479 597 1349 597 c 0
 1216 597 1195 501 1195 373 c 0
 1195 246 1246 156 1365 156 c 0
EndSplineSet
EndChar

StartChar: period
Encoding: 15 46 316
Width: 426
VWidth: 0
Flags: W
HStem: -20 321<110.658 325.188>
VStem: 57 321<32.0179 247.342>
LayerCount: 2
Fore
SplineSet
219 -20 m 0
 131 -20 57 51 57 139 c 0
 57 227 131 301 219 301 c 0
 305 301 378 227 378 139 c 0
 378 51 305 -20 219 -20 c 0
EndSplineSet
EndChar

StartChar: periodcentered
Encoding: 119 183 317
Width: 406
VWidth: 0
Flags: W
HStem: 463 270<70 336>
VStem: 70 266<463 733>
LayerCount: 2
Fore
SplineSet
336 733 m 1
 336 463 l 1
 70 463 l 1
 70 733 l 1
 336 733 l 1
EndSplineSet
EndChar

StartChar: periodcentered.001
Encoding: 65536 -1 318
Width: 471
VWidth: 0
Flags: W
HStem: 463 270<67 333>
VStem: 67 266<463 733>
LayerCount: 2
Fore
SplineSet
67 733 m 1
 333 733 l 1
 333 463 l 1
 67 463 l 1
 67 733 l 1
EndSplineSet
EndChar

StartChar: perthousand
Encoding: 639 8240 319
Width: 2336
VWidth: 0
Flags: W
HStem: -27 173<1067.55 1271.44 1814.24 2017.04> 542 174<1068.95 1271.98 1814.63 2015.53> 715 173<312.887 514.449> 1285 173<314.139 512.144>
VStem: 67 200<938.594 1235.67> 209 223<-25 198> 559 202<936.484 1235.67> 816 204<196.594 490.946> 1146 222<1230 1452> 1317 201<193.221 496.154> 1564 203<194.239 495.072> 2063 196<194.906 496.019>
DStem2: 209 -25 432 -25 0.535691 0.844414<119.459 1749.14>
LayerCount: 2
Fore
SplineSet
1518 342 m 1xd370
 1517 128 1385 -27 1167 -27 c 0
 942 -27 816 130 816 346 c 2
 816 347 l 1
 813 368 812 388 812 408 c 0
 812 596 946 716 1155 716 c 0
 1397 716 1518 560 1518 342 c 1xd370
761 1085 m 2
 761 1084 l 2
 761 871 628 715 410 715 c 0
 189 715 67 872 67 1088 c 0xbb30
 67 1301 195 1458 412 1458 c 0
 638 1458 761 1304 761 1085 c 2
1938 716 m 0xd330
 2150 716 2265 595 2265 417 c 0
 2265 394 2263 369 2259 344 c 1
 2259 343 l 2
 2259 129 2128 -27 1913 -27 c 0
 1690 -27 1564 131 1564 346 c 0
 1564 560 1703 716 1938 716 c 0xd330
1368 1452 m 1x97b0
 432 -25 l 1
 209 -25 l 1
 1146 1452 l 1
 1368 1452 l 1x97b0
1020 346 m 2
 1020 345 l 2
 1020 227 1067 146 1170 146 c 0
 1270 146 1317 229 1317 344 c 0
 1317 463 1273 542 1169 542 c 0xd370
 1068 542 1020 460 1020 346 c 2
1767 345 m 0
 1767 226 1813 146 1917 146 c 0
 2017 146 2063 230 2063 345 c 0
 2063 462 2018 542 1916 542 c 0
 1814 542 1767 460 1767 345 c 0
267 1114 m 1xbb30
 267 1089 l 2
 267 970 312 888 415 888 c 0
 513 888 559 972 559 1086 c 0
 559 1204 514 1285 411 1285 c 0
 319 1285 273 1214 267 1114 c 1xbb30
EndSplineSet
EndChar

StartChar: pi
Encoding: 490 960 320
Width: 1409
VWidth: 0
Flags: W
HStem: -7 212<1138.54 1288.91> 913 190<107.293 320 564 903 1129 1329>
VStem: 320 244<424 913> 900 229<212.823 910>
LayerCount: 2
Fore
SplineSet
1307 231 m 1
 1304 167 1289 7 1289 7 c 1
 1244 -1 1201 -7 1152 -7 c 0
 942 -7 900 140 900 315 c 2
 903 913 l 1
 564 913 l 1
 551 599 516 227 396 1 c 1
 160 1 l 1
 272 226 310 553 320 898 c 1
 320 920 l 1
 198 913 132 884 53 840 c 1
 24 1026 l 1
 124 1096 232 1103 411 1103 c 2
 1329 1103 l 1
 1329 910 l 1
 1129 910 l 1
 1129 324 l 2
 1129 237 1138 205 1194 205 c 0
 1232 205 1274 220 1307 231 c 1
EndSplineSet
EndChar

StartChar: plus
Encoding: 12 43 321
Width: 1198
Flags: W
HStem: 545 209<78 490 710 1122>
VStem: 491 219<144 545 754 1156>
LayerCount: 2
Fore
SplineSet
490 144 m 1
 490 545 l 1
 78 545 l 1
 78 754 l 1
 491 754 l 1
 491 1156 l 1
 710 1156 l 1
 710 754 l 1
 1122 754 l 1
 1122 545 l 1
 709 545 l 1
 709 144 l 1
 490 144 l 1
EndSplineSet
EndChar

StartChar: plusminus
Encoding: 113 177 322
Width: 1317
Flags: W
HStem: 0 188<184 1139> 632 208<184 552 772 1140>
VStem: 552 220<270 632 840 1192>
LayerCount: 2
Fore
SplineSet
552 270 m 1
 552 632 l 1
 184 632 l 1
 184 840 l 1
 552 840 l 1
 552 1192 l 1
 772 1192 l 1
 772 840 l 1
 1140 840 l 1
 1140 632 l 1
 772 632 l 1
 772 270 l 1
 552 270 l 1
1139 0 m 1
 184 0 l 1
 184 188 l 1
 1139 188 l 1
 1139 0 l 1
EndSplineSet
EndChar

StartChar: product
Encoding: 649 8719 323
Width: 1551
VWidth: 0
Flags: W
HStem: 1228 205<123 244 476 1096 1330 1439>
VStem: 244 232<-329 1228> 1096 234<-329 1228>
LayerCount: 2
Fore
SplineSet
101 1433 m 1
 1461 1433 l 1
 1439 1232 l 2
 1439 1228 l 1
 1330 1228 l 1
 1330 -329 l 1
 1096 -329 l 1
 1096 1228 l 1
 476 1228 l 1
 476 -329 l 1
 244 -329 l 1
 244 1228 l 1
 123 1228 l 1
 101 1433 l 1
EndSplineSet
EndChar

StartChar: q
Encoding: 82 113 324
Width: 1275
Flags: W
PickledData: "(dp1
S'com.typemytype.robofont.layerData'
p2
(dp3
S'back'
p4
(dp5
S'name'
p6
S'q'
sS'lib'
p7
(dp8
sS'unicodes'
p9
(tsS'width'
p10
I1240
sS'contours'
p11
((dp12
S'points'
p13
((dp14
S'segmentType'
p15
S'curve'
p16
sS'x'
F1139
sS'smooth'
p17
I00
sS'y'
F1063
s(dp18
g15
S'line'
p19
sS'x'
F1139
sg17
I00
sS'y'
F0
s(dp20
g15
S'line'
p21
sS'x'
F856
sg17
I00
sS'y'
F0
s(dp22
g15
S'line'
p23
sS'x'
F856
sg17
I00
sS'y'
F1063
s(dp24
S'y'
F1063
sS'x'
F856
sg17
I00
s(dp25
S'y'
F1063
sS'x'
F1139
sg17
I00
stp26
stp27
sS'components'
p28
(tsS'anchors'
p29
(tsss."
HStem: -451 21G<850 1145> -20 215<484.649 747.096> 909 219<478.945 739.482> 1080 20G<884.444 1145>
VStem: 77 291<324.776 783.871> 850 295<-436 144.474 291.998 808.722>
LayerCount: 2
Back
SplineSet
1144 1100 m 5
 1144 0 l 5
 850 0 l 5
 850 1100 l 5
 1144 1100 l 5
EndSplineSet
Fore
SplineSet
616 195 m 4xec
 761 195 860 282 863 537 c 5
 863 812 767 909 613 909 c 4
 478 909 368 816 368 554 c 4
 368 300 474 195 616 195 c 4xec
529 -20 m 4
 240 -20 77 224 77 560 c 4
 77 886 238 1128 536 1128 c 4xec
 738 1128 822.027 1035.69 864 965 c 5
 888 1100 l 5
 1145 1100 l 5xdc
 1145 -436 l 5
 850 -451 l 5
 850 7 l 6
 850 46 852 93 857 147 c 5
 814.217 84.0141 778 -20 529 -20 c 4
EndSplineSet
EndChar

StartChar: question
Encoding: 32 63 325
Width: 894
VWidth: 0
Flags: W
HStem: -20 321<267.658 482.188> 1279 199<198.122 544.529>
VStem: 214 321<32.0179 247.342> 607 224<957.19 1215.12>
LayerCount: 2
Fore
SplineSet
444 452 m 1
 325 452 l 1
 374 757 607 906 607 1089 c 0
 607 1200 535 1279 406 1279 c 0
 266 1279 183 1231 122 1193 c 1
 44 1369 l 1
 149 1434 251 1478 434 1478 c 0
 609 1478 831 1372 831 1130 c 0
 831 900 602 749 444 452 c 1
214 139 m 0
 214 227 288 301 376 301 c 0
 462 301 535 227 535 139 c 0
 535 51 462 -20 376 -20 c 0
 288 -20 214 51 214 139 c 0
EndSplineSet
EndChar

StartChar: quotedbl
Encoding: 3 34 327
Width: 808
Flags: W
HStem: 935 522<137 326 501 689>
VStem: 98 612
LayerCount: 2
Fore
SplineSet
98 1457 m 1
 346 1457 l 1
 326 935 l 1
 137 935 l 1
 98 1457 l 1
464 1457 m 1
 710 1457 l 1
 689 935 l 1
 501 935 l 1
 464 1457 l 1
EndSplineSet
EndChar

StartChar: quotedblbase
Encoding: 634 8222 328
Width: 1067
VWidth: 0
Flags: W
HStem: -288 499<541 615 917 991>
LayerCount: 2
Fore
SplineSet
169 -288 m 1
 286 211 l 1
 541 211 l 1
 360 -288 l 1
 169 -288 l 1
535 -288 m 1
 662 211 l 1
 908 211 l 1
 736 -288 l 1
 535 -288 l 1
EndSplineSet
EndChar

StartChar: quotedblleft
Encoding: 632 8220 329
Width: 714
VWidth: 0
Flags: W
HStem: 983 500<269 341 560 635>
VStem: 35 645
LayerCount: 2
Fore
SplineSet
493 983 m 1
 341 1483 l 1
 568 1483 l 1
 680 983 l 1
 493 983 l 1
202 983 m 1
 35 1483 l 1
 274 1483 l 1
 376 983 l 1
 202 983 l 1
EndSplineSet
EndChar

StartChar: quotedblright
Encoding: 633 8221 330
Width: 1005
VWidth: 0
Flags: W
HStem: 983 500<597 672 891 962>
VStem: 190 645
LayerCount: 2
Fore
SplineSet
190 983 m 1
 303 1483 l 1
 530 1483 l 1
 378 983 l 1
 190 983 l 1
495 983 m 1
 597 1483 l 1
 835 1483 l 1
 668 983 l 1
 495 983 l 1
EndSplineSet
EndChar

StartChar: quoteleft
Encoding: 629 8216 331
Width: 420
VWidth: 0
Flags: W
HStem: 983 500<201 272>
VStem: 35 351
LayerCount: 2
Fore
SplineSet
386 983 m 1
 201 983 l 1
 35 1483 l 1
 272 1483 l 1
 386 983 l 1
EndSplineSet
EndChar

StartChar: quoteright
Encoding: 630 8217 332
Width: 421
VWidth: 0
Flags: W
HStem: 983 500<149 220>
VStem: 36 351
LayerCount: 2
Fore
SplineSet
220 983 m 1
 36 983 l 1
 149 1483 l 1
 387 1483 l 1
 220 983 l 1
EndSplineSet
EndChar

StartChar: quotesinglbase
Encoding: 631 8218 333
Width: 575
VWidth: 0
Flags: W
HStem: -288 499<226 298>
VStem: 113 352
LayerCount: 2
Fore
SplineSet
113 -288 m 1
 226 211 l 1
 465 211 l 1
 298 -288 l 1
 113 -288 l 1
EndSplineSet
EndChar

StartChar: quotesingle
Encoding: 8 39 334
Width: 446
Flags: W
HStem: 913 544<137 311>
VStem: 98 233<1257.03 1457>
LayerCount: 2
Fore
SplineSet
98 1457 m 1
 331 1457 l 1
 311 913 l 1
 137 913 l 1
 98 1457 l 1
EndSplineSet
EndChar

StartChar: r
Encoding: 83 114 335
Width: 816
Flags: W
PickledData: "(dp1
S'com.typemytype.robofont.layerData'
p2
(dp3
S'back'
p4
(dp5
S'name'
p6
S'r'
sS'lib'
p7
(dp8
sS'unicodes'
p9
(tsS'width'
p10
I669
sS'contours'
p11
((dp12
S'points'
p13
((dp14
S'segmentType'
p15
S'curve'
p16
sS'x'
F385
sS'smooth'
p17
I00
sS'y'
F1063
s(dp18
g15
S'line'
p19
sS'x'
F385
sg17
I00
sS'y'
F0
s(dp20
g15
S'line'
p21
sS'x'
F102
sg17
I00
sS'y'
F0
s(dp22
g15
S'line'
p23
sS'x'
F102
sg17
I00
sS'y'
F1063
s(dp24
S'y'
F1063
sS'x'
F102
sg17
I00
s(dp25
S'y'
F1063
sS'x'
F385
sg17
I00
stp26
stp27
sS'components'
p28
(tsS'anchors'
p29
(tsss."
HStem: 0 21G<130 424> 868 250<551.953 786> 1080 20G<130 382.031>
VStem: 130 294<0 768.828>
LayerCount: 2
Back
SplineSet
424 1100 m 5
 424 0 l 5
 130 0 l 5
 130 1100 l 5
 424 1100 l 5
EndSplineSet
Fore
SplineSet
724 1118 m 0xd0
 749 1118 771 1117 790 1114 c 1
 786 863 l 1
 760 867 732 868 702 868 c 0xd0
 500 868 424 761 424 589 c 2
 424 0 l 1
 130 0 l 1
 130 1100 l 5
 377 1100 l 5xb0
 417 941 l 1
 486 1051 587 1118 724 1118 c 0xd0
EndSplineSet
EndChar

StartChar: radical
Encoding: 652 8730 337
Width: 1312
VWidth: 0
Flags: W
VStem: 1041 195<1411 1606>
DStem2: 419 865 283 662 0.361894 -0.932219<140.023 743.959> 669 164 768 -152 0.257252 0.966344<0 1489.17>
LayerCount: 2
Fore
SplineSet
679 200 m 1
 795 681 920 1137 1041 1606 c 1
 1236 1606 l 1
 768 -152 l 1
 599 -152 l 1
 283 662 l 1
 108 634 l 1
 79 804 l 1
 419 865 l 1
 646 238 l 1
 669 164 l 1
 679 200 l 1
EndSplineSet
EndChar

StartChar: registered
Encoding: 110 174 340
Width: 1705
VWidth: 0
Flags: W
HStem: -21 103<619.718 1091.4> 678 125<698 858.437> 1083 126<697 1012.43> 1374 104<619.718 1091.4>
VStem: 82 117<504.727 951.134> 545 153<261 678 803 1083> 1041 147<840.608 1054.64> 1512 117<504.727 951.134>
DStem2: 989 695 937 492 0.481773 -0.876296<1.37831 416.445>
LayerCount: 2
Fore
SplineSet
1629 728 m 0
 1629 310 1281 -21 856 -21 c 0
 428 -21 82 310 82 728 c 0
 82 1145 428 1478 856 1478 c 0
 1281 1478 1629 1145 1629 728 c 0
856 82 m 0
 1221 82 1512 371 1512 728 c 0
 1512 1085 1221 1374 856 1374 c 0
 490 1374 199 1085 199 728 c 0
 199 371 490 82 856 82 c 0
815 803 m 2
 953 803 1041 821 1041 950 c 0
 1041 1082 956 1083 806 1083 c 2
 697 1083 l 1
 697 803 l 1
 815 803 l 2
839 678 m 2
 698 678 l 1
 698 261 l 1
 545 261 l 1
 545 1209 l 1
 859 1209 l 2
 1049 1209 1188 1143 1188 950 c 0
 1188 801 1133 732 989 695 c 1
 1039 622 1162 401 1235 261 c 1
 1064 261 l 1
 937 492 l 1
 877 611 840 678 839 678 c 2
EndSplineSet
EndChar

StartChar: ring
Encoding: 426 730 341
Width: 671
VWidth: 0
Flags: W
HStem: 1125 99<243.559 422.595> 1446 95<244.061 422.301>
VStem: 104 119<1244.51 1424.93> 443 119<1243.74 1424.93>
LayerCount: 2
Fore
SplineSet
333 1224 m 0
 407 1224 443 1279 443 1335 c 0
 443 1390 406 1446 333 1446 c 0
 261 1446 223 1390 223 1335 c 0
 223 1279 260 1224 333 1224 c 0
333 1541 m 0
 487 1541 562 1439 562 1335 c 0
 562 1231 484 1125 333 1125 c 0
 182 1125 104 1231 104 1335 c 0
 104 1439 180 1541 333 1541 c 0
EndSplineSet
EndChar

StartChar: s
Encoding: 84 115 342
Width: 978
Flags: W
HStem: -18.5556 202.556<231.363 604.408> 924 204<379.095 737.327>
VStem: 86 277<762.265 901.284> 634 280<215.347 376.081>
LayerCount: 2
Back
SplineSet
914 334 m 4
 914 144 799 2 563 -15 c 4
 535 -17.6667 506.556 -18.5556 477.37 -18.5556 c 4
 307.75 -18.5556 178.558 7.81035 79 63 c 5
 108 279 l 5
 192 233 355 184 470 184 c 4
 570 184 634 222 634 298 c 4
 634 381 551 405 379 476 c 5
 185 554 86 632 86 814 c 4
 86 1029 248 1129 506 1129 c 4
 651 1129 775 1102 884 1047 c 5
 814 848 l 5
 730 888 617 924 512 924 c 4
 422 924 363 899 363 834 c 4
 363 758 443 736 625 667 c 4
 808 597 914 505 914 334 c 4
EndSplineSet
Fore
SplineSet
914 334 m 0
 914 109.754 760.011 -18.5556 477.37 -18.5556 c 0
 307.75 -18.5556 178.558 7.81035 79 63 c 1
 108 279 l 1
 192 233 355 184 470 184 c 0
 570 184 634 222 634 298 c 0
 634 381 551 405 379 476 c 1
 185 554 86 632 86 814 c 0
 86 1029 248 1128 506 1128 c 4
 651 1128 775 1102 884 1047 c 1
 814 848 l 1
 730 888 617 924 512 924 c 0
 422 924 363 899 363 834 c 0
 363 758 443 736 625 667 c 0
 808 597 914 505 914 334 c 0
EndSplineSet
EndChar

StartChar: scommaaccent
Encoding: -1 537 347
Width: 1016
VWidth: 0
Flags: W
LayerCount: 2
Fore
SplineSet
513 -625 m 1
 326 -625 l 1
 444 -102 l 1
 697 -102 l 1
 513 -625 l 1
328 753 m 0
 328 658 486 632 609 592 c 0
 749 547 923 481 923 278 c 0
 923 51 704 -48 484 -48 c 0
 319 -48 195 -11 108 82 c 1
 164 293 l 1
 200 249 l 1
 256 184 354 143 491 143 c 0
 616 143 704 181 704 271 c 0
 704 320 676 345 629 367 c 0
 455 451 108 456 108 755 c 0
 108 963 301 1055 497 1055 c 0
 638 1055 758 1037 845 973 c 1
 862 959 l 1
 805 777 l 1
 771 798 l 1
 710 839 620 861 506 861 c 0
 403 861 328 822 328 753 c 0
EndSplineSet
EndChar

StartChar: section
Encoding: 103 167 348
Width: 1040
Flags: W
HStem: -31 195<224.989 624.261> 1345 196<418.702 803.249>
VStem: 130 234<711.376 891.889> 147 253<1170.09 1319.75> 695 230<623.641 805.941>
LayerCount: 2
Fore
SplineSet
130 769 m 0xe8
 130 880 191 964 266 1015 c 1
 191 1069 147 1144 147 1246 c 0
 147 1447 334 1541 563 1541 c 0
 668 1541 777 1520 884 1480 c 1
 844 1284 l 1
 770 1316 662 1345 559 1345 c 0
 461 1345 400 1319 400 1248 c 0xd8
 400 1184 467 1143 589 1093 c 0
 773 1018 925 927 925 759 c 0
 925 642 869 560 795 507 c 1
 868 456 914 388 914 286 c 0
 914 72 725 -31 481 -31 c 0
 353 -31 232 -6 136 39 c 1
 136 242 l 1
 226 201 368 164 468 164 c 0
 562 164 633 186 648 245 c 1
 655 262 654 281 647 301 c 1
 633 354 582 377 472 426 c 1
 270 508 130 593 130 769 c 0xe8
364 798 m 0xe8
 364 711 482 644 614 593 c 1
 670 631 695 673 695 719 c 0
 695 807 583 868 446 921 c 1
 395 893 364 846 364 798 c 0xe8
EndSplineSet
EndChar

StartChar: semicolon
Encoding: 28 59 349
Width: 425
VWidth: 0
Flags: W
HStem: 823 276<108 392>
VStem: 108 284<823 1099>
LayerCount: 2
Fore
SplineSet
108 823 m 1
 108 1099 l 1
 392 1099 l 1
 392 823 l 1
 108 823 l 1
393 262 m 1
 269 -326 l 1
 97 -326 l 1
 152 262 l 1
 393 262 l 1
EndSplineSet
EndChar

StartChar: seven
Encoding: 24 55 350
Width: 1031
VWidth: 0
Flags: W
HStem: -1 21G<217 520.819> 1230 216<54 686>
DStem2: 217 -1 513 -1 0.364126 0.93135<107.781 1317.27>
LayerCount: 2
Fore
SplineSet
217 -1 m 1
 686 1230 l 1
 54 1230 l 1
 54 1446 l 1
 1015 1446 l 1
 1015 1283 l 1
 513 -1 l 1
 217 -1 l 1
EndSplineSet
EndChar

StartChar: six
Encoding: 23 54 351
Width: 1207
VWidth: 0
Flags: W
HStem: -20 215<444.521 763.776> 717 201<588.236 777.266> 1425 20G<633.855 1010>
VStem: 52 296<291.728 619.885> 649 361<1084 1445> 873 302<301.953 619.304>
DStem2: 231 893 585 907 0.603691 0.797219<224.868 692.407>
LayerCount: 2
Fore
SplineSet
649 1445 m 1xf8
 1010 1445 l 1xf8
 585 907 l 1
 619 914 634 918 670 918 c 0
 967 918 1175 734 1175 459 c 0xf4
 1175 164 932 -20 617 -20 c 0
 292 -20 52 160 52 460 c 0
 52 644 149 780 231 893 c 1
 649 1445 l 1xf8
873 455 m 0xf4
 873 617 792 717 607 717 c 0
 421 717 348 611 348 450 c 0
 348 294 438 195 603 195 c 0
 774 195 873 298 873 455 c 0xf4
EndSplineSet
EndChar

StartChar: slash
Encoding: 16 47 352
Width: 948
VWidth: 0
Flags: W
DStem2: 53 -179 289 -179 0.341518 0.939875<80.5982 1781.51>
LayerCount: 2
Fore
SplineSet
289 -179 m 1
 53 -179 l 1
 657 1497 l 1
 898 1497 l 1
 289 -179 l 1
EndSplineSet
EndChar

StartChar: sterling
Encoding: 99 163 354
Width: 1155
Flags: W
HStem: 0 233<412 1107> 652 194<61 246 521 906> 1252 229<583.666 893.711>
VStem: 246 275<313.796 651 846 1183.73>
LayerCount: 2
Fore
SplineSet
705 1481 m 0
 866 1481 996 1425 1100 1338 c 1
 988 1153 l 1
 900 1209 820 1252 718 1252 c 0
 581 1252 521 1167 521 1025 c 2
 521 846 l 1
 906 846 l 1
 906 652 l 1
 521 652 l 1
 521 505 l 2
 521 390 486 299 412 233 c 1
 1117 233 l 1
 1107 0 l 1
 81 0 l 1
 64 207 l 1
 196 264 246 321 246 475 c 2
 246 651 l 1
 61 651 l 1
 61 846 l 1
 246 846 l 1
 246 954 l 2
 246 994 248 1033 251 1070 c 0
 269 1330 425 1481 705 1481 c 0
EndSplineSet
EndChar

StartChar: summation
Encoding: 650 8721 355
Width: 1263
VWidth: 0
Flags: W
HStem: -329 208<374 1231> 1231 202<403 1187>
DStem2: 52 -202 374 -121 0.625822 0.779966<264.692 973.12> 403 1231 73 1301 0.620054 -0.784559<0 688.767>
LayerCount: 2
Fore
SplineSet
1231 -121 m 1
 1231 -329 l 1
 52 -329 l 1
 52 -202 l 1
 661 557 l 1
 73 1301 l 1
 73 1433 l 1
 1187 1433 l 1
 1187 1231 l 1
 403 1231 l 1
 924 565 l 1
 374 -121 l 1
 1231 -121 l 1
EndSplineSet
EndChar

StartChar: t
Encoding: 85 116 356
Width: 824
VWidth: 0
Flags: W
PickledData: "(dp1
S'com.typemytype.robofont.layerData'
p2
(dp3
S'back'
p4
(dp5
S'name'
p6
S't'
sS'lib'
p7
(dp8
sS'unicodes'
p9
(tsS'width'
p10
I773
sS'contours'
p11
((dp12
S'points'
p13
((dp14
S'segmentType'
p15
S'curve'
p16
sS'x'
F439
sS'smooth'
p17
I00
sS'y'
F1063
s(dp18
g15
S'line'
p19
sS'x'
F439
sg17
I00
sS'y'
F0
s(dp20
g15
S'line'
p21
sS'x'
F156
sg17
I00
sS'y'
F0
s(dp22
g15
S'line'
p23
sS'x'
F156
sg17
I00
sS'y'
F1063
s(dp24
S'y'
F1063
sS'x'
F156
sg17
I00
s(dp25
S'y'
F1063
sS'x'
F439
sg17
I00
stp26
stp27
sS'components'
p28
(tsS'anchors'
p29
(tsss."
HStem: -13 184<524.845 756.408> 892 171<26 194 488 750>
VStem: 194 294<209.414 892>
LayerCount: 2
Back
SplineSet
488 892 m 5
 488 440 l 6
 488 259 501.5 171 624 171 c 4
 631 171 756 180 756 180 c 5
 769 1 l 5
 769 1 655 -13 600 -13 c 4
 271 -13 194 145 194 456 c 6
 194 892 l 5
 9 892 l 5
 26 1063 l 5
 214 1063 l 5
 311 1354 l 5
 488 1354 l 5
 488 1063 l 5
 750 1063 l 5
 750 892 l 5
 488 892 l 5
EndSplineSet
Fore
SplineSet
488 892 m 1
 488 440 l 2
 488 259 501.5 171 624 171 c 0
 631 171 756 180 756 180 c 1
 769 1 l 1
 769 1 655 -13 600 -13 c 0
 271 -13 194 145 194 456 c 2
 194 892 l 1
 9 892 l 1
 26 1063 l 1
 214 1063 l 1
 311 1354 l 1
 488 1354 l 1
 488 1063 l 1
 750 1063 l 1
 750 892 l 1
 488 892 l 1
EndSplineSet
EndChar

StartChar: thorn
Encoding: 190 254 359
Width: 1316
VWidth: 0
Flags: W
PickledData: "(dp1
S'com.typemytype.robofont.layerData'
p2
(dp3
S'back'
p4
(dp5
S'name'
p6
S'thorn'
p7
sS'lib'
p8
(dp9
sS'unicodes'
p10
(tsS'width'
p11
I1298
sS'contours'
p12
(tsS'components'
p13
(tsS'anchors'
p14
(tsss."
HStem: -422 21G<172 416> -17 214<540.768 872.538> 851 204<540.242 871.304>
VStem: 172 244<-422 103 328.001 719.564 940 1494> 991 250<323.659 723.89>
LayerCount: 2
Fore
SplineSet
416 103 m 1
 416 -422 l 1
 172 -422 l 1
 172 1202 l 2
 172 1289 165 1494 165 1494 c 1
 416 1494 l 1
 416 940 l 1
 416 940 538 1055 734 1055 c 0
 1081 1055 1241 808 1241 508 c 0
 1241 217 1090 -17 754 -17 c 0
 529 -17 416 103 416 103 c 1
717 197 m 0
 914 197 991 339 991 524 c 0
 991 709 913 851 717 851 c 0
 503 851 415 719 415 524 c 0
 415 328 504 197 717 197 c 0
EndSplineSet
EndChar

StartChar: three
Encoding: 20 51 360
Width: 1069
VWidth: 0
Flags: W
HStem: -20 226<234.58 628.103> 644 220<269 602.621> 1252 226<220.666 611.781>
VStem: 694 275<943.038 1171.43> 715 297<286.72 550.856>
LayerCount: 2
Fore
SplineSet
1012 406 m 1xe8
 1012 394 l 2
 1012 117 772 -20 481 -20 c 0
 316 -20 148 22 49 106 c 1
 126 309 l 1
 199 248 350 206 482 206 c 0
 622 206 715 294 715 411 c 0xe8
 715 610 565 640 327 644 c 1
 269 644 l 1
 269 864 l 1
 327 864 l 2
 541 864 694 899 694 1058 c 0
 694 1144 618 1252 460 1252 c 0
 329 1252 213 1214 125 1162 c 1
 48 1367 l 1
 167 1436 299 1478 480 1478 c 0
 777 1478 969 1305 969 1078 c 0xf0
 969 930 892 813 737 761 c 1
 913 716 1008 583 1012 406 c 1xe8
EndSplineSet
EndChar

StartChar: threequarters
Encoding: 126 190 361
Width: 1701
VWidth: 0
Flags: W
HStem: 0 21G<262 502.398 1340 1514.12> 172 141<1140 1338 1516 1637> 617 146<145.634 458.462> 990 138<217 442.998> 1298 144<145.656 447.914>
VStem: 262 226<0 226> 457 188<1147.65 1284> 482 181<788.314 962.619> 1316 213<1233 1446> 1338 178<0 172 313 646>
DStem2: 262 0 488 0 0.589035 0.808107<133.122 1789.37>
LayerCount: 2
Back
SplineSet
730 1205 m 5xfa
 727 1128 697 1074 653 1036 c 5
 710 992 748 936 748 848 c 4
 748 679 602 585 434 585 c 4
 323 585 238 630 179 692 c 5
 163 708 l 5
 252 856 l 5
 279 830 l 6
 329 782 379 760 431 760 c 4
 515 760 567 794 567 854 c 4xf6
 567 925 504 946 393 946 c 4
 388 946 377 945 365 945 c 6
 310 945 l 5
 310 1124 l 5
 387 1124 l 6
 488 1124 544 1143 544 1202 c 4
 544 1251 511 1272 440 1272 c 4
 372 1272 322 1239 277 1200 c 5
 249 1178 l 5
 165 1324 l 5
 180 1340 l 5
 237 1399 331 1451 442 1451 c 4
 598 1451 730 1363 730 1207 c 6
 730 1205 l 5xfa
EndSplineSet
Fore
SplineSet
457 1217 m 0xfa
 457 1262 423 1298 342 1298 c 0
 266 1298 172 1272 133 1247 c 1
 67 1355 l 1
 140 1409 254 1442 360 1442 c 0
 509 1442 645 1381 645 1223 c 2
 645 1221 l 1xfa
 642 1153 602 1105 518 1071 c 1
 594 1046 663 968 663 878 c 0
 663 702 513 617 346 617 c 0
 255 617 159 642 79 692 c 1
 126 820 l 1
 172 783 270 763 337 763 c 0
 427 763 482 799 482 884 c 0xf9
 482 959 417 991 303 991 c 1
 217 990 l 1
 217 1128 l 1
 307 1128 l 2
 423 1128 457 1170 457 1217 c 0xfa
1338 646 m 1xf840
 1140 313 l 1
 1338 313 l 1
 1338 646 l 1xf840
1515 172 m 1
 1514 0 l 1
 1340 0 l 1
 1340 172 l 1
 932 172 l 1
 932 328 l 1
 1322 884 l 1
 1516 884 l 1
 1516 313 l 1
 1637 313 l 1
 1637 172 l 1
 1515 172 l 1
262 0 m 1xfc80
 1316 1446 l 1
 1529 1446 l 1
 488 0 l 1
 262 0 l 1xfc80
EndSplineSet
EndChar

StartChar: uni00B3
Encoding: 115 179 362
Width: 815
VWidth: 0
Flags: W
HStem: 593 146<197.024 496.387> 990 138<260 486.451> 1298 144<189.528 487.65>
VStem: 500 188<1147.62 1283.92> 525 181<767.071 960.265>
LayerCount: 2
Fore
SplineSet
500 1216 m 0xf0
 500 1261 466 1298 385 1298 c 0
 309 1298 216 1272 177 1247 c 1
 111 1354 l 1
 184 1408 297 1442 403 1442 c 0
 552 1442 688 1381 688 1223 c 2
 688 1221 l 1xf0
 685 1153 645 1105 561 1071 c 1
 637 1045 706 963 706 868 c 0
 706 683 557 593 390 593 c 0
 299 593 202 618 122 668 c 1
 169 802 l 1
 215 762 313 739 380 739 c 0
 470 739 525 780 525 873 c 0xe8
 525 955 460 991 346 991 c 1
 260 990 l 1
 260 1128 l 1
 350 1128 l 2
 466 1128 500 1169 500 1216 c 0xf0
EndSplineSet
EndChar

StartChar: tilde
Encoding: 428 732 363
Width: 753
VWidth: 0
Flags: W
HStem: 1209 165<379.824 567.976> 1297 158<184.856 362.13>
VStem: 23 156<1209 1294.79> 572 159<1377.34 1455>
LayerCount: 2
Fore
SplineSet
525 1374 m 0xb0
 556 1374 572 1399 572 1455 c 1
 731 1455 l 1x70
 731 1374 731 1209 559 1209 c 0xb0
 444 1209 260 1297 228 1297 c 0x70
 194 1297 179 1272 179 1209 c 1
 23 1209 l 1xb0
 23 1297 23 1455 195 1455 c 0x70
 331 1455 469 1374 525 1374 c 0xb0
EndSplineSet
EndChar

StartChar: trademark
Encoding: 646 8482 364
Width: 1825
VWidth: 0
Flags: W
HStem: 686 775<313 497 785 967 1473 1649> 1300 161<64 313 497 737>
VStem: 313 184<686 1300> 785 182<686 1163> 1473 176<686 1171>
DStem2: 1021 1461 967 1163 0.369804 -0.92911<256.905 543.531> 1222 956 1270 686 0.383966 0.923347<0 294.895>
LayerCount: 2
Fore
SplineSet
785 1461 m 1xb8
 1021 1461 l 1
 1222 956 l 1
 1432 1461 l 1x78
 1649 1461 l 1
 1649 686 l 1
 1473 686 l 1
 1473 1171 l 1
 1270 686 l 1
 1159 686 l 1
 967 1163 l 1
 967 686 l 1
 785 686 l 1
 785 1461 l 1xb8
63 1461 m 1
 737 1461 l 1
 737 1300 l 1
 497 1300 l 1x78
 497 686 l 1
 313 686 l 1xb8
 313 1300 l 1
 64 1300 l 1
 63 1461 l 1
EndSplineSet
EndChar

StartChar: two
Encoding: 19 50 365
Width: 1033
VWidth: 0
Flags: W
HStem: 0 211<389 925> 1122 21G<125.394 168> 1252 226<266.912 575.862>
VStem: 666 294<869.502 1164.38>
DStem2: 55 233 389 211 0.682692 0.730706<211.944 916.335>
LayerCount: 2
Fore
SplineSet
133 1122 m 1
 52 1335 l 1
 160 1429 280 1478 461 1478 c 0
 742 1478 960 1320 960 1040 c 0
 960 813 796 629 678 507 c 2
 389 211 l 1
 945 211 l 1
 925 0 l 1
 55 0 l 1
 55 233 l 1
 510 720 l 2
 596 811 666 910 666 1041 c 0
 666 1156 565 1252 445 1252 c 0
 315 1252 203 1181 133 1122 c 1
EndSplineSet
EndChar

StartChar: uni00B2
Encoding: 114 178 366
Width: 858
VWidth: 0
Flags: W
HStem: 548 146<415 709> 1236 165<267.116 512.188>
VStem: 546 181<993.653 1201.6>
LayerCount: 2
Fore
SplineSet
134 1265 m 2
 197 1347 301 1401 433 1401 c 0
 586 1401 727 1293 727 1116 c 0
 727 924 599 841 415 694 c 1
 730 694 l 1
 709 548 l 1
 150 548 l 1
 150 698 l 1
 152 699 l 2
 335 842 546 961 546 1111 c 0
 546 1193 470 1236 405 1236 c 0
 335 1236 247 1193 200 1136 c 2
 196 1131 l 1
 195 1133 194 1135 193 1137 c 2
 132 1263 l 1
 134 1265 l 2
EndSplineSet
EndChar

StartChar: u
Encoding: 86 117 367
Width: 1138
VWidth: 0
Flags: W
PickledData: "(dp1
S'com.typemytype.robofont.layerData'
p2
(dp3
S'back'
p4
(dp5
S'name'
p6
S'u'
sS'lib'
p7
(dp8
sS'unicodes'
p9
(tsS'width'
p10
I1154
sS'contours'
p11
((dp12
S'points'
p13
((dp14
S'segmentType'
p15
S'curve'
p16
sS'x'
F1062
sS'smooth'
p17
I00
sS'y'
F1063
s(dp18
g15
S'line'
p19
sS'x'
F1062
sg17
I00
sS'y'
F0
s(dp20
g15
S'line'
p21
sS'x'
F779
sg17
I00
sS'y'
F0
s(dp22
g15
S'line'
p23
sS'x'
F779
sg17
I00
sS'y'
F1063
s(dp24
S'y'
F1063
sS'x'
F779
sg17
I00
s(dp25
S'y'
F1063
sS'x'
F1062
sg17
I00
stp26
stp27
sS'components'
p28
(tsS'anchors'
p29
(tsss."
HStem: -20 191<428.459 707.769> 1080 20G<83 377 760 1054>
VStem: 83 294<222.565 1100> 760 294<226 1100>
LayerCount: 2
Back
SplineSet
1054 1100 m 5
 1054 0 l 5
 760 0 l 5
 760 1100 l 5
 1054 1100 l 5
EndSplineSet
Fore
SplineSet
83 399 m 2
 83 1100 l 1
 377 1100 l 1
 377 398 l 2
 377 242 425 171 568 171 c 0
 710 171 760 242 760 398 c 2
 760 1100 l 1
 1054 1100 l 5
 1054 399 l 6
 1054 115 854 -20 568 -20 c 0
 283 -20 83 112 83 399 c 2
EndSplineSet
EndChar

StartChar: underscore
Encoding: 64 95 375
Width: 1178
VWidth: 0
Flags: W
HStem: -323 188<72 1110>
LayerCount: 2
Fore
SplineSet
1110 -135 m 1
 1110 -323 l 1
 72 -323 l 1
 72 -135 l 1
 1110 -135 l 1
EndSplineSet
EndChar

StartChar: macron
Encoding: 111 175 377
Width: 862
Flags: W
HStem: 1335 163<98 777>
VStem: 98 679<1335 1498>
LayerCount: 2
Fore
SplineSet
777 1498 m 1
 777 1335 l 1
 98 1335 l 1
 98 1498 l 1
 777 1498 l 1
EndSplineSet
EndChar

StartChar: uni018F
Encoding: 318 399 379
Width: 1461
VWidth: 0
Flags: W
HStem: -20 231<508.189 835.702> 583 208<349 1040> 1243 235<330.72 812.967>
VStem: 1040 315<454.815 583 791 1009.35>
LayerCount: 2
Fore
SplineSet
1040 583 m 1
 349 583 l 1
 367 346 478 211 662 211 c 0
 881 211 1003 365 1040 583 c 1
649 -20 m 0
 306 -20 74 199 74 791 c 1
 1051 791 l 1
 1029 1092 858 1243 594 1243 c 0
 436 1243 304 1199 203 1142 c 1
 113 1337 l 1
 241 1437 405 1478 605 1478 c 0
 1082 1478 1355 1154 1355 733 c 0
 1355 269 1059 -20 649 -20 c 0
EndSplineSet
EndChar

StartChar: uni0259
Encoding: 420 601 423
Width: 1123
VWidth: 0
Flags: W
HStem: -20 208<412.119 676.054> 473 152<321 790> 934 204<269.021 661.358>
VStem: 64 257<287.5 473> 790 282<319.729 473 625 799.656>
LayerCount: 2
Fore
SplineSet
790 473 m 1
 321 473 l 1
 321 290 400 188 540 188 c 0
 635 188 775 247 790 473 c 1
495 1138 m 0
 869 1138 1072 914 1072 560 c 0
 1072 236 878 -20 543 -20 c 0
 215 -20 64 241 64 534 c 0
 64 561 66 597 66 625 c 1
 793 625 l 1
 787 832 676 934 486 934 c 0
 351 934 239 885 174 834 c 1
 95 1013 l 1
 189 1084 312 1138 495 1138 c 0
EndSplineSet
EndChar

StartChar: afii57929
Encoding: 421 700 424
Width: 347
VWidth: 0
Flags: W
HStem: 937 516<101 251>
VStem: 101 150<937 1131.67>
LayerCount: 2
Fore
SplineSet
251 937 m 1
 101 937 l 1
 63 1453 l 1
 282 1453 l 1
 251 937 l 1
EndSplineSet
EndChar

StartChar: uni030F
Encoding: 431 783 425
Width: 1024
VWidth: 0
Flags: W
HStem: 1176 340
LayerCount: 2
Fore
SplineSet
301 1176 m 1
 -35 1516 l 1
 281 1516 l 1
 495 1176 l 1
 301 1176 l 1
697 1176 m 1
 384 1516 l 1
 677 1516 l 1
 914 1176 l 1
 697 1176 l 1
EndSplineSet
EndChar

StartChar: uni0311
Encoding: 432 785 426
Width: 695
VWidth: 0
Flags: W
HStem: 1287 168<225.569 460.431>
VStem: 39 184<1206 1273.47> 463 184<1206 1273.24>
LayerCount: 2
Fore
SplineSet
463 1206 m 1
 463 1233 l 2
 463 1264 424 1287 343 1287 c 0
 262 1287 223 1264 223 1233 c 2
 223 1206 l 1
 39 1206 l 1
 39 1235 l 2
 39 1378 180 1455 343 1455 c 0
 506 1455 647 1377 647 1235 c 2
 647 1206 l 1
 463 1206 l 1
EndSplineSet
EndChar

StartChar: uni0326
Encoding: 433 806 427
Width: 563
VWidth: 0
Flags: W
HStem: -675 523<182 251>
VStem: 67 359
LayerCount: 2
Fore
SplineSet
67 -675 m 1
 182 -152 l 1
 426 -152 l 1
 251 -675 l 1
 67 -675 l 1
EndSplineSet
EndChar

StartChar: afii10058
Encoding: 514 1033 435
Width: 1894
VWidth: 0
Flags: W
HStem: -18 203<67 288.96> 6 227<1180 1572.57> 663 218<1180 1574.18> 1223 217<602 888>
VStem: 334 268<600.18 1223> 336 284<233.016 1063.82> 888 266<881 1223> 930 250<233 421.403> 1695 242<330.105 567.542>
LayerCount: 2
Fore
SplineSet
1154 1440 m 1xba80
 1154 881 l 1xba80
 1305 881 l 2
 1643 881 1937 760 1937 442 c 0
 1937 129 1665 6 1312 6 c 2
 930 6 l 1x7180
 888 1223 l 1
 602 1223 l 1x7a80
 620 441 l 1
 620 118 510 -18 130 -18 c 2
 67 -18 l 1
 67 185 l 1
 151 187 l 2
 307 191 336 239 336 395 c 2xb480
 334 1440 l 1
 1154 1440 l 1xba80
1332 663 m 2
 1180 663 l 1
 1180 233 l 1
 1332 233 l 2x7180
 1552 233 1695 296 1695 450 c 0
 1695 600 1549 663 1332 663 c 2
EndSplineSet
EndChar

StartChar: afii10059
Encoding: 515 1034 436
Width: 1815
VWidth: 0
Flags: W
HStem: 15 217<1182 1529.41> 663 218<585 931 1182 1522.67>
VStem: 334 251<16 663 881 1440> 931 251<232 662 881 1440> 1621 242<325.308 569.381>
LayerCount: 2
Fore
SplineSet
1329 231 m 1
 1504 231 1621 295 1621 449 c 0
 1621 600 1503 662 1329 662 c 2
 1182 662 l 1
 1182 232 l 1
 1329 231 l 1
1313 15 m 2
 931 15 l 1
 931 663 l 1
 585 663 l 1
 585 16 l 1
 334 16 l 1
 334 1440 l 1
 585 1440 l 1
 585 881 l 1
 931 881 l 1
 931 1440 l 1
 1182 1440 l 1
 1182 880 l 1
 1324 880 l 2
 1655 880 1863 761 1863 449 c 2
 1863 446 l 1
 1862 133 1594 15 1313 15 c 2
EndSplineSet
EndChar

StartChar: afii10018
Encoding: 522 1041 438
Width: 1338
VWidth: 0
Flags: W
HStem: 0 217<423 892.665> 647 218<423 889.244> 1227 218<424 1149>
VStem: 125 298<217 647 865 1227> 979 290<299.288 566.44>
LayerCount: 2
Back
SplineSet
419 672 m 5xf4
 419 202 l 5
 630 202 l 6
 835 202 952 252 952 434 c 4
 952 616 857 672 650 672 c 6
 419 672 l 5xf4
419 1242 m 5
 419 871 l 5
 648 871 l 6
 813 871 911 907 911 1039 c 4xf8
 911 1226 779 1242 560 1242 c 6
 419 1242 l 5
121 0 m 5
 121 1445 l 5
 612 1445 l 6
 943 1445 1200 1378 1200 1079 c 4xf8
 1200 934 1121 848 1015 785 c 5
 1169 720 1248 597 1248 423 c 4xf4
 1248 116 1008 0 670 0 c 6
 121 0 l 5
EndSplineSet
Fore
SplineSet
125 1445 m 1
 1149 1445 l 1
 1149 1227 l 1
 424 1227 l 1
 423 865 l 1
 712 865 l 2
 1016 865 1269 744 1269 433 c 0
 1269 121 1000 0 678 0 c 2
 125 0 l 1
 125 1445 l 1
979 434 m 0
 979 585 865 647 696 647 c 2
 423 647 l 1
 423 217 l 1
 697 217 l 2
 868 217 979 281 979 434 c 0
EndSplineSet
EndChar

StartChar: afii10020
Encoding: 524 1043 440
Width: 1603
VWidth: 0
Flags: W
HStem: 0 21G<125 423> 1227 218<423 1063>
VStem: 125 298<0 1227>
LayerCount: 2
Fore
SplineSet
125 0 m 1
 125 1445 l 1
 1087 1445 l 1
 1063 1227 l 1
 423 1227 l 1
 423 0 l 1
 125 0 l 1
EndSplineSet
EndChar

StartChar: afii10021
Encoding: 525 1044 441
Width: 1576
VWidth: 0
Flags: W
HStem: -177 392<105 338.454 1336 1423> 5 210<355 389 605 1077> 1216 214<919 1077>
VStem: 105 250<-177 5> 1077 259<215 1216> 1171 252<-177 5>
DStem2: 498 550 754 578 0.252869 0.9675<-266.569 750.813>
LayerCount: 2
Fore
SplineSet
105 215 m 1xb4
 166 215 l 2
 389 215 450 365 498 550 c 2
 728 1430 l 1
 1336 1430 l 1
 1336 215 l 1xb8
 1423 215 l 1
 1423 -177 l 1
 1171 -177 l 1xb4
 1171 5 l 1
 355 5 l 1x74
 355 -177 l 1
 105 -177 l 1
 105 215 l 1xb4
619 231 m 1
 605 215 l 1
 1077 215 l 1x78
 1077 1216 l 1
 919 1216 l 1
 754 578 l 1
 719 459 674 343 619 231 c 1
EndSplineSet
EndChar

StartChar: afii10022
Encoding: 526 1045 442
Width: 1290
VWidth: 0
Flags: W
HStem: 15 218<469 1167> 651 218<469 1107> 1222 218<469 1136>
VStem: 188 281<233 651 869 1222>
LayerCount: 2
Fore
SplineSet
1107 869 m 1
 1107 651 l 1
 469 651 l 1
 469 233 l 1
 1186 233 l 1
 1167 15 l 1
 188 15 l 1
 188 1440 l 1
 1155 1440 l 1
 1136 1222 l 1
 469 1222 l 1
 469 869 l 1
 1107 869 l 1
EndSplineSet
EndChar

StartChar: afii10029
Encoding: 532 1051 443
Width: 1482
VWidth: 0
Flags: W
HStem: -18 241<0 201.925> 0 21G<1063 1361> 1235 210<538 1063>
VStem: 240 298<260.975 1235> 1063 298<0 1235>
LayerCount: 2
Back
SplineSet
1052 1235 m 5
 456 1235 l 5
 456 0 l 5
 158 0 l 5
 158 1445 l 5
 1350 1445 l 5
 1350 0 l 5
 1052 0 l 5
 1052 1235 l 5
EndSplineSet
Fore
SplineSet
1361 1445 m 1xb8
 1361 0 l 1
 1063 0 l 1x78
 1063 1235 l 1
 538 1235 l 1
 538 447 l 2
 538 120 431 -18 61 -18 c 2
 0 -18 l 1
 0 223 l 1
 58 223 l 1
 215 225 240 282 240 439 c 2
 240 1445 l 1
 1361 1445 l 1xb8
EndSplineSet
EndChar

StartChar: afii10032
Encoding: 535 1054 446
Width: 1690
VWidth: 0
Flags: W
HStem: -18 225<655.85 1042.15> 1253 225<660.787 1037.38>
VStem: 109 287<492.036 960.21> 1302 287<492.036 960.21>
LayerCount: 2
Fore
SplineSet
1302 722 m 0
 1302 987 1150 1253 849 1253 c 0
 548 1253 396 987 396 722 c 0
 396 457 550 207 849 207 c 0
 1148 207 1302 457 1302 722 c 0
109 727 m 0
 109 1162 427 1478 849 1478 c 0
 1272 1478 1589 1162 1589 727 c 0
 1589 298 1271 -18 849 -18 c 0
 427 -18 109 298 109 727 c 0
EndSplineSet
EndChar

StartChar: afii10033
Encoding: 536 1055 447
Width: 1453
VWidth: 0
Flags: W
HStem: 0 21G<125 423 1039 1337> 1235 210<423 1039>
VStem: 125 298<0 1235> 1039 298<0 1235>
LayerCount: 2
Back
SplineSet
1015 1235 m 5
 419 1235 l 5
 419 0 l 5
 121 0 l 5
 121 1445 l 5
 1313 1445 l 5
 1313 0 l 5
 1015 0 l 5
 1015 1235 l 5
EndSplineSet
Fore
SplineSet
1039 1235 m 1
 423 1235 l 1
 423 0 l 1
 125 0 l 1
 125 1445 l 1
 1337 1445 l 1
 1337 0 l 1
 1039 0 l 1
 1039 1235 l 1
EndSplineSet
EndChar

StartChar: afii10038
Encoding: 541 1060 451
Width: 1840
VWidth: 0
Flags: W
HStem: 0 21G<781 1069> 172 225<568.479 781 1069 1277.66> 1093 225<564.125 781 1069 1278.1> 1425 20G<781 1069>
VStem: 74 287<590.251 904.342> 781 288<0 172 397 1093 1318 1445> 1484 287<590.389 907.819>
LayerCount: 2
Fore
SplineSet
1069 1093 m 1
 1069 397 l 1
 1343 398 1484 569 1484 752 c 0
 1484 922 1344 1092 1069 1093 c 1
781 1093 m 1
 778 1093 l 2
 502 1093 361 922 361 752 c 0
 361 569 503 397 778 397 c 2
 781 397 l 1
 781 1093 l 1
781 172 m 1
 778 172 l 2
 377 172 74 420 74 757 c 0
 74 1082 377 1318 778 1318 c 2
 781 1318 l 1
 781 1445 l 1
 1069 1445 l 1
 1069 1318 l 1
 1469 1318 1771 1082 1771 757 c 0
 1771 420 1469 173 1069 172 c 1
 1069 0 l 1
 781 0 l 1
 781 172 l 1
EndSplineSet
EndChar

StartChar: afii10042
Encoding: 545 1064 453
Width: 1887
VWidth: 0
Flags: W
HStem: 0 210<423 822 1120 1473> 1425 20G<125 423 822 1120 1473 1771>
VStem: 125 298<210 1445> 822 298<210 1445> 1473 298<210 1445>
LayerCount: 2
Fore
SplineSet
423 210 m 1
 822 210 l 1
 822 1445 l 1
 1120 1445 l 1
 1120 210 l 1
 1473 210 l 1
 1473 1445 l 1
 1771 1445 l 1
 1771 0 l 1
 125 0 l 1
 125 1445 l 1
 423 1445 l 1
 423 210 l 1
EndSplineSet
EndChar

StartChar: afii10044
Encoding: 547 1066 454
Width: 1588
VWidth: 0
Flags: W
HStem: 15 217<635 1146.24> 742 218<635 1128.98> 1222 218<46 376>
VStem: 376 259<232 742 960 1222> 1268 239<343.288 621.111>
LayerCount: 2
Fore
SplineSet
376 15 m 1
 376 1222 l 1
 46 1222 l 1
 46 1440 l 1
 635 1440 l 1
 635 960 l 1
 920 960 l 2
 1229 960 1507 831 1507 502 c 0
 1507 173 1324 15 934 15 c 2
 376 15 l 1
1268 489 m 0
 1268 642 1135 742 942 742 c 2
 635 742 l 1
 635 232 l 1
 954 232 l 2
 1161 232 1268 333 1268 489 c 0
EndSplineSet
EndChar

StartChar: afii10045
Encoding: 548 1067 455
Width: 1861
VWidth: 0
Flags: W
HStem: 15 217<438 923.824> 742 218<438 919.743>
VStem: 188 250<232 742 960 1440> 1040 252<341.837 635.36> 1436 251<15 1440>
LayerCount: 2
Fore
SplineSet
1040 489 m 0
 1040 642 938 742 745 742 c 2
 438 742 l 1
 438 232 l 1
 743 232 l 2
 939 232 1040 334 1040 489 c 0
723 960 m 2
 1040 960 1292 825 1292 493 c 0
 1292 178 1049 15 724 15 c 2
 188 15 l 1
 188 1440 l 1
 438 1440 l 1
 438 960 l 1
 723 960 l 2
1686 1440 m 1
 1687 15 l 1
 1436 15 l 1
 1434 1440 l 1
 1686 1440 l 1
EndSplineSet
EndChar

StartChar: afii10046
Encoding: 549 1068 456
Width: 1340
VWidth: 0
Flags: W
HStem: 15 217<438 932.735> 742 218<438 930.026>
VStem: 188 250<232 742 960 1440> 1053 244<340.02 635.472>
LayerCount: 2
Fore
SplineSet
438 1440 m 1
 438 960 l 1
 729 960 l 2
 1057 960 1297 798 1297 488 c 0
 1297 177 1059 15 733 15 c 2
 188 15 l 1
 188 1440 l 1
 438 1440 l 1
438 742 m 1
 438 232 l 1
 751 232 l 2
 949 232 1053 333 1053 489 c 0
 1053 642 947 742 750 742 c 2
 438 742 l 1
EndSplineSet
EndChar

StartChar: afii10048
Encoding: 551 1070 457
Width: 1557
VWidth: 0
Flags: W
HStem: -18 225<1153.87 1505.59> 645 210<439 667.741> 1253 225<1157.2 1505.27>
VStem: 188 251<15 645 855 1440> 664 278<462.493 645 855 997.855> 1720 267<465.918 1003.21>
LayerCount: 2
Fore
SplineSet
1332 -18 m 0
 921 -18 698 276 664 645 c 1
 439 645 l 1
 439 15 l 1
 188 15 l 1
 188 1440 l 1
 439 1440 l 1
 439 855 l 1
 669 855 l 1
 715 1206 939 1478 1332 1478 c 0
 1767 1478 1987 1144 1987 727 c 0
 1987 311 1765 -18 1332 -18 c 0
1720 735 m 0
 1720 1020 1606 1253 1331 1253 c 0
 1056 1253 942 1019 942 735 c 2
 942 725 l 1
 945 440 1056 207 1331 207 c 0
 1609 207 1720 447 1720 735 c 0
EndSplineSet
EndChar

StartChar: afii10049
Encoding: 552 1071 458
Width: 1323
VWidth: 0
Flags: W
HStem: 0 21G<-11 313.449 903 1202> 598 211<596.627 903> 1228 217<429.947 903>
VStem: 76 276<882.908 1153.52> 903 299<0 598 809 1228>
DStem2: -11 0 304 0 0.440563 0.897722<138.777 732.573>
LayerCount: 2
Fore
SplineSet
-11 0 m 1
 194 418 l 2
 240 510 272 580 335 651 c 1
 169 713 76 833 76 1035 c 0
 76 1371 293 1445 636 1445 c 2
 1202 1445 l 1
 1202 0 l 1
 903 0 l 1
 903 598 l 1
 689 598 l 2
 646 598 609 597 596 595 c 1
 596 595 504 423 467 345 c 2
 304 0 l 1
 -11 0 l 1
903 1228 m 1
 621 1228 l 2
 446 1228 352 1170 352 1030 c 0
 352 872 436 809 628 809 c 2
 903 809 l 1
 903 1228 l 1
EndSplineSet
EndChar

StartChar: afii10067
Encoding: 555 1074 460
Width: 1141
VWidth: 0
Flags: W
PickledData: "(dp1
S'com.typemytype.robofont.layerData'
p2
(dp3
S'back'
p4
(dp5
S'name'
p6
S'uni0432'
p7
sS'lib'
p8
(dp9
sS'unicodes'
p10
(tsS'width'
p11
I1171
sS'contours'
p12
((dp13
S'points'
p14
((dp15
S'segmentType'
p16
S'line'
p17
sS'x'
F410
sS'smooth'
p18
I00
sS'y'
F1063
s(dp19
g16
S'line'
p20
sS'x'
F410
sg18
I00
sS'y'
F0
s(dp21
g16
S'line'
p22
sS'x'
F127
sg18
I00
sS'y'
F0
s(dp23
g16
S'line'
p24
sS'x'
F127
sg18
I00
sS'y'
F1063
stp25
stp26
sS'components'
p27
(tsS'anchors'
p28
(tsss."
HStem: 0 200<387 797.397> 469 181<387 773.895> 887 211<387 770.506>
VStem: 104 283<200 469 650 887> 802 248<677.416 862.366> 832 247<237.554 431.921>
LayerCount: 2
Back
SplineSet
385 1063 m 5
 385 0 l 5
 102 0 l 5
 102 1063 l 5
 385 1063 l 5
EndSplineSet
Fore
SplineSet
879 574 m 1xf8
 1005 556 1079 433 1079 320 c 0xf4
 1079 91 904 0 676 0 c 2
 104 0 l 1
 104 1098 l 1
 648 1098 l 2
 878 1098 1050 1012 1050 796 c 0
 1050 694 988 604 879 574 c 1xf8
684 469 m 2
 387 469 l 1
 387 200 l 1
 684 200 l 2
 783 200 832 266 832 333 c 0
 832 401 782 469 684 469 c 2
673 650 m 2
 758 650 802 711 802 771 c 0xf8
 802 830 760 887 673 887 c 2
 387 887 l 1
 387 650 l 1
 673 650 l 2
EndSplineSet
EndChar

StartChar: afii10068
Encoding: 556 1075 461
Width: 762
VWidth: 0
Flags: W
PickledData: "(dp1
S'com.typemytype.robofont.layerData'
p2
(dp3
S'back'
p4
(dp5
S'name'
p6
S'uni0433'
p7
sS'lib'
p8
(dp9
sS'unicodes'
p10
(tsS'width'
p11
I907
sS'contours'
p12
((dp13
S'points'
p14
((dp15
S'segmentType'
p16
S'line'
p17
sS'x'
F449
sS'smooth'
p18
I00
sS'y'
F1063
s(dp19
g16
S'line'
p20
sS'x'
F449
sg18
I00
sS'y'
F0
s(dp21
g16
S'line'
p22
sS'x'
F166
sg18
I00
sS'y'
F0
s(dp23
g16
S'line'
p24
sS'x'
F166
sg18
I00
sS'y'
F1063
stp25
stp26
sS'components'
p27
(tsS'anchors'
p28
(tsss."
HStem: 0 21G<104 387> 883 215<387 700>
VStem: 104 283<0 883>
LayerCount: 2
Fore
SplineSet
700 883 m 1
 387 883 l 1
 387 0 l 1
 104 0 l 1
 104 1098 l 1
 700 1098 l 1
 700 883 l 1
EndSplineSet
EndChar

StartChar: afii10069
Encoding: 557 1076 462
Width: 1250
VWidth: 0
Flags: W
PickledData: "(dp1
S'com.typemytype.robofont.layerData'
p2
(dp3
S'back'
p4
(dp5
S'name'
p6
S'uni0434'
p7
sS'lib'
p8
(dp9
sS'unicodes'
p10
(tsS'width'
p11
I1217
sS'contours'
p12
((dp13
S'points'
p14
((dp15
S'segmentType'
p16
S'curve'
p17
sS'x'
F139
sS'smooth'
p18
I00
sS'y'
F96
s(dp19
g16
S'line'
p20
sS'x'
F270
sg18
I00
sS'y'
F96
s(dp21
g16
S'line'
p22
sS'x'
F270
sg18
I00
sS'y'
F-362
s(dp23
g16
S'line'
p24
sS'x'
F31
sg18
I00
sS'y'
F-362
s(dp25
g16
S'line'
p26
sS'x'
F9
sg18
I00
sS'y'
F0
s(dp27
S'y'
F0
sS'x'
F9
sg18
I00
s(dp28
S'y'
F96
sS'x'
F139
sg18
I00
stp29
stp30
sS'components'
p31
(tsS'anchors'
p32
(tsss."
HStem: 0 206<446 822> 882 216<556 822>
VStem: 48 247<-362 0> 273 283<506.845 882> 822 283<206 882> 998 239<-362 -126.108>
LayerCount: 2
Fore
SplineSet
446 206 m 1xd8
 822 206 l 1
 822 882 l 1
 556 882 l 1
 556 508 476 265 446 206 c 1xd8
308 0 m 1
 295 -362 l 1
 48 -362 l 1
 48 206 l 1xe4
 126 206 l 1
 192 331 273 588 273 875 c 2
 273 1098 l 1
 1105 1098 l 1
 1105 206 l 1xd8
 1237 206 l 1
 1237 -362 l 1
 998 -362 l 1xc4
 976 0 l 1
 308 0 l 1
EndSplineSet
EndChar

StartChar: afii10073
Encoding: 560 1079 464
Width: 1014
VWidth: 0
Flags: W
PickledData: "(dp1
S'com.typemytype.robofont.layerData'
p2
(dp3
S'back'
p4
(dp5
S'name'
p6
S'uni0437'
p7
sS'lib'
p8
(dp9
sS'unicodes'
p10
(tsS'width'
p11
F995.07536034899999
sS'contours'
p12
((dp13
S'points'
p14
((dp15
S'segmentType'
p16
S'curve'
p17
sS'x'
F476
sS'smooth'
p18
I01
sS'y'
F1103
s(dp19
S'y'
F1103
sS'x'
F822
sg18
I00
s(dp20
S'y'
F868
sS'x'
F1001
sg18
I00
s(dp21
g16
S'curve'
p22
sS'x'
F1001
sg18
I01
sS'y'
F538
s(dp23
S'y'
F215
sS'x'
F1001
sg18
I00
s(dp24
S'y'
F-20
sS'x'
F822
sg18
I00
s(dp25
g16
S'curve'
p26
sS'x'
F476
sg18
I01
sS'y'
F-20
s(dp27
S'y'
F-20
sS'x'
F130
sg18
I00
s(dp28
S'y'
F215
sS'x'
F-49
sg18
I00
s(dp29
g16
S'curve'
p30
sS'x'
F-49
sg18
I01
sS'y'
F538
s(dp31
S'y'
F868
sS'x'
F-49
sg18
I00
s(dp32
S'y'
F1103
sS'x'
F130
sg18
I00
stp33
s(dp34
g14
((dp35
g16
S'curve'
p36
sS'x'
F530
sg18
I01
sS'y'
F186
s(dp37
S'y'
F186
sS'x'
F681
sg18
I00
s(dp38
S'y'
F306
sS'x'
F783
sg18
I00
s(dp39
g16
S'curve'
p40
sS'x'
F783
sg18
I01
sS'y'
F538
s(dp41
S'y'
F775
sS'x'
F783
sg18
I00
s(dp42
S'y'
F894
sS'x'
F679
sg18
I00
s(dp43
g16
S'curve'
p44
sS'x'
F530
sg18
I01
sS'y'
F894
s(dp45
S'y'
F894
sS'x'
F381
sg18
I00
s(dp46
S'y'
F775
sS'x'
F277
sg18
I00
s(dp47
g16
S'curve'
p48
sS'x'
F277
sg18
I01
sS'y'
F538
s(dp49
S'y'
F306
sS'x'
F277
sg18
I00
s(dp50
S'y'
F186
sS'x'
F379
sg18
I00
stp51
stp52
sS'components'
p53
(tsS'anchors'
p54
((dp55
S'y'
F1059
sS'x'
F530
sg6
S'top'
p56
stp57
sss."
HStem: -20 206<211.114 669.628> 447 193<292 651.734> 888 196<163.78 644.518>
VStem: 682 246<670.962 847.806> 711 244<227.57 408.259>
LayerCount: 2
Fore
SplineSet
468 1084 m 0xf0
 711 1084 928 1004 928 798 c 0xf0
 928 691 869 592 771 561 c 1
 869 527 955 418 955 303 c 0
 955 55 738 -20 491 -20 c 0
 305 -20 169 22 79 86 c 1
 119 271 l 1
 199 222 340 186 497 186 c 0
 653 186 711 236 711 330 c 0xe8
 711 402 637 447 524 447 c 2
 292 447 l 1
 292 640 l 1
 525 640 l 2
 629 640 682 692 682 760 c 0
 682 850 611 888 466 888 c 0
 303 888 191 864 121 823 c 1
 70 1009 l 1
 161 1066 329 1084 468 1084 c 0xf0
EndSplineSet
EndChar

StartChar: afii10074
Encoding: 561 1080 465
Width: 1204
VWidth: 0
Flags: W
PickledData: "(dp1
S'com.typemytype.robofont.layerData'
p2
(dp3
S'back'
p4
(dp5
S'name'
p6
S'uni0438'
p7
sS'lib'
p8
(dp9
sS'unicodes'
p10
(tsS'width'
p11
I1189
sS'contours'
p12
((dp13
S'points'
p14
((dp15
S'segmentType'
p16
S'line'
p17
sS'x'
F1088
sS'smooth'
p18
I00
sS'y'
F1481
s(dp19
g16
S'line'
p20
sS'x'
F1088
sg18
I00
sS'y'
F418
s(dp21
g16
S'line'
p22
sS'x'
F830
sg18
I00
sS'y'
F418
s(dp23
g16
S'line'
p24
sS'x'
F830
sg18
I00
sS'y'
F1087
s(dp25
g16
S'line'
p26
sS'x'
F583
sg18
I00
sS'y'
F742
s(dp27
g16
S'line'
p28
sS'x'
F477
sg18
I00
sS'y'
F742
s(dp29
g16
S'line'
p30
sS'x'
F236
sg18
I00
sS'y'
F1086
s(dp31
g16
S'line'
p32
sS'x'
F236
sg18
I00
sS'y'
F418
s(dp33
g16
S'line'
p34
sS'x'
F-27
sg18
I00
sS'y'
F418
s(dp35
g16
S'line'
p36
sS'x'
F-27
sg18
I00
sS'y'
F1481
s(dp37
g16
S'line'
p38
sS'x'
F234
sg18
I00
sS'y'
F1481
s(dp39
g16
S'line'
p40
sS'x'
F531
sg18
I00
sS'y'
F1046
s(dp41
g16
S'line'
p42
sS'x'
F829
sg18
I00
sS'y'
F1481
stp43
stp44
sS'components'
p45
(tsS'anchors'
p46
(tsss."
HStem: 0 21G<104 364.399 849 1107> 1078 20G<104 367 849 1107>
VStem: 104 263<395 1098> 849 258<0 611 980 1098>
DStem2: 367 395 348 0 0.634064 0.77328<0 472.648>
LayerCount: 2
Fore
SplineSet
1107 0 m 1
 849 0 l 1
 849 611 l 1
 348 0 l 1
 104 0 l 1
 104 1098 l 1
 367 1098 l 1
 367 395 l 1
 849 980 l 1
 849 1098 l 1
 1107 1098 l 1
 1107 0 l 1
EndSplineSet
EndChar

StartChar: afii10076
Encoding: 563 1082 467
Width: 1169
VWidth: 0
Flags: W
PickledData: "(dp1
S'com.typemytype.robofont.layerData'
p2
(dp3
S'back'
p4
(dp5
S'name'
p6
S'uni043A'
p7
sS'lib'
p8
(dp9
sS'unicodes'
p10
(tsS'width'
p11
I1190
sS'contours'
p12
((dp13
S'points'
p14
((dp15
S'segmentType'
p16
S'line'
p17
sS'x'
F410
sS'smooth'
p18
I00
sS'y'
F1063
s(dp19
g16
S'line'
p20
sS'x'
F410
sg18
I00
sS'y'
F0
s(dp21
g16
S'line'
p22
sS'x'
F127
sg18
I00
sS'y'
F0
s(dp23
g16
S'line'
p24
sS'x'
F127
sg18
I00
sS'y'
F1063
stp25
stp26
sS'components'
p27
(tsS'anchors'
p28
(tsss."
HStem: 0 21G<104 387 802.385 1188> 886 222<890.46 1086.95>
VStem: 104 283<0 423 668 1098> 823 365<0 365>
DStem2: 387 668 592 540 0.696475 0.717581<50.9271 563.595> 592 540 387 423 0.741064 -0.671434<0 533.76>
LayerCount: 2
Fore
SplineSet
717 1008 m 0
 772 1066 843 1108 947 1108 c 0
 1023 1108 1087 1091 1087 1091 c 1
 1087 869 l 1
 1087 869 1000 886 974 886 c 0
 923 886 898 853 862 812 c 1
 805 752 736 682 671 621 c 1
 592 540 l 1
 1188 0 l 1
 823 0 l 1
 387 423 l 1
 387 0 l 1
 104 0 l 1
 104 1098 l 1
 387 1098 l 1
 387 668 l 1
 529 808 l 1
 529 808 648 934 717 1008 c 0
EndSplineSet
EndChar

StartChar: afii10077
Encoding: 564 1083 468
Width: 1245
VWidth: 0
Flags: W
PickledData: "(dp1
S'com.typemytype.robofont.layerData'
p2
(dp3
S'back'
p4
(dp5
S'name'
p6
S'uni043B'
p7
sS'lib'
p8
(dp9
sS'unicodes'
p10
(tsS'width'
p11
I1283
sS'contours'
p12
((dp13
S'points'
p14
((dp15
S'segmentType'
p16
S'line'
p17
sS'x'
F1125
sS'smooth'
p18
I00
sS'y'
F1063
s(dp19
g16
S'line'
p20
sS'x'
F1125
sg18
I00
sS'y'
F0
s(dp21
g16
S'line'
p22
sS'x'
F842
sg18
I00
sS'y'
F0
s(dp23
g16
S'line'
p24
sS'x'
F842
sg18
I00
sS'y'
F1063
stp25
stp26
sS'components'
p27
(tsS'anchors'
p28
(tsss."
HStem: 1 21G<860 1143> 880 218<451 860>
VStem: 168 283<242.241 880> 860 283<1 880>
LayerCount: 2
Fore
SplineSet
451 377 m 2
 451 86 249 -29 -37 -29 c 1
 -37 191 l 1
 -9 196 l 1
 147 214 168 244 168 416 c 2
 168 1098 l 1
 1143 1098 l 1
 1143 1 l 1
 860 1 l 1
 860 880 l 1
 451 880 l 1
 451 377 l 2
EndSplineSet
EndChar

StartChar: afii10078
Encoding: 565 1084 469
Width: 1336
VWidth: 0
Flags: W
PickledData: "(dp1
S'com.typemytype.robofont.layerData'
p2
(dp3
S'back'
p4
(dp5
S'name'
p6
S'uni043C'
p7
sS'lib'
p8
(dp9
sS'unicodes'
p10
(tsS'width'
p11
I1317
sS'contours'
p12
((dp13
S'points'
p14
((dp15
S'segmentType'
p16
S'line'
p17
sS'x'
F1216
sS'smooth'
p18
I00
sS'y'
F1063
s(dp19
g16
S'line'
p20
sS'x'
F1216
sg18
I00
sS'y'
F0
s(dp21
g16
S'line'
p22
sS'x'
F933
sg18
I00
sS'y'
F0
s(dp23
g16
S'line'
p24
sS'x'
F933
sg18
I00
sS'y'
F1063
stp25
stp26
sS'components'
p27
(tsS'anchors'
p28
(tsss."
HStem: 0 21G<104 367 981 1239> 1078 20G<104 378.675 966.281 1239>
VStem: 104 263<0 690> 981 258<0 691>
LayerCount: 2
Fore
SplineSet
726 335 m 1
 616 335 l 1
 367 690 l 1
 367 0 l 1
 104 0 l 1
 104 1098 l 1
 365 1098 l 1
 672 649 l 1
 980 1098 l 1
 1239 1098 l 1
 1239 0 l 1
 981 0 l 1
 981 691 l 1
 726 335 l 1
EndSplineSet
EndChar

StartChar: afii10079
Encoding: 566 1085 470
Width: 1219
VWidth: 0
Flags: W
PickledData: "(dp1
S'com.typemytype.robofont.layerData'
p2
(dp3
S'back'
p4
(dp5
S'name'
p6
S'uni043D'
p7
sS'lib'
p8
(dp9
sS'unicodes'
p10
(tsS'width'
p11
I1260
sS'contours'
p12
((dp13
S'points'
p14
((dp15
S'segmentType'
p16
S'line'
p17
sS'x'
F1130
sS'smooth'
p18
I00
sS'y'
F1063
s(dp19
g16
S'line'
p20
sS'x'
F1130
sg18
I00
sS'y'
F0
s(dp21
g16
S'line'
p22
sS'x'
F847
sg18
I00
sS'y'
F0
s(dp23
g16
S'line'
p24
sS'x'
F847
sg18
I00
sS'y'
F1063
stp25
stp26
sS'components'
p27
(tsS'anchors'
p28
(tsss."
HStem: 0 21G<104 387 839 1122> 487 212<387 839> 1078 20G<104 387 839 1122>
VStem: 104 283<0 487 699 1098> 839 283<0 487 699 1098>
LayerCount: 2
Back
SplineSet
650 894 m 1
 650 1063 l 1
 821 1063 l 1
 821 1096 l 2
 821 1378 852 1546 1231 1546 c 2
 1326 1546 l 1
 1349 1336 l 1
 1257 1336 l 2
 1131 1336 1104 1283 1104 1152 c 2
 1104 1063 l 1
 1342 1063 l 1
 1342 894 l 1
 1104 894 l 1
 1104 0 l 1
 821 0 l 1
 821 894 l 1
 650 894 l 1
EndSplineSet
Fore
SplineSet
104 1098 m 1
 387 1098 l 1
 387 699 l 1
 839 699 l 1
 839 1098 l 1
 1122 1098 l 1
 1122 0 l 1
 839 0 l 1
 839 487 l 1
 387 487 l 1
 387 0 l 1
 104 0 l 1
 104 1098 l 1
EndSplineSet
EndChar

StartChar: afii10081
Encoding: 568 1087 472
Width: 1209
VWidth: 0
Flags: W
PickledData: "(dp1
S'com.typemytype.robofont.layerData'
p2
(dp3
S'back'
p4
(dp5
S'name'
p6
S'uni043F'
p7
sS'lib'
p8
(dp9
sS'unicodes'
p10
(tsS'width'
p11
I1260
sS'contours'
p12
((dp13
S'points'
p14
((dp15
S'segmentType'
p16
S'line'
p17
sS'x'
F1120
sS'smooth'
p18
I00
sS'y'
F1063
s(dp19
g16
S'line'
p20
sS'x'
F1120
sg18
I00
sS'y'
F0
s(dp21
g16
S'line'
p22
sS'x'
F837
sg18
I00
sS'y'
F0
s(dp23
g16
S'line'
p24
sS'x'
F837
sg18
I00
sS'y'
F1063
stp25
stp26
sS'components'
p27
(tsS'anchors'
p28
(tsss."
HStem: 0 21G<104 387 828 1111> 884 214<387 828>
VStem: 104 283<0 884> 828 283<0 884>
LayerCount: 2
Fore
SplineSet
104 1098 m 1
 1111 1098 l 1
 1111 0 l 1
 828 0 l 1
 828 884 l 1
 387 884 l 1
 387 0 l 1
 104 0 l 1
 104 1098 l 1
EndSplineSet
EndChar

StartChar: afii10084
Encoding: 571 1090 475
Width: 915
VWidth: 0
Flags: W
PickledData: "(dp1
S'com.typemytype.robofont.layerData'
p2
(dp3
S'back'
p4
(dp5
S'name'
p6
S'uni0442'
p7
sS'lib'
p8
(dp9
sS'unicodes'
p10
(tsS'width'
p11
I895
sS'contours'
p12
((dp13
S'points'
p14
((dp15
S'segmentType'
p16
S'line'
p17
sS'x'
F593
sS'smooth'
p18
I00
sS'y'
F1063
s(dp19
g16
S'line'
p20
sS'x'
F593
sg18
I00
sS'y'
F0
s(dp21
g16
S'line'
p22
sS'x'
F310
sg18
I00
sS'y'
F0
s(dp23
g16
S'line'
p24
sS'x'
F310
sg18
I00
sS'y'
F1063
stp25
stp26
sS'components'
p27
(tsS'anchors'
p28
(tsss."
HStem: 0 21G<320 603> 907 191<-1 320 603 916>
VStem: 320 283<0 907>
LayerCount: 2
Fore
SplineSet
-1 1098 m 1
 916 1098 l 1
 916 907 l 1
 603 907 l 1
 603 0 l 1
 320 0 l 1
 320 907 l 1
 -1 907 l 1
 -1 1098 l 1
EndSplineSet
EndChar

StartChar: afii10085
Encoding: 572 1091 476
Width: 1115
VWidth: 0
Flags: W
PickledData: "(dp1
S'com.typemytype.robofont.layerData'
p2
(dp3
S'back'
p4
(dp5
S'name'
p6
S'uni0443'
p7
sS'lib'
p8
(dp9
sS'unicodes'
p10
(tsS'width'
p11
I1079
sS'contours'
p12
(tsS'components'
p13
(tsS'anchors'
p14
(tsss."
HStem: -410 204<59 330.845> 1078 20G<-18 284.967 809.159 1120>
LayerCount: 2
Fore
SplineSet
567 370 m 1
 816 1098 l 1
 1120 1098 l 1
 668 -64 l 2
 557 -348 437 -410 200 -410 c 2
 59 -410 l 1
 31 -206 l 1
 107 -206 l 2
 300 -206 351 -223 426 41 c 1
 -18 1098 l 1
 277 1098 l 1
 567 370 l 1
EndSplineSet
EndChar

StartChar: afii10086
Encoding: 573 1092 477
Width: 1507
VWidth: 0
Flags: W
PickledData: "(dp1
S'com.typemytype.robofont.layerData'
p2
(dp3
S'back'
p4
(dp5
S'name'
p6
S'uni0444'
p7
sS'lib'
p8
(dp9
sS'unicodes'
p10
(tsS'width'
p11
I1490
sS'contours'
p12
((dp13
S'points'
p14
((dp15
S'segmentType'
p16
S'line'
p17
sS'x'
F886
sS'smooth'
p18
I00
sS'y'
F1063
s(dp19
g16
S'line'
p20
sS'x'
F886
sg18
I00
sS'y'
F0
s(dp21
g16
S'line'
p22
sS'x'
F603
sg18
I00
sS'y'
F0
s(dp23
g16
S'line'
p24
sS'x'
F603
sg18
I00
sS'y'
F1063
stp25
stp26
sS'components'
p27
(tsS'anchors'
p28
(tsss."
HStem: 7 187<425.251 615 898 1089.46> 910 188<445.999 615 898 1068.97>
VStem: 85 253<312.856 767.116> 615 283<-182 7 194 909 1098 1238> 1176 253<309.308 766.994>
LayerCount: 2
Fore
SplineSet
615 1238 m 1
 898 1238 l 1
 898 1098 l 1
 982 1098 l 2
 1259 1098 1429 803 1429 549 c 0
 1429 295 1278 7 1004 7 c 2
 898 7 l 1
 898 -182 l 1
 615 -182 l 1
 615 7 l 1
 511 7 l 2
 236 7 85 298 85 550 c 0
 85 805 256 1098 533 1098 c 2
 615 1098 l 1
 615 1238 l 1
979 910 m 2
 898 910 l 1
 898 194 l 1
 998 194 l 2
 1124 194 1176 381 1176 544 c 0
 1176 709 1104 910 979 910 c 2
515 194 m 2
 615 194 l 1
 615 909 l 1
 535 909 l 2
 410 909 338 708 338 543 c 0
 338 379 389 194 515 194 c 2
EndSplineSet
EndChar

StartChar: afii10089
Encoding: 576 1095 479
Width: 1218
VWidth: 0
Flags: W
PickledData: "(dp1
S'com.typemytype.robofont.layerData'
p2
(dp3
S'back'
p4
(dp5
S'name'
p6
S'uni0447'
p7
sS'lib'
p8
(dp9
sS'unicodes'
p10
(tsS'width'
p11
I1203
sS'contours'
p12
((dp13
S'points'
p14
((dp15
S'segmentType'
p16
S'line'
p17
sS'x'
F326
sS'smooth'
p18
I00
sS'y'
F1063
s(dp19
g16
S'line'
p20
sS'x'
F326
sg18
I00
sS'y'
F0
s(dp21
g16
S'line'
p22
sS'x'
F43
sg18
I00
sS'y'
F0
s(dp23
g16
S'line'
p24
sS'x'
F43
sg18
I00
sS'y'
F1063
stp25
stp26
sS'components'
p27
(tsS'anchors'
p28
(tsss."
HStem: 0 21G<837 1120> 366 221<421.313 750.45> 1078 20G<62 345 837 1120>
VStem: 62 283<665.788 1098> 837 283<0 470 658.201 1098>
LayerCount: 2
Back
SplineSet
-111.5 894 m 1
 -111.5 1063 l 1
 59.5 1063 l 1
 59.5 1096 l 2
 59.5 1378 90.5 1546 469.5 1546 c 2
 564.5 1546 l 1
 587.5 1336 l 1
 495.5 1336 l 2
 369.5 1336 342.5 1283 342.5 1152 c 2
 342.5 1063 l 1
 580.5 1063 l 1
 580.5 894 l 1
 342.5 894 l 1
 342.5 0 l 1
 59.5 0 l 1
 59.5 894 l 1
 -111.5 894 l 1
EndSplineSet
Fore
SplineSet
345 876 m 2
 345 756 351 587 573 587 c 0
 764 587 837 690 837 730 c 2
 837 1098 l 1
 1120 1098 l 1
 1120 0 l 1
 837 0 l 1
 837 470 l 1
 779 414 685 366 521 366 c 1
 195 370 62 547 62 818 c 2
 62 1098 l 1
 345 1098 l 1
 345 876 l 2
EndSplineSet
EndChar

StartChar: afii10090
Encoding: 577 1096 480
Width: 1530
VWidth: 0
Flags: W
PickledData: "(dp1
S'com.typemytype.robofont.layerData'
p2
(dp3
S'back'
p4
(dp5
S'name'
p6
S'uni0448'
p7
sS'lib'
p8
(dp9
sS'unicodes'
p10
(tsS'width'
p11
I1513
sS'contours'
p12
((dp13
S'points'
p14
((dp15
S'segmentType'
p16
S'line'
p17
sS'x'
F784
sS'smooth'
p18
I00
sS'y'
F215
s(dp19
g16
S'line'
p20
sS'x'
F784
sg18
I00
sS'y'
F1063
s(dp21
g16
S'line'
p22
sS'x'
F1067
sg18
I00
sS'y'
F1063
s(dp23
S'y'
F1063
sS'x'
F1067
sg18
I00
s(dp24
S'y'
F0
sS'x'
F1067
sg18
I00
s(dp25
g16
S'curve'
p26
sS'x'
F1067
sg18
I00
sS'y'
F0
s(dp27
g16
S'line'
p28
sS'x'
F101
sg18
I00
sS'y'
F0
s(dp29
g16
S'line'
p30
sS'x'
F101
sg18
I00
sS'y'
F1063
s(dp31
g16
S'line'
p32
sS'x'
F384
sg18
I00
sS'y'
F1063
s(dp33
g16
S'line'
p34
sS'x'
F384
sg18
I00
sS'y'
F215
stp35
stp36
sS'components'
p37
(tsS'anchors'
p38
(tsss."
HStem: 0 215<367 639 902 1175> 1078 20G<104 367 639 902 1175 1433>
VStem: 104 263<215 1098> 639 263<215 1098> 1175 258<215 1098>
LayerCount: 2
Fore
SplineSet
367 215 m 1
 639 215 l 1
 639 1098 l 1
 902 1098 l 1
 902 215 l 1
 1175 215 l 1
 1175 1098 l 1
 1433 1098 l 1
 1433 0 l 1
 104 0 l 1
 104 1098 l 1
 367 1098 l 1
 367 215 l 1
EndSplineSet
EndChar

StartChar: afii10092
Encoding: 579 1098 481
Width: 1202
VWidth: 0
Flags: W
HStem: 0 201<492 841.578> 511 196<492 847.929> 891 207<-3 209>
VStem: 209 282<201 511 707 891> 891 253<249.711 465.716>
LayerCount: 2
Fore
SplineSet
747 707 m 2
 945 707 1144 603 1144 360 c 0
 1144 136 982 0 762 0 c 2
 209 0 l 1
 209 891 l 1
 -3 891 l 1
 -3 1098 l 1
 491 1098 l 1
 491 707 l 1
 747 707 l 2
891 362 m 0
 891 438 837 511 729 511 c 2
 492 511 l 1
 492 201 l 1
 735 201 l 2
 832 201 891 277 891 362 c 0
EndSplineSet
EndChar

StartChar: afii10094
Encoding: 581 1100 482
Width: 1094
VWidth: 0
Flags: W
HStem: 0 201<387 737.578> 504 196<387 743.245> 1079 20G<104 386>
VStem: 104 282<201 504 700 1098> 787 253<248.507 460.856>
LayerCount: 2
Back
SplineSet
634 685 m 6
 827.734 685 1024.29 584.433 1024.29 349.026 c 4
 1024.29 132.648 863.718 1 647 1 c 6
 101 1 l 5
 101 1063 l 5
 383 1063.9 l 5
 383 685 l 5
 634 685 l 6
770.671 350.908 m 4
 770.671 421.986 718.902 489 614 489 c 6
 384 489 l 5
 384 201 l 5
 620 201 l 6
 713.859 201 770.671 272.272 770.671 350.908 c 4
EndSplineSet
Fore
SplineSet
787 359 m 0
 787 434 733 504 625 504 c 2
 387 504 l 1
 387 201 l 1
 631 201 l 2
 728 201 787 276 787 359 c 0
642 700 m 2
 840 700 1040 597 1040 357 c 0
 1040 136 878 0 658 0 c 2
 104 0 l 1
 104 1098 l 1
 386 1099 l 1
 386 700 l 1
 642 700 l 2
EndSplineSet
EndChar

StartChar: afii10096
Encoding: 583 1102 483
Width: 1572
VWidth: 0
Flags: W
HStem: -20 206<902.953 1134.06> 0 21G<104 387> 454 196<387 528.328> 912 206<901.991 1145.38> 1078 20G<104 387>
VStem: 104 283<0 454 650 1098> 522 266<325.574 454 650 771.142> 1241 273<308.193 798.473>
LayerCount: 2
Fore
SplineSet
1514 553 m 0x37
 1514 243 1332 -20 1020 -20 c 0xb7
 728 -20 561 196 522 454 c 1
 387 454 l 1
 387 0 l 1
 104 0 l 1
 104 1098 l 1
 387 1098 l 1x6f
 387 650 l 1
 523 650 l 1
 563 921 732 1118 1020 1118 c 0
 1339 1118 1514 872 1514 553 c 0x37
1020 186 m 0
 1180 186 1241 358 1241 551 c 0
 1241 756 1186 912 1020 912 c 0
 867 912 788 746 788 550 c 0
 788 357 863 186 1020 186 c 0
EndSplineSet
EndChar

StartChar: afii10097
Encoding: 584 1103 484
Width: 1161
VWidth: 0
Flags: W
PickledData: "(dp1
S'com.typemytype.robofont.layerData'
p2
(dp3
S'back'
p4
(dp5
S'name'
p6
S'uni044F'
p7
sS'lib'
p8
(dp9
sS'unicodes'
p10
(tsS'width'
p11
I1139
sS'contours'
p12
((dp13
S'points'
p14
((dp15
S'segmentType'
p16
S'line'
p17
sS'x'
F1038
sS'smooth'
p18
I00
sS'y'
F1063
s(dp19
g16
S'line'
p20
sS'x'
F1038
sg18
I00
sS'y'
F0
s(dp21
g16
S'line'
p22
sS'x'
F755
sg18
I00
sS'y'
F0
s(dp23
g16
S'line'
p24
sS'x'
F755
sg18
I00
sS'y'
F1063
stp25
stp26
sS'components'
p27
(tsS'anchors'
p28
(tsss."
HStem: 0 21G<83 406.864 780 1063> 440 204<614 780> 886 212<408.728 780>
VStem: 780 283<0 440 644 886>
DStem2: 83 0 397 0 0.470976 0.882146<147.887 535.059>
LayerCount: 2
Fore
SplineSet
335 472 m 1
 208 520 103 615 103 767 c 0
 103 985 279 1098 498 1098 c 2
 1063 1098 l 1
 1063 0 l 1
 780 0 l 1
 780 440 l 1
 614 440 l 1
 397 0 l 1
 83 0 l 1
 335 472 l 1
385 762 m 0
 390 691 430 644 535 644 c 2
 780 644 l 1
 780 886 l 1
 535 886 l 2
 426 886 380 835 385 762 c 0
EndSplineSet
EndChar

StartChar: uni2206
Encoding: 648 8710 490
Width: 1308
VWidth: 0
Flags: W
HStem: -20 21G<14 1288> 1439 20G<524.286 780.675>
LayerCount: 2
Fore
SplineSet
605 1271 m 0
 595 1271 590 1264 590 1253 c 0
 590 1226 614 1175 634 1119 c 1
 637 1120 l 1
 647 1149 l 1
 729 909 l 2
 766 801 812 687 847 588 c 1
 843 586 l 1
 932 332 l 1
 936 328 940 325 944 325 c 0
 948 325 949 326 949 331 c 0
 949 403 637 1222 620 1260 c 0
 619 1264 613 1271 605 1271 c 0
1288 117 m 1
 1288 -20 l 1
 14 -20 l 1
 14 116 l 1
 532 1459 l 1
 773 1459 l 1
 1288 117 l 1
EndSplineSet
EndChar

StartChar: v
Encoding: 87 118 494
Width: 1156
Flags: W
HStem: 0 21G<437.945 746.527> 1080 20G<3 322.165 836.53 1153>
VStem: 843 310<790 1100>
LayerCount: 2
Fore
SplineSet
739 0 m 1
 446 0 l 1
 3 1100 l 5
 315 1100 l 5
 521 525 l 1
 596 279 l 1
 657 525 l 1
 843 1100 l 5
 1153 1100 l 5
 739 0 l 1
EndSplineSet
EndChar

StartChar: w
Encoding: 88 119 495
Width: 1749
Flags: W
HStem: 0 21G<337.945 634.83 1084.81 1384.55> 1080 20G<11 314.447 723.672 1030.65 1437.92 1738>
VStem: 11 298<802 1100> 1444 294<806 1100>
DStem2: 443 608 11 1100 0.289742 -0.957105<-509.721 0> 309 1100 11 1100 0.289742 -0.957105<0 722.531> 1025 1100 873 837 0.250962 -0.967997<216.437 798.705>
LayerCount: 2
Fore
SplineSet
1378 0 m 1
 1090 0 l 1
 873 837 l 1
 629 0 l 1
 344 0 l 1
 11 1100 l 5
 309 1100 l 5
 443 608 l 1
 506 324 l 1
 568 588 l 1
 730 1100 l 5
 1025 1100 l 5
 1169 590 l 1
 1226 327 l 1
 1295 610 l 1
 1444 1100 l 5
 1738 1100 l 5
 1378 0 l 1
EndSplineSet
EndChar

StartChar: x
Encoding: 89 120 497
Width: 1191
Flags: W
HStem: 0 21G<17 360.935 823.584 1173> 1080 20G<37 382.611 820.833 1159>
VStem: 17 331<0 331> 37 333<767 1100> 836 337<0 337 763 1100>
DStem2: 17 0 348 0 0.560783 0.827963<185.619 644.02> 370 1100 37 1100 0.559685 -0.828705<0 425.382> 597 740 790 566 0.568489 0.822691<0 430.901>
LayerCount: 2
Fore
SplineSet
17 0 m 1xe8
 399 564 l 1
 37 1100 l 5
 370 1100 l 5xd8
 597 740 l 1
 834 1100 l 5
 1159 1100 l 5
 790 566 l 1
 1173 0 l 1
 836 0 l 1
 597 385 l 1
 348 0 l 1
 17 0 l 1xe8
EndSplineSet
EndChar

StartChar: y
Encoding: 90 121 498
Width: 1140
Flags: W
PickledData: "(dp1
S'com.typemytype.robofont.layerData'
p2
(dp3
S'back'
p4
(dp5
S'name'
p6
S'y'
sS'lib'
p7
(dp8
sS'unicodes'
p9
(tsS'width'
p10
I1079
sS'contours'
p11
(tsS'components'
p12
(tsS'anchors'
p13
(tsss."
HStem: -451 225<64 325.682> 1080 20G<-9 312.443 785.066 1142>
DStem2: 305 1100 -9 1100 0.381441 -0.924393<0 747.906>
LayerCount: 2
Fore
SplineSet
435 24 m 1
 -9 1100 l 5
 305 1100 l 5
 532 490 l 1
 574 332 l 1
 648.376 600.624 743.133 840.867 827 1100 c 5
 1142 1100 l 5
 680 -104 l 2
 581 -362 438 -451 212 -451 c 0
 162 -451 113 -448 64 -443 c 1
 50 -220 l 1
 91 -225 136 -226 179 -226 c 0
 286 -226 356 -190 402 -72 c 0
 413 -46 423 -14 435 24 c 1
EndSplineSet
EndChar

StartChar: yen
Encoding: 101 165 502
Width: 1213
Flags: W
HStem: 0 21G<495 793> 286 162<151 1146> 575 162<151 1146> 1432 20G<-37 293.874 983.226 1310>
VStem: -37 319<1133 1452> 495 298<0 593> 995 315<1137 1452>
LayerCount: 2
Fore
SplineSet
1146 737 m 1
 1146 575 l 1
 151 575 l 1
 151 737 l 1
 1146 737 l 1
1146 448 m 1
 1146 286 l 1
 151 286 l 1
 151 448 l 1
 1146 448 l 1
1310 1452 m 1
 793 593 l 1
 793 0 l 1
 495 0 l 1
 495 593 l 1
 -37 1452 l 1
 282 1452 l 1
 640 849 l 1
 995 1452 l 1
 1310 1452 l 1
EndSplineSet
EndChar

StartChar: z
Encoding: 91 122 503
Width: 998
Flags: W
HStem: 0 211<427 945> 901 199<94 574>
DStem2: 65 170 427 211 0.571426 0.820653<240.503 890.754>
LayerCount: 2
Fore
SplineSet
945 211 m 1
 945 0 l 1
 65 0 l 1
 65 170 l 1
 574 901 l 1
 94 901 l 1
 94 1100 l 5
 928 1100 l 5
 928 936 l 1
 427 211 l 1
 945 211 l 1
EndSplineSet
EndChar

StartChar: zero
Encoding: 17 48 507
Width: 1314
VWidth: 0
Flags: W
HStem: -20 226<531.407 791.161> 1252 226<531.776 790.471>
VStem: 98 297<393.199 1062.28> 926 297<384.332 1061.04>
LayerCount: 2
Fore
SplineSet
661 1478 m 0
 1083 1478 1223 1109 1223 726 c 0
 1223 343 1085 -20 661 -20 c 0
 237 -20 98 343 98 726 c 0
 98 1112 239 1478 661 1478 c 0
662 206 m 0
 889 206 926 483 926 734 c 0
 926 984 888 1252 661 1252 c 0
 435 1252 397 985 395 739 c 1
 395 486 434 206 662 206 c 0
EndSplineSet
EndChar

StartChar: uni031B
Encoding: 670 795 590
Width: 571
VWidth: 0
Flags: W
HStem: -388 183<132.216 329>
VStem: 272 161<-189.182 43.3963>
LayerCount: 2
Fore
SplineSet
253 46 m 1
 397 46 l 1
 420 -16 433 -87 433 -153 c 0
 433 -279 386 -388 272 -388 c 0
 202 -388 126 -353 79 -297 c 1
 79 -192 l 1
 113 -201 141 -205 165 -205 c 0
 247 -205 272 -157 272 -88 c 0
 272 -49 264 -3 253 46 c 1
EndSplineSet
EndChar

StartChar: Gamma
Encoding: 446 915 592
Width: 1603
VWidth: 0
Flags: W
HStem: 0 21G<125 423> 1227 218<423 1063>
VStem: 125 298<0 1227>
LayerCount: 2
Back
SplineSet
121 0 m 5
 121 1445 l 5
 1062 1445 l 5
 1039 1227 l 5
 419 1227 l 5
 419 0 l 5
 121 0 l 5
EndSplineSet
Fore
SplineSet
125 0 m 1
 125 1445 l 1
 1087 1445 l 1
 1063 1227 l 1
 423 1227 l 1
 423 0 l 1
 125 0 l 1
EndSplineSet
EndChar

StartChar: dcroat
Encoding: 209 273 611
Width: 1257
VWidth: 0
Flags: W
HStem: -20 209<460.538 747.444> 0 21G<877.195 1155> 929 209<465.803 752.715> 1212 142<566 872 1155 1258>
VStem: 64 272<332.32 782.922> 872 283<0 149 312.633 790.849 977 1212 1354 1499>
LayerCount: 2
Fore
SplineSet
611 189 m 0xbc
 747 189 876 267 876 555 c 0
 876 839 742 929 611 929 c 0
 483 929 336 853 336 555 c 0
 336 271 479 189 611 189 c 0xbc
1258 1354 m 1
 1258 1212 l 1
 1155 1212 l 1
 1155 0 l 1
 878 0 l 1x7c
 872 149 l 1
 819 53 719 -20 558 -20 c 1
 247 -13 64 236 64 565 c 0
 64 872 237 1138 555 1138 c 0
 740 1138 832 1054 872 977 c 1
 872 1212 l 1
 566 1212 l 1
 566 1354 l 1
 872 1354 l 1
 872 1499 l 1
 1155 1516 l 1
 1155 1354 l 1
 1258 1354 l 1
EndSplineSet
EndChar

StartChar: Hbar
Encoding: 230 294 612
Width: 1500
VWidth: 0
Flags: W
HStem: 0 21G<125 423 1080 1378> 645 210<423 1080> 1188 142<41 125 423 1080 1378 1462> 1425 20G<125 423 1080 1378>
VStem: 125 298<0 645 855 1188 1330 1445> 1080 298<0 645 855 1188 1330 1445>
LayerCount: 2
Fore
SplineSet
1080 1188 m 1
 423 1188 l 1
 423 855 l 1
 1080 855 l 1
 1080 1188 l 1
1080 645 m 1
 423 645 l 1
 423 0 l 1
 125 0 l 1
 125 1188 l 1
 41 1188 l 1
 41 1330 l 1
 125 1330 l 1
 125 1445 l 1
 423 1445 l 1
 423 1330 l 1
 1080 1330 l 1
 1080 1445 l 1
 1378 1445 l 1
 1378 1330 l 1
 1462 1330 l 1
 1462 1188 l 1
 1378 1188 l 1
 1378 0 l 1
 1080 0 l 1
 1080 645 l 1
EndSplineSet
EndChar

StartChar: eng
Encoding: 266 331 613
Width: 1211
VWidth: 0
Flags: W
HStem: -402 209<630 803.236> 929 209<545.763 784.121> 1078 20G<104 343.262>
VStem: 104 283<6 814.603> 841 282<-157.187 866.744>
LayerCount: 2
Fore
SplineSet
749 1138 m 0xd8
 1012 1133 1123 939 1123 671 c 2
 1123 92 l 2
 1123 -236 1067 -402 691 -402 c 2
 630 -402 l 1
 599 -193 l 1
 659 -193 l 2
 817 -193 841 -144 841 26 c 2
 840 646 l 2
 840 799 830 929 658 929 c 0xd8
 550 929 435 842 387 754 c 1
 387 6 l 1
 104 6 l 1
 104 370 104 734 104 1098 c 1
 340 1098 l 1xb8
 363 957 l 1
 449 1056 586 1141 749 1138 c 0xd8
EndSplineSet
EndChar

StartChar: Eng
Encoding: 265 330 614
Width: 1419
VWidth: 0
Flags: W
HStem: -303 214<770 981.217> 0 21G<125.986 424> 1251 228<632.461 939.132> 1432 20G<125 386.593>
VStem: 126 298<0 1105.93> 1024 297<-44.5733 1163.23>
LayerCount: 2
Fore
SplineSet
845 1479 m 0xec
 1180 1479 1321 1274 1321 940 c 2
 1321 139 l 2
 1321 -184 1210 -303 817 -303 c 2
 770 -303 l 1
 751 -89 l 1
 836 -89 l 2
 995 -89 1024 -28 1024 130 c 2
 1024 925 l 2
 1024 1153 965 1251 803 1251 c 0xec
 708 1251 513 1205 424 1045 c 1
 424 0 l 1
 126 0 l 1
 125 1452 l 1
 383 1452 l 1xdc
 413 1285 l 1
 491 1386 680 1479 845 1479 c 0xec
EndSplineSet
EndChar

StartChar: uni00AD
Encoding: 109 173 617
Width: 678
Flags: W
HStem: 428 222<65 613>
VStem: 65 548<428 650>
LayerCount: 2
Fore
SplineSet
613 428 m 1
 65 428 l 1
 65 650 l 1
 613 650 l 1
 613 428 l 1
EndSplineSet
EndChar

